<svg width="4429" height="1639" viewBox="0 0 4429 1639" fill="none" xmlns="http://www.w3.org/2000/svg">
<path d="M2261.5 25V0H2261.5L2261.5 25ZM2489.66 225.328L2464.87 228.528C2466.03 237.575 2472.04 245.267 2480.53 248.6L2489.66 225.328ZM2595.75 380.957H2620.75H2595.75ZM1977.17 548.083L1977.01 573.083C1977.06 573.083 1977.11 573.083 1977.17 573.083V548.083ZM1975.33 548.071L1975.01 573.069C1975.06 573.07 1975.12 573.07 1975.17 573.071L1975.33 548.071ZM1835 405.917L1810 405.917V405.917H1835ZM1917 277.074L1927.59 299.719C1938.49 294.621 1944.21 282.485 1941.21 270.835L1917 277.074ZM1914.22 255.069L1889.22 255.069V255.069H1914.22ZM2002.13 167.166V142.166H2002.13L2002.13 167.166ZM2044.62 178.102L2032.52 199.977C2038.94 203.533 2046.61 204.082 2053.48 201.479C2060.35 198.877 2065.72 193.385 2068.18 186.463L2044.62 178.102ZM2261.5 25V50C2365.75 50 2451.87 127.819 2464.87 228.528L2489.66 225.328L2514.46 222.128C2498.28 96.8079 2391.21 0 2261.5 0V25ZM2489.66 225.328L2480.53 248.6C2533.39 269.349 2570.75 320.821 2570.75 380.957H2595.75H2620.75C2620.75 299.572 2570.16 230.066 2498.8 202.057L2489.66 225.328ZM2595.75 380.957H2570.75C2570.75 459.451 2507.12 523.083 2428.62 523.083V548.083V573.083C2534.73 573.083 2620.75 487.066 2620.75 380.957H2595.75ZM2428.62 548.083V523.083H1977.17V548.083V573.083H2428.62V548.083ZM1977.17 548.083L1977.33 523.084L1975.49 523.072L1975.33 548.071L1975.17 573.071L1977.01 573.083L1977.17 548.083ZM1975.33 548.071L1975.64 523.073C1911.64 522.263 1860 470.118 1860 405.917H1835H1810C1810 497.521 1883.68 571.912 1975.01 573.069L1975.33 548.071ZM1835 405.917L1860 405.917C1860 358.97 1887.61 318.421 1927.59 299.719L1917 277.074L1906.41 254.429C1849.5 281.047 1810 338.843 1810 405.917L1835 405.917ZM1917 277.074L1941.21 270.835C1939.92 265.824 1939.22 260.546 1939.22 255.069H1914.22H1889.22C1889.22 264.79 1890.46 274.259 1892.79 283.314L1917 277.074ZM1914.22 255.069L1939.22 255.069C1939.22 220.329 1967.39 192.166 2002.13 192.166L2002.13 167.166L2002.13 142.166C1939.77 142.166 1889.22 192.714 1889.22 255.069L1914.22 255.069ZM2002.13 167.166V192.166C2013.2 192.166 2023.53 195.005 2032.52 199.977L2044.62 178.102L2056.72 156.226C2040.52 147.262 2021.88 142.166 2002.13 142.166V167.166ZM2044.62 178.102L2068.18 186.463C2096.41 106.91 2172.34 50.0001 2261.5 50L2261.5 25L2261.5 0C2150.51 0.000127792 2056.15 70.8671 2021.06 169.74L2044.62 178.102Z" fill="#4F98FF"/>
<rect x="2007.87" y="615.368" width="67.2846" height="148.677" rx="31" transform="rotate(23.8025 2007.87 615.368)" fill="#4F98FF"/>
<rect x="2067" y="761" width="67.2846" height="148.677" rx="31" transform="rotate(23.8025 2067 761)" fill="#4F98FF"/>
<rect x="2418.09" y="625.135" width="67.2846" height="148.677" rx="31" transform="rotate(23.8025 2418.09 625.135)" fill="#4F98FF"/>
<rect x="2275" y="761" width="67.2846" height="148.677" rx="31" transform="rotate(23.8025 2275 761)" fill="#4F98FF"/>
<rect x="2212.98" y="625.135" width="67.2846" height="148.677" rx="31" transform="rotate(23.8025 2212.98 625.135)" fill="#4F98FF"/>
<path d="M43.3949 1262.55V1408H12.642V1262.55H43.3949ZM126.154 1298.91V1321.64H60.4581V1298.91H126.154ZM75.3729 1272.77H105.629V1374.48C105.629 1377.27 106.055 1379.45 106.907 1381.01C107.759 1382.53 108.943 1383.59 110.458 1384.21C112.021 1384.82 113.82 1385.13 115.856 1385.13C117.276 1385.13 118.697 1385.01 120.117 1384.78C121.538 1384.49 122.627 1384.28 123.384 1384.14L128.143 1406.65C126.628 1407.12 124.497 1407.67 121.751 1408.28C119.004 1408.95 115.666 1409.35 111.737 1409.49C104.445 1409.78 98.0528 1408.8 92.5604 1406.58C87.1153 1404.35 82.8776 1400.9 79.8473 1396.21C76.817 1391.52 75.3255 1385.6 75.3729 1378.45V1272.77ZM165.323 1262.55V1317.8H143.732V1262.55H165.323ZM278.427 1330.02L250.728 1331.72C250.254 1329.35 249.237 1327.22 247.674 1325.33C246.112 1323.39 244.052 1321.85 241.495 1320.71C238.986 1319.53 235.979 1318.94 232.475 1318.94C227.788 1318.94 223.834 1319.93 220.614 1321.92C217.395 1323.86 215.785 1326.47 215.785 1329.73C215.785 1332.34 216.826 1334.54 218.91 1336.34C220.993 1338.14 224.568 1339.58 229.634 1340.67L249.379 1344.65C259.985 1346.83 267.892 1350.33 273.1 1355.16C278.308 1359.99 280.913 1366.33 280.913 1374.19C280.913 1381.34 278.806 1387.62 274.592 1393.01C270.425 1398.41 264.696 1402.63 257.404 1405.66C250.16 1408.64 241.803 1410.13 232.333 1410.13C217.892 1410.13 206.386 1407.12 197.816 1401.11C189.293 1395.05 184.298 1386.81 182.83 1376.39L212.589 1374.83C213.488 1379.24 215.666 1382.6 219.123 1384.92C222.579 1387.19 227.006 1388.33 232.404 1388.33C237.707 1388.33 241.969 1387.31 245.188 1385.27C248.455 1383.19 250.112 1380.51 250.16 1377.25C250.112 1374.5 248.952 1372.25 246.68 1370.5C244.407 1368.7 240.903 1367.33 236.168 1366.38L217.276 1362.62C206.623 1360.49 198.692 1356.79 193.484 1351.54C188.323 1346.28 185.742 1339.58 185.742 1331.44C185.742 1324.43 187.636 1318.39 191.424 1313.33C195.259 1308.26 200.633 1304.35 207.546 1301.61C214.506 1298.86 222.65 1297.49 231.978 1297.49C245.756 1297.49 256.599 1300.4 264.506 1306.22C272.461 1312.05 277.101 1319.98 278.427 1330.02ZM346.254 1408V1298.91H375.586V1317.94H376.722C378.711 1311.17 382.049 1306.06 386.737 1302.6C391.424 1299.1 396.822 1297.35 402.93 1297.35C404.445 1297.35 406.078 1297.44 407.83 1297.63C409.582 1297.82 411.121 1298.08 412.447 1298.41V1325.26C411.026 1324.83 409.061 1324.45 406.552 1324.12C404.042 1323.79 401.746 1323.62 399.663 1323.62C395.212 1323.62 391.235 1324.6 387.731 1326.54C384.274 1328.43 381.528 1331.08 379.492 1334.49C377.504 1337.9 376.509 1341.83 376.509 1346.28V1408H346.254ZM456.072 1410.06C449.112 1410.06 442.91 1408.85 437.464 1406.44C432.019 1403.98 427.711 1400.35 424.538 1395.57C421.413 1390.74 419.851 1384.73 419.851 1377.53C419.851 1371.47 420.964 1366.38 423.189 1362.26C425.414 1358.14 428.445 1354.83 432.28 1352.32C436.115 1349.81 440.471 1347.91 445.348 1346.64C450.272 1345.36 455.433 1344.46 460.831 1343.94C467.176 1343.27 472.289 1342.66 476.172 1342.09C480.054 1341.48 482.872 1340.58 484.624 1339.39C486.375 1338.21 487.251 1336.46 487.251 1334.14V1333.71C487.251 1329.21 485.831 1325.73 482.99 1323.27C480.196 1320.81 476.219 1319.58 471.058 1319.58C465.613 1319.58 461.281 1320.78 458.061 1323.2C454.841 1325.57 452.711 1328.55 451.669 1332.15L423.686 1329.88C425.107 1323.25 427.9 1317.52 432.067 1312.69C436.233 1307.81 441.607 1304.07 448.189 1301.47C454.818 1298.81 462.488 1297.49 471.2 1297.49C477.261 1297.49 483.061 1298.2 488.601 1299.62C494.188 1301.04 499.136 1303.24 503.445 1306.22C507.801 1309.21 511.233 1313.04 513.743 1317.73C516.252 1322.37 517.507 1327.93 517.507 1334.42V1408H488.814V1392.87H487.962C486.21 1396.28 483.866 1399.29 480.93 1401.89C477.995 1404.45 474.467 1406.46 470.348 1407.93C466.229 1409.35 461.47 1410.06 456.072 1410.06ZM464.737 1389.18C469.188 1389.18 473.118 1388.3 476.527 1386.55C479.936 1384.75 482.611 1382.34 484.553 1379.31C486.494 1376.28 487.464 1372.84 487.464 1369.01V1357.43C486.518 1358.05 485.215 1358.62 483.558 1359.14C481.948 1359.61 480.125 1360.06 478.089 1360.49C476.054 1360.86 474.018 1361.22 471.982 1361.55C469.946 1361.84 468.099 1362.1 466.442 1362.33C462.891 1362.85 459.789 1363.68 457.138 1364.82C454.486 1365.95 452.427 1367.49 450.959 1369.43C449.491 1371.33 448.757 1373.7 448.757 1376.54C448.757 1380.66 450.249 1383.8 453.232 1385.98C456.262 1388.11 460.097 1389.18 464.737 1389.18ZM540.98 1408V1298.91H571.236V1408H540.98ZM556.179 1284.85C551.681 1284.85 547.822 1283.36 544.602 1280.37C541.43 1277.34 539.844 1273.72 539.844 1269.51C539.844 1265.34 541.43 1261.76 544.602 1258.78C547.822 1255.75 551.681 1254.24 556.179 1254.24C560.677 1254.24 564.512 1255.75 567.685 1258.78C570.904 1261.76 572.514 1265.34 572.514 1269.51C572.514 1273.72 570.904 1277.34 567.685 1280.37C564.512 1283.36 560.677 1284.85 556.179 1284.85ZM625.728 1344.93V1408H595.472V1298.91H624.308V1318.16H625.586C628.001 1311.81 632.049 1306.79 637.731 1303.1C643.413 1299.36 650.302 1297.49 658.398 1297.49C665.974 1297.49 672.579 1299.15 678.214 1302.46C683.848 1305.77 688.228 1310.51 691.353 1316.66C694.478 1322.77 696.04 1330.06 696.04 1338.54V1408H665.785V1343.94C665.832 1337.26 664.128 1332.05 660.671 1328.31C657.215 1324.52 652.456 1322.63 646.396 1322.63C642.324 1322.63 638.725 1323.51 635.6 1325.26C632.522 1327.01 630.108 1329.57 628.356 1332.93C626.651 1336.24 625.775 1340.24 625.728 1344.93ZM719.886 1408V1298.91H750.142V1408H719.886ZM735.085 1284.85C730.587 1284.85 726.728 1283.36 723.509 1280.37C720.336 1277.34 718.75 1273.72 718.75 1269.51C718.75 1265.34 720.336 1261.76 723.509 1258.78C726.728 1255.75 730.587 1254.24 735.085 1254.24C739.583 1254.24 743.419 1255.75 746.591 1258.78C749.811 1261.76 751.42 1265.34 751.42 1269.51C751.42 1273.72 749.811 1277.34 746.591 1280.37C743.419 1283.36 739.583 1284.85 735.085 1284.85ZM804.634 1344.93V1408H774.379V1298.91H803.214V1318.16H804.492C806.907 1311.81 810.955 1306.79 816.637 1303.1C822.319 1299.36 829.208 1297.49 837.305 1297.49C844.88 1297.49 851.486 1299.15 857.12 1302.46C862.755 1305.77 867.134 1310.51 870.259 1316.66C873.384 1322.77 874.947 1330.06 874.947 1338.54V1408H844.691V1343.94C844.738 1337.26 843.034 1332.05 839.577 1328.31C836.121 1324.52 831.362 1322.63 825.302 1322.63C821.23 1322.63 817.631 1323.51 814.506 1325.26C811.429 1327.01 809.014 1329.57 807.262 1332.93C805.558 1336.24 804.682 1340.24 804.634 1344.93ZM947.94 1451.18C938.139 1451.18 929.735 1449.83 922.727 1447.13C915.767 1444.48 910.227 1440.86 906.108 1436.27C901.989 1431.67 899.313 1426.51 898.082 1420.78L926.065 1417.02C926.918 1419.2 928.267 1421.23 930.114 1423.13C931.96 1425.02 934.399 1426.54 937.429 1427.67C940.507 1428.86 944.247 1429.45 948.651 1429.45C955.232 1429.45 960.653 1427.84 964.915 1424.62C969.223 1421.45 971.378 1416.12 971.378 1408.64V1388.68H970.099C968.774 1391.71 966.785 1394.58 964.134 1397.28C961.482 1399.97 958.073 1402.18 953.906 1403.88C949.74 1405.59 944.768 1406.44 938.991 1406.44C930.8 1406.44 923.343 1404.54 916.619 1400.76C909.943 1396.92 904.616 1391.07 900.639 1383.21C896.709 1375.31 894.744 1365.32 894.744 1353.24C894.744 1340.88 896.757 1330.56 900.781 1322.28C904.806 1313.99 910.156 1307.79 916.832 1303.67C923.556 1299.55 930.919 1297.49 938.92 1297.49C945.028 1297.49 950.142 1298.53 954.261 1300.61C958.381 1302.65 961.695 1305.21 964.205 1308.28C966.761 1311.31 968.726 1314.3 970.099 1317.23H971.236V1298.91H1001.28V1409.07C1001.28 1418.35 999.006 1426.11 994.46 1432.36C989.915 1438.61 983.617 1443.3 975.568 1446.42C967.566 1449.6 958.357 1451.18 947.94 1451.18ZM948.58 1383.71C953.456 1383.71 957.576 1382.5 960.938 1380.09C964.347 1377.63 966.951 1374.12 968.75 1369.58C970.597 1364.98 971.52 1359.49 971.52 1353.1C971.52 1346.71 970.62 1341.17 968.821 1336.48C967.022 1331.75 964.418 1328.08 961.009 1325.47C957.599 1322.87 953.456 1321.57 948.58 1321.57C943.608 1321.57 939.418 1322.91 936.009 1325.61C932.599 1328.27 930.019 1331.96 928.267 1336.69C926.515 1341.43 925.639 1346.9 925.639 1353.1C925.639 1359.4 926.515 1364.84 928.267 1369.43C930.066 1373.98 932.647 1377.51 936.009 1380.02C939.418 1382.48 943.608 1383.71 948.58 1383.71ZM1120.93 1410.13C1109.9 1410.13 1100.36 1407.79 1092.31 1403.1C1084.31 1398.36 1078.13 1391.78 1073.77 1383.36C1069.42 1374.88 1067.24 1365.05 1067.24 1353.88C1067.24 1342.61 1069.42 1332.76 1073.77 1324.34C1078.13 1315.86 1084.31 1309.28 1092.31 1304.59C1100.36 1299.86 1109.9 1297.49 1120.93 1297.49C1131.97 1297.49 1141.48 1299.86 1149.49 1304.59C1157.53 1309.28 1163.74 1315.86 1168.09 1324.34C1172.45 1332.76 1174.63 1342.61 1174.63 1353.88C1174.63 1365.05 1172.45 1374.88 1168.09 1383.36C1163.74 1391.78 1157.53 1398.36 1149.49 1403.1C1141.48 1407.79 1131.97 1410.13 1120.93 1410.13ZM1121.08 1386.69C1126.09 1386.69 1130.29 1385.27 1133.65 1382.43C1137.01 1379.54 1139.54 1375.61 1141.25 1370.64C1143 1365.67 1143.87 1360.01 1143.87 1353.67C1143.87 1347.32 1143 1341.66 1141.25 1336.69C1139.54 1331.72 1137.01 1327.79 1133.65 1324.9C1130.29 1322.02 1126.09 1320.57 1121.08 1320.57C1116.01 1320.57 1111.75 1322.02 1108.29 1324.9C1104.88 1327.79 1102.3 1331.72 1100.55 1336.69C1098.85 1341.66 1097.99 1347.32 1097.99 1353.67C1097.99 1360.01 1098.85 1365.67 1100.55 1370.64C1102.3 1375.61 1104.88 1379.54 1108.29 1382.43C1111.75 1385.27 1116.01 1386.69 1121.08 1386.69ZM1264.26 1361.55V1298.91H1294.51V1408H1265.47V1388.18H1264.33C1261.87 1394.58 1257.77 1399.71 1252.04 1403.6C1246.36 1407.48 1239.42 1409.42 1231.23 1409.42C1223.94 1409.42 1217.52 1407.76 1211.99 1404.45C1206.45 1401.13 1202.11 1396.42 1198.99 1390.32C1195.91 1384.21 1194.35 1376.89 1194.3 1368.37V1298.91H1224.56V1362.97C1224.6 1369.41 1226.33 1374.5 1229.74 1378.24C1233.15 1381.98 1237.72 1383.85 1243.45 1383.85C1247.09 1383.85 1250.5 1383.02 1253.68 1381.37C1256.85 1379.66 1259.4 1377.15 1261.35 1373.84C1263.33 1370.52 1264.31 1366.43 1264.26 1361.55ZM1376.74 1298.91V1321.64H1311.04V1298.91H1376.74ZM1325.96 1272.77H1356.21V1374.48C1356.21 1377.27 1356.64 1379.45 1357.49 1381.01C1358.35 1382.53 1359.53 1383.59 1361.04 1384.21C1362.61 1384.82 1364.41 1385.13 1366.44 1385.13C1367.86 1385.13 1369.28 1385.01 1370.7 1384.78C1372.12 1384.49 1373.21 1384.28 1373.97 1384.14L1378.73 1406.65C1377.21 1407.12 1375.08 1407.67 1372.34 1408.28C1369.59 1408.95 1366.25 1409.35 1362.32 1409.49C1355.03 1409.78 1348.64 1408.8 1343.15 1406.58C1337.7 1404.35 1333.46 1400.9 1330.43 1396.21C1327.4 1391.52 1325.91 1385.6 1325.96 1378.45V1272.77ZM1485.85 1330.02L1458.15 1331.72C1457.68 1329.35 1456.66 1327.22 1455.1 1325.33C1453.53 1323.39 1451.47 1321.85 1448.92 1320.71C1446.41 1319.53 1443.4 1318.94 1439.9 1318.94C1435.21 1318.94 1431.26 1319.93 1428.04 1321.92C1424.82 1323.86 1423.21 1326.47 1423.21 1329.73C1423.21 1332.34 1424.25 1334.54 1426.33 1336.34C1428.42 1338.14 1431.99 1339.58 1437.06 1340.67L1456.8 1344.65C1467.41 1346.83 1475.31 1350.33 1480.52 1355.16C1485.73 1359.99 1488.33 1366.33 1488.33 1374.19C1488.33 1381.34 1486.23 1387.62 1482.01 1393.01C1477.85 1398.41 1472.12 1402.63 1464.83 1405.66C1457.58 1408.64 1449.22 1410.13 1439.75 1410.13C1425.31 1410.13 1413.81 1407.12 1405.24 1401.11C1396.72 1395.05 1391.72 1386.81 1390.25 1376.39L1420.01 1374.83C1420.91 1379.24 1423.09 1382.6 1426.54 1384.92C1430 1387.19 1434.43 1388.33 1439.83 1388.33C1445.13 1388.33 1449.39 1387.31 1452.61 1385.27C1455.88 1383.19 1457.53 1380.51 1457.58 1377.25C1457.53 1374.5 1456.37 1372.25 1454.1 1370.5C1451.83 1368.7 1448.33 1367.33 1443.59 1366.38L1424.7 1362.62C1414.04 1360.49 1406.11 1356.79 1400.91 1351.54C1395.74 1346.28 1393.16 1339.58 1393.16 1331.44C1393.16 1324.43 1395.06 1318.39 1398.85 1313.33C1402.68 1308.26 1408.06 1304.35 1414.97 1301.61C1421.93 1298.86 1430.07 1297.49 1439.4 1297.49C1453.18 1297.49 1464.02 1300.4 1471.93 1306.22C1479.88 1312.05 1484.52 1319.98 1485.85 1330.02ZM1507.39 1408V1298.91H1537.64V1408H1507.39ZM1522.59 1284.85C1518.09 1284.85 1514.23 1283.36 1511.01 1280.37C1507.84 1277.34 1506.25 1273.72 1506.25 1269.51C1506.25 1265.34 1507.84 1261.76 1511.01 1258.78C1514.23 1255.75 1518.09 1254.24 1522.59 1254.24C1527.08 1254.24 1530.92 1255.75 1534.09 1258.78C1537.31 1261.76 1538.92 1265.34 1538.92 1269.51C1538.92 1273.72 1537.31 1277.34 1534.09 1280.37C1530.92 1283.36 1527.08 1284.85 1522.59 1284.85ZM1602.08 1409.78C1593.79 1409.78 1586.29 1407.64 1579.56 1403.38C1572.89 1399.07 1567.58 1392.75 1563.65 1384.42C1559.77 1376.04 1557.83 1365.77 1557.83 1353.6C1557.83 1341.1 1559.84 1330.7 1563.87 1322.42C1567.89 1314.08 1573.24 1307.86 1579.92 1303.74C1586.64 1299.57 1594 1297.49 1602.01 1297.49C1608.11 1297.49 1613.2 1298.53 1617.28 1300.61C1621.4 1302.65 1624.71 1305.21 1627.22 1308.28C1629.78 1311.31 1631.72 1314.3 1633.04 1317.23H1633.97V1262.55H1664.15V1408H1634.32V1390.53H1633.04C1631.62 1393.56 1629.61 1396.57 1627.01 1399.55C1624.45 1402.48 1621.11 1404.92 1616.99 1406.86C1612.92 1408.8 1607.95 1409.78 1602.08 1409.78ZM1611.67 1385.7C1616.54 1385.7 1620.66 1384.37 1624.02 1381.72C1627.43 1379.02 1630.04 1375.26 1631.84 1370.43C1633.68 1365.6 1634.61 1359.94 1634.61 1353.45C1634.61 1346.97 1633.71 1341.33 1631.91 1336.55C1630.11 1331.77 1627.5 1328.08 1624.09 1325.47C1620.69 1322.87 1616.54 1321.57 1611.67 1321.57C1606.69 1321.57 1602.5 1322.91 1599.09 1325.61C1595.69 1328.31 1593.1 1332.05 1591.35 1336.84C1589.6 1341.62 1588.73 1347.16 1588.73 1353.45C1588.73 1359.8 1589.6 1365.41 1591.35 1370.29C1593.15 1375.12 1595.73 1378.9 1599.09 1381.65C1602.5 1384.35 1606.69 1385.7 1611.67 1385.7ZM1738.74 1410.13C1727.52 1410.13 1717.86 1407.86 1709.77 1403.31C1701.72 1398.72 1695.51 1392.23 1691.16 1383.85C1686.8 1375.42 1684.62 1365.46 1684.62 1353.95C1684.62 1342.73 1686.8 1332.88 1691.16 1324.41C1695.51 1315.93 1701.65 1309.33 1709.55 1304.59C1717.51 1299.86 1726.83 1297.49 1737.54 1297.49C1744.73 1297.49 1751.43 1298.65 1757.63 1300.97C1763.88 1303.24 1769.33 1306.67 1773.97 1311.27C1778.66 1315.86 1782.3 1321.64 1784.91 1328.6C1787.51 1335.51 1788.81 1343.61 1788.81 1352.89V1361.2H1696.7V1342.45H1760.33C1760.33 1338.09 1759.39 1334.23 1757.49 1330.87C1755.6 1327.51 1752.97 1324.88 1749.61 1322.99C1746.29 1321.04 1742.44 1320.07 1738.03 1320.07C1733.44 1320.07 1729.37 1321.14 1725.82 1323.27C1722.31 1325.35 1719.57 1328.17 1717.58 1331.72C1715.59 1335.23 1714.57 1339.13 1714.52 1343.44V1361.27C1714.52 1366.66 1715.52 1371.33 1717.51 1375.26C1719.54 1379.19 1722.41 1382.22 1726.1 1384.35C1729.79 1386.48 1734.17 1387.55 1739.24 1387.55C1742.6 1387.55 1745.68 1387.07 1748.47 1386.12C1751.27 1385.18 1753.66 1383.76 1755.65 1381.86C1757.63 1379.97 1759.15 1377.65 1760.19 1374.9L1788.17 1376.75C1786.75 1383.47 1783.84 1389.34 1779.44 1394.36C1775.08 1399.34 1769.45 1403.22 1762.54 1406.01C1755.67 1408.76 1747.74 1410.13 1738.74 1410.13ZM1826.24 1409.85C1821.56 1409.85 1817.53 1408.19 1814.17 1404.88C1810.85 1401.51 1809.2 1397.49 1809.2 1392.8C1809.2 1388.16 1810.85 1384.18 1814.17 1380.87C1817.53 1377.55 1821.56 1375.9 1826.24 1375.9C1830.79 1375.9 1834.77 1377.55 1838.17 1380.87C1841.58 1384.18 1843.29 1388.16 1843.29 1392.8C1843.29 1395.93 1842.48 1398.79 1840.87 1401.39C1839.31 1403.95 1837.25 1406.01 1834.69 1407.57C1832.14 1409.09 1829.32 1409.85 1826.24 1409.85ZM1902.61 1287.9V1262.55H2022.07V1287.9H1977.54V1408H1947.14V1287.9H1902.61ZM2041.18 1408V1298.91H2071.43V1408H2041.18ZM2056.37 1284.85C2051.88 1284.85 2048.02 1283.36 2044.8 1280.37C2041.63 1277.34 2040.04 1273.72 2040.04 1269.51C2040.04 1265.34 2041.63 1261.76 2044.8 1258.78C2048.02 1255.75 2051.88 1254.24 2056.37 1254.24C2060.87 1254.24 2064.71 1255.75 2067.88 1258.78C2071.1 1261.76 2072.71 1265.34 2072.71 1269.51C2072.71 1273.72 2071.1 1277.34 2067.88 1280.37C2064.71 1283.36 2060.87 1284.85 2056.37 1284.85ZM2095.67 1408V1298.91H2124.5V1318.16H2125.78C2128.05 1311.76 2131.84 1306.72 2137.14 1303.03C2142.45 1299.34 2148.79 1297.49 2156.18 1297.49C2163.66 1297.49 2170.03 1299.36 2175.28 1303.1C2180.54 1306.79 2184.04 1311.81 2185.8 1318.16H2186.93C2189.16 1311.91 2193.18 1306.91 2199.01 1303.17C2204.88 1299.38 2211.81 1297.49 2219.82 1297.49C2230 1297.49 2238.26 1300.73 2244.6 1307.22C2250.99 1313.66 2254.19 1322.8 2254.19 1334.63V1408H2224.01V1340.6C2224.01 1334.54 2222.4 1329.99 2219.18 1326.96C2215.96 1323.93 2211.93 1322.42 2207.1 1322.42C2201.61 1322.42 2197.32 1324.17 2194.25 1327.67C2191.17 1331.13 2189.63 1335.7 2189.63 1341.38V1408H2160.3V1339.96C2160.3 1334.61 2158.76 1330.35 2155.68 1327.18C2152.65 1324 2148.65 1322.42 2143.68 1322.42C2140.32 1322.42 2137.29 1323.27 2134.59 1324.97C2131.94 1326.63 2129.83 1328.98 2128.27 1332.01C2126.7 1334.99 2125.92 1338.49 2125.92 1342.52V1408H2095.67ZM2327.81 1410.13C2316.58 1410.13 2306.92 1407.86 2298.83 1403.31C2290.78 1398.72 2284.58 1392.23 2280.22 1383.85C2275.86 1375.42 2273.69 1365.46 2273.69 1353.95C2273.69 1342.73 2275.86 1332.88 2280.22 1324.41C2284.58 1315.93 2290.71 1309.33 2298.62 1304.59C2306.57 1299.86 2315.9 1297.49 2326.6 1297.49C2333.79 1297.49 2340.49 1298.65 2346.7 1300.97C2352.95 1303.24 2358.39 1306.67 2363.03 1311.27C2367.72 1315.86 2371.37 1321.64 2373.97 1328.6C2376.57 1335.51 2377.88 1343.61 2377.88 1352.89V1361.2H2285.76V1342.45H2349.4C2349.4 1338.09 2348.45 1334.23 2346.56 1330.87C2344.66 1327.51 2342.03 1324.88 2338.67 1322.99C2335.36 1321.04 2331.5 1320.07 2327.1 1320.07C2322.5 1320.07 2318.43 1321.14 2314.88 1323.27C2311.38 1325.35 2308.63 1328.17 2306.64 1331.72C2304.65 1335.23 2303.63 1339.13 2303.59 1343.44V1361.27C2303.59 1366.66 2304.58 1371.33 2306.57 1375.26C2308.61 1379.19 2311.47 1382.22 2315.16 1384.35C2318.86 1386.48 2323.24 1387.55 2328.3 1387.55C2331.66 1387.55 2334.74 1387.07 2337.54 1386.12C2340.33 1385.18 2342.72 1383.76 2344.71 1381.86C2346.7 1379.97 2348.21 1377.65 2349.25 1374.9L2377.24 1376.75C2375.82 1383.47 2372.9 1389.34 2368.5 1394.36C2364.15 1399.34 2358.51 1403.22 2351.6 1406.01C2344.73 1408.76 2336.8 1410.13 2327.81 1410.13ZM2502.57 1298.91V1321.64H2435.25V1298.91H2502.57ZM2450.66 1408V1291.03C2450.66 1283.12 2452.2 1276.56 2455.27 1271.35C2458.4 1266.14 2462.66 1262.24 2468.06 1259.63C2473.46 1257.03 2479.59 1255.73 2486.45 1255.73C2491.09 1255.73 2495.33 1256.08 2499.17 1256.79C2503.05 1257.5 2505.94 1258.14 2507.83 1258.71L2502.43 1281.44C2501.25 1281.06 2499.78 1280.7 2498.03 1280.37C2496.32 1280.04 2494.57 1279.88 2492.77 1279.88C2488.32 1279.88 2485.22 1280.92 2483.47 1283C2481.72 1285.04 2480.84 1287.9 2480.84 1291.59V1408H2450.66ZM2566.44 1410.13C2555.41 1410.13 2545.87 1407.79 2537.82 1403.1C2529.82 1398.36 2523.64 1391.78 2519.28 1383.36C2514.93 1374.88 2512.75 1365.05 2512.75 1353.88C2512.75 1342.61 2514.93 1332.76 2519.28 1324.34C2523.64 1315.86 2529.82 1309.28 2537.82 1304.59C2545.87 1299.86 2555.41 1297.49 2566.44 1297.49C2577.47 1297.49 2586.99 1299.86 2594.99 1304.59C2603.04 1309.28 2609.24 1315.86 2613.6 1324.34C2617.96 1332.76 2620.13 1342.61 2620.13 1353.88C2620.13 1365.05 2617.96 1374.88 2613.6 1383.36C2609.24 1391.78 2603.04 1398.36 2594.99 1403.1C2586.99 1407.79 2577.47 1410.13 2566.44 1410.13ZM2566.58 1386.69C2571.6 1386.69 2575.79 1385.27 2579.15 1382.43C2582.52 1379.54 2585.05 1375.61 2586.75 1370.64C2588.51 1365.67 2589.38 1360.01 2589.38 1353.67C2589.38 1347.32 2588.51 1341.66 2586.75 1336.69C2585.05 1331.72 2582.52 1327.79 2579.15 1324.9C2575.79 1322.02 2571.6 1320.57 2566.58 1320.57C2561.52 1320.57 2557.26 1322.02 2553.8 1324.9C2550.39 1327.79 2547.81 1331.72 2546.06 1336.69C2544.35 1341.66 2543.5 1347.32 2543.5 1353.67C2543.5 1360.01 2544.35 1365.67 2546.06 1370.64C2547.81 1375.61 2550.39 1379.54 2553.8 1382.43C2557.26 1385.27 2561.52 1386.69 2566.58 1386.69ZM2639.81 1408V1298.91H2669.14V1317.94H2670.28C2672.27 1311.17 2675.6 1306.06 2680.29 1302.6C2684.98 1299.1 2690.38 1297.35 2696.48 1297.35C2698 1297.35 2699.63 1297.44 2701.38 1297.63C2703.14 1297.82 2704.68 1298.08 2706 1298.41V1325.26C2704.58 1324.83 2702.62 1324.45 2700.11 1324.12C2697.6 1323.79 2695.3 1323.62 2693.22 1323.62C2688.77 1323.62 2684.79 1324.6 2681.29 1326.54C2677.83 1328.43 2675.08 1331.08 2673.05 1334.49C2671.06 1337.9 2670.06 1341.83 2670.06 1346.28V1408H2639.81ZM2825.96 1298.91V1321.64H2760.26V1298.91H2825.96ZM2775.18 1272.77H2805.43V1374.48C2805.43 1377.27 2805.86 1379.45 2806.71 1381.01C2807.56 1382.53 2808.75 1383.59 2810.26 1384.21C2811.83 1384.82 2813.62 1385.13 2815.66 1385.13C2817.08 1385.13 2818.5 1385.01 2819.92 1384.78C2821.34 1384.49 2822.43 1384.28 2823.19 1384.14L2827.95 1406.65C2826.43 1407.12 2824.3 1407.67 2821.56 1408.28C2818.81 1408.95 2815.47 1409.35 2811.54 1409.49C2804.25 1409.78 2797.86 1408.8 2792.37 1406.58C2786.92 1404.35 2782.68 1400.9 2779.65 1396.21C2776.62 1391.52 2775.13 1385.6 2775.18 1378.45V1272.77ZM2878.27 1344.93V1408H2848.01V1262.55H2877.41V1318.16H2878.69C2881.16 1311.72 2885.13 1306.67 2890.62 1303.03C2896.12 1299.34 2903.01 1297.49 2911.29 1297.49C2918.87 1297.49 2925.47 1299.15 2931.11 1302.46C2936.79 1305.73 2941.19 1310.44 2944.32 1316.59C2947.49 1322.7 2949.05 1330.02 2949.01 1338.54V1408H2918.75V1343.94C2918.8 1337.21 2917.09 1331.98 2913.64 1328.24C2910.23 1324.5 2905.45 1322.63 2899.29 1322.63C2895.17 1322.63 2891.52 1323.51 2888.35 1325.26C2885.23 1327.01 2882.77 1329.57 2880.97 1332.93C2879.21 1336.24 2878.31 1340.24 2878.27 1344.93ZM3022.53 1410.13C3011.31 1410.13 3001.65 1407.86 2993.55 1403.31C2985.51 1398.72 2979.3 1392.23 2974.95 1383.85C2970.59 1375.42 2968.41 1365.46 2968.41 1353.95C2968.41 1342.73 2970.59 1332.88 2974.95 1324.41C2979.3 1315.93 2985.43 1309.33 2993.34 1304.59C3001.3 1299.86 3010.62 1297.49 3021.32 1297.49C3028.52 1297.49 3035.22 1298.65 3041.42 1300.97C3047.67 1303.24 3053.12 1306.67 3057.76 1311.27C3062.45 1315.86 3066.09 1321.64 3068.7 1328.6C3071.3 1335.51 3072.6 1343.61 3072.6 1352.89V1361.2H2980.49V1342.45H3044.12C3044.12 1338.09 3043.18 1334.23 3041.28 1330.87C3039.39 1327.51 3036.76 1324.88 3033.4 1322.99C3030.08 1321.04 3026.23 1320.07 3021.82 1320.07C3017.23 1320.07 3013.16 1321.14 3009.61 1323.27C3006.1 1325.35 3003.36 1328.17 3001.37 1331.72C2999.38 1335.23 2998.36 1339.13 2998.31 1343.44V1361.27C2998.31 1366.66 2999.31 1371.33 3001.3 1375.26C3003.33 1379.19 3006.2 1382.22 3009.89 1384.35C3013.58 1386.48 3017.96 1387.55 3023.03 1387.55C3026.39 1387.55 3029.47 1387.07 3032.26 1386.12C3035.06 1385.18 3037.45 1383.76 3039.44 1381.86C3041.42 1379.97 3042.94 1377.65 3043.98 1374.9L3071.96 1376.75C3070.54 1383.47 3067.63 1389.34 3063.23 1394.36C3058.87 1399.34 3053.24 1403.22 3046.32 1406.01C3039.46 1408.76 3031.53 1410.13 3022.53 1410.13ZM3138.64 1408V1298.91H3167.97V1317.94H3169.11C3171.09 1311.17 3174.43 1306.06 3179.12 1302.6C3183.81 1299.1 3189.2 1297.35 3195.31 1297.35C3196.83 1297.35 3198.46 1297.44 3200.21 1297.63C3201.96 1297.82 3203.5 1298.08 3204.83 1298.41V1325.26C3203.41 1324.83 3201.44 1324.45 3198.93 1324.12C3196.43 1323.79 3194.13 1323.62 3192.05 1323.62C3187.59 1323.62 3183.62 1324.6 3180.11 1326.54C3176.66 1328.43 3173.91 1331.08 3171.88 1334.49C3169.89 1337.9 3168.89 1341.83 3168.89 1346.28V1408H3138.64ZM3248.46 1410.06C3241.5 1410.06 3235.29 1408.85 3229.85 1406.44C3224.4 1403.98 3220.09 1400.35 3216.92 1395.57C3213.8 1390.74 3212.23 1384.73 3212.23 1377.53C3212.23 1371.47 3213.35 1366.38 3215.57 1362.26C3217.8 1358.14 3220.83 1354.83 3224.66 1352.32C3228.5 1349.81 3232.85 1347.91 3237.73 1346.64C3242.66 1345.36 3247.82 1344.46 3253.21 1343.94C3259.56 1343.27 3264.67 1342.66 3268.55 1342.09C3272.44 1341.48 3275.25 1340.58 3277.01 1339.39C3278.76 1338.21 3279.63 1336.46 3279.63 1334.14V1333.71C3279.63 1329.21 3278.21 1325.73 3275.37 1323.27C3272.58 1320.81 3268.6 1319.58 3263.44 1319.58C3258 1319.58 3253.66 1320.78 3250.44 1323.2C3247.22 1325.57 3245.09 1328.55 3244.05 1332.15L3216.07 1329.88C3217.49 1323.25 3220.28 1317.52 3224.45 1312.69C3228.62 1307.81 3233.99 1304.07 3240.57 1301.47C3247.2 1298.81 3254.87 1297.49 3263.58 1297.49C3269.64 1297.49 3275.44 1298.2 3280.98 1299.62C3286.57 1301.04 3291.52 1303.24 3295.83 1306.22C3300.18 1309.21 3303.62 1313.04 3306.13 1317.73C3308.64 1322.37 3309.89 1327.93 3309.89 1334.42V1408H3281.2V1392.87H3280.34C3278.59 1396.28 3276.25 1399.29 3273.31 1401.89C3270.38 1404.45 3266.85 1406.46 3262.73 1407.93C3258.61 1409.35 3253.85 1410.06 3248.46 1410.06ZM3257.12 1389.18C3261.57 1389.18 3265.5 1388.3 3268.91 1386.55C3272.32 1384.75 3274.99 1382.34 3276.94 1379.31C3278.88 1376.28 3279.85 1372.84 3279.85 1369.01V1357.43C3278.9 1358.05 3277.6 1358.62 3275.94 1359.14C3274.33 1359.61 3272.51 1360.06 3270.47 1360.49C3268.44 1360.86 3266.4 1361.22 3264.36 1361.55C3262.33 1361.84 3260.48 1362.1 3258.82 1362.33C3255.27 1362.85 3252.17 1363.68 3249.52 1364.82C3246.87 1365.95 3244.81 1367.49 3243.34 1369.43C3241.87 1371.33 3241.14 1373.7 3241.14 1376.54C3241.14 1380.66 3242.63 1383.8 3245.61 1385.98C3248.64 1388.11 3252.48 1389.18 3257.12 1389.18ZM3333.36 1408V1298.91H3363.62V1408H3333.36ZM3348.56 1284.85C3344.06 1284.85 3340.2 1283.36 3336.99 1280.37C3333.81 1277.34 3332.23 1273.72 3332.23 1269.51C3332.23 1265.34 3333.81 1261.76 3336.99 1258.78C3340.2 1255.75 3344.06 1254.24 3348.56 1254.24C3353.06 1254.24 3356.9 1255.75 3360.07 1258.78C3363.29 1261.76 3364.9 1265.34 3364.9 1269.51C3364.9 1273.72 3363.29 1277.34 3360.07 1280.37C3356.9 1283.36 3353.06 1284.85 3348.56 1284.85ZM3418.11 1344.93V1408H3387.86V1298.91H3416.69V1318.16H3417.97C3420.38 1311.81 3424.43 1306.79 3430.11 1303.1C3435.8 1299.36 3442.68 1297.49 3450.78 1297.49C3458.36 1297.49 3464.96 1299.15 3470.6 1302.46C3476.23 1305.77 3480.61 1310.51 3483.74 1316.66C3486.86 1322.77 3488.42 1330.06 3488.42 1338.54V1408H3458.17V1343.94C3458.21 1337.26 3456.51 1332.05 3453.05 1328.31C3449.6 1324.52 3444.84 1322.63 3438.78 1322.63C3434.71 1322.63 3431.11 1323.51 3427.98 1325.26C3424.91 1327.01 3422.49 1329.57 3420.74 1332.93C3419.03 1336.24 3418.16 1340.24 3418.11 1344.93ZM3527.04 1448.91C3523.21 1448.91 3519.61 1448.6 3516.25 1447.99C3512.93 1447.42 3510.19 1446.68 3508.01 1445.78L3514.83 1423.2C3518.38 1424.29 3521.57 1424.88 3524.41 1424.97C3527.3 1425.07 3529.79 1424.41 3531.87 1422.99C3534 1421.57 3535.73 1419.15 3537.06 1415.74L3538.83 1411.12L3499.7 1298.91H3531.52L3554.1 1379.02H3555.24L3578.04 1298.91H3610.07L3567.67 1419.79C3565.63 1425.66 3562.86 1430.77 3559.36 1435.13C3555.9 1439.53 3551.52 1442.92 3546.22 1445.29C3540.92 1447.7 3534.52 1448.91 3527.04 1448.91ZM3671.84 1448.91V1298.91H3701.67V1317.23H3703.02C3704.34 1314.3 3706.26 1311.31 3708.77 1308.28C3711.33 1305.21 3714.64 1302.65 3718.71 1300.61C3722.83 1298.53 3727.95 1297.49 3734.06 1297.49C3742.01 1297.49 3749.35 1299.57 3756.07 1303.74C3762.8 1307.86 3768.17 1314.08 3772.19 1322.42C3776.22 1330.7 3778.23 1341.1 3778.23 1353.6C3778.23 1365.77 3776.27 1376.04 3772.34 1384.42C3768.45 1392.75 3763.15 1399.07 3756.43 1403.38C3749.75 1407.64 3742.27 1409.78 3733.98 1409.78C3728.11 1409.78 3723.12 1408.8 3719 1406.86C3714.93 1404.92 3711.59 1402.48 3708.98 1399.55C3706.38 1396.57 3704.39 1393.56 3703.02 1390.53H3702.1V1448.91H3671.84ZM3701.46 1353.45C3701.46 1359.94 3702.36 1365.6 3704.15 1370.43C3705.95 1375.26 3708.56 1379.02 3711.97 1381.72C3715.38 1384.37 3719.52 1385.7 3724.4 1385.7C3729.32 1385.7 3733.49 1384.35 3736.9 1381.65C3740.31 1378.9 3742.89 1375.12 3744.64 1370.29C3746.44 1365.41 3747.34 1359.8 3747.34 1353.45C3747.34 1347.16 3746.46 1341.62 3744.71 1336.84C3742.96 1332.05 3740.38 1328.31 3736.97 1325.61C3733.56 1322.91 3729.37 1321.57 3724.4 1321.57C3719.47 1321.57 3715.31 1322.87 3711.9 1325.47C3708.53 1328.08 3705.95 1331.77 3704.15 1336.55C3702.36 1341.33 3701.46 1346.97 3701.46 1353.45ZM3828.66 1262.55V1408H3798.4V1262.55H3828.66ZM3884 1410.06C3877.04 1410.06 3870.84 1408.85 3865.39 1406.44C3859.95 1403.98 3855.64 1400.35 3852.47 1395.57C3849.34 1390.74 3847.78 1384.73 3847.78 1377.53C3847.78 1371.47 3848.89 1366.38 3851.12 1362.26C3853.34 1358.14 3856.37 1354.83 3860.21 1352.32C3864.04 1349.81 3868.4 1347.91 3873.28 1346.64C3878.2 1345.36 3883.36 1344.46 3888.76 1343.94C3895.11 1343.27 3900.22 1342.66 3904.1 1342.09C3907.98 1341.48 3910.8 1340.58 3912.55 1339.39C3914.31 1338.21 3915.18 1336.46 3915.18 1334.14V1333.71C3915.18 1329.21 3913.76 1325.73 3910.92 1323.27C3908.13 1320.81 3904.15 1319.58 3898.99 1319.58C3893.54 1319.58 3889.21 1320.78 3885.99 1323.2C3882.77 1325.57 3880.64 1328.55 3879.6 1332.15L3851.62 1329.88C3853.04 1323.25 3855.83 1317.52 3860 1312.69C3864.16 1307.81 3869.54 1304.07 3876.12 1301.47C3882.75 1298.81 3890.42 1297.49 3899.13 1297.49C3905.19 1297.49 3910.99 1298.2 3916.53 1299.62C3922.12 1301.04 3927.07 1303.24 3931.37 1306.22C3935.73 1309.21 3939.16 1313.04 3941.67 1317.73C3944.18 1322.37 3945.44 1327.93 3945.44 1334.42V1408H3916.74V1392.87H3915.89C3914.14 1396.28 3911.8 1399.29 3908.86 1401.89C3905.92 1404.45 3902.4 1406.46 3898.28 1407.93C3894.16 1409.35 3889.4 1410.06 3884 1410.06ZM3892.67 1389.18C3897.12 1389.18 3901.05 1388.3 3904.46 1386.55C3907.87 1384.75 3910.54 1382.34 3912.48 1379.31C3914.42 1376.28 3915.39 1372.84 3915.39 1369.01V1357.43C3914.45 1358.05 3913.15 1358.62 3911.49 1359.14C3909.88 1359.61 3908.06 1360.06 3906.02 1360.49C3903.98 1360.86 3901.95 1361.22 3899.91 1361.55C3897.88 1361.84 3896.03 1362.1 3894.37 1362.33C3890.82 1362.85 3887.72 1363.68 3885.07 1364.82C3882.42 1365.95 3880.36 1367.49 3878.89 1369.43C3877.42 1371.33 3876.69 1373.7 3876.69 1376.54C3876.69 1380.66 3878.18 1383.8 3881.16 1385.98C3884.19 1388.11 3888.03 1389.18 3892.67 1389.18ZM3983.68 1448.91C3979.85 1448.91 3976.25 1448.6 3972.89 1447.99C3969.57 1447.42 3966.83 1446.68 3964.65 1445.78L3971.47 1423.2C3975.02 1424.29 3978.21 1424.88 3981.05 1424.97C3983.94 1425.07 3986.43 1424.41 3988.51 1422.99C3990.64 1421.57 3992.37 1419.15 3993.7 1415.74L3995.47 1411.12L3956.34 1298.91H3988.16L4010.74 1379.02H4011.88L4034.68 1298.91H4066.71L4024.31 1419.79C4022.27 1425.66 4019.5 1430.77 4016 1435.13C4012.54 1439.53 4008.16 1442.92 4002.86 1445.29C3997.56 1447.7 3991.16 1448.91 3983.68 1448.91ZM4112.45 1262.55V1408H4082.19V1262.55H4112.45ZM4136.68 1408V1298.91H4166.94V1408H4136.68ZM4151.88 1284.85C4147.38 1284.85 4143.53 1283.36 4140.31 1280.37C4137.13 1277.34 4135.55 1273.72 4135.55 1269.51C4135.55 1265.34 4137.13 1261.76 4140.31 1258.78C4143.53 1255.75 4147.38 1254.24 4151.88 1254.24C4156.38 1254.24 4160.22 1255.75 4163.39 1258.78C4166.61 1261.76 4168.22 1265.34 4168.22 1269.51C4168.22 1273.72 4166.61 1277.34 4163.39 1280.37C4160.22 1283.36 4156.38 1284.85 4151.88 1284.85ZM4281.94 1330.02L4254.24 1331.72C4253.77 1329.35 4252.75 1327.22 4251.19 1325.33C4249.63 1323.39 4247.57 1321.85 4245.01 1320.71C4242.5 1319.53 4239.49 1318.94 4235.99 1318.94C4231.3 1318.94 4227.35 1319.93 4224.13 1321.92C4220.91 1323.86 4219.3 1326.47 4219.3 1329.73C4219.3 1332.34 4220.34 1334.54 4222.43 1336.34C4224.51 1338.14 4228.08 1339.58 4233.15 1340.67L4252.89 1344.65C4263.5 1346.83 4271.41 1350.33 4276.62 1355.16C4281.82 1359.99 4284.43 1366.33 4284.43 1374.19C4284.43 1381.34 4282.32 1387.62 4278.11 1393.01C4273.94 1398.41 4268.21 1402.63 4260.92 1405.66C4253.68 1408.64 4245.32 1410.13 4235.85 1410.13C4221.41 1410.13 4209.9 1407.12 4201.33 1401.11C4192.81 1395.05 4187.81 1386.81 4186.35 1376.39L4216.1 1374.83C4217 1379.24 4219.18 1382.6 4222.64 1384.92C4226.09 1387.19 4230.52 1388.33 4235.92 1388.33C4241.22 1388.33 4245.48 1387.31 4248.7 1385.27C4251.97 1383.19 4253.63 1380.51 4253.68 1377.25C4253.63 1374.5 4252.47 1372.25 4250.2 1370.5C4247.92 1368.7 4244.42 1367.33 4239.68 1366.38L4220.79 1362.62C4210.14 1360.49 4202.21 1356.79 4197 1351.54C4191.84 1346.28 4189.26 1339.58 4189.26 1331.44C4189.26 1324.43 4191.15 1318.39 4194.94 1313.33C4198.77 1308.26 4204.15 1304.35 4211.06 1301.61C4218.02 1298.86 4226.17 1297.49 4235.49 1297.49C4249.27 1297.49 4260.11 1300.4 4268.02 1306.22C4275.98 1312.05 4280.62 1319.98 4281.94 1330.02ZM4361.51 1298.91V1321.64H4295.81V1298.91H4361.51ZM4310.72 1272.77H4340.98V1374.48C4340.98 1377.27 4341.41 1379.45 4342.26 1381.01C4343.11 1382.53 4344.29 1383.59 4345.81 1384.21C4347.37 1384.82 4349.17 1385.13 4351.21 1385.13C4352.63 1385.13 4354.05 1385.01 4355.47 1384.78C4356.89 1384.49 4357.98 1384.28 4358.74 1384.14L4363.49 1406.65C4361.98 1407.12 4359.85 1407.67 4357.1 1408.28C4354.36 1408.95 4351.02 1409.35 4347.09 1409.49C4339.8 1409.78 4333.4 1408.8 4327.91 1406.58C4322.47 1404.35 4318.23 1400.9 4315.2 1396.21C4312.17 1391.52 4310.68 1385.6 4310.72 1378.45V1272.77ZM4398.9 1409.85C4394.21 1409.85 4390.19 1408.19 4386.83 1404.88C4383.51 1401.51 4381.85 1397.49 4381.85 1392.8C4381.85 1388.16 4383.51 1384.18 4386.83 1380.87C4390.19 1377.55 4394.21 1375.9 4398.9 1375.9C4403.44 1375.9 4407.42 1377.55 4410.83 1380.87C4414.24 1384.18 4415.94 1388.16 4415.94 1392.8C4415.94 1395.93 4415.14 1398.79 4413.53 1401.39C4411.97 1403.95 4409.91 1406.01 4407.35 1407.57C4404.79 1409.09 4401.98 1409.85 4398.9 1409.85Z" fill="white"/>
<path d="M457.068 1616V1546.18H484.614C489.909 1546.18 494.42 1547.19 498.148 1549.22C501.875 1551.22 504.716 1554 506.67 1557.57C508.648 1561.11 509.636 1565.2 509.636 1569.84C509.636 1574.48 508.636 1578.57 506.636 1582.11C504.636 1585.66 501.739 1588.42 497.943 1590.4C494.17 1592.37 489.602 1593.36 484.239 1593.36H466.682V1581.53H481.852C484.693 1581.53 487.034 1581.05 488.875 1580.07C490.739 1579.07 492.125 1577.69 493.034 1575.94C493.966 1574.17 494.432 1572.14 494.432 1569.84C494.432 1567.52 493.966 1565.5 493.034 1563.77C492.125 1562.02 490.739 1560.67 488.875 1559.72C487.011 1558.74 484.648 1558.25 481.784 1558.25H471.83V1616H457.068ZM533.474 1546.18V1616H518.952V1546.18H533.474ZM560.04 1616.99C556.699 1616.99 553.722 1616.41 551.108 1615.25C548.494 1614.07 546.426 1612.33 544.903 1610.03C543.403 1607.72 542.653 1604.83 542.653 1601.38C542.653 1598.47 543.188 1596.02 544.256 1594.05C545.324 1592.07 546.778 1590.48 548.619 1589.27C550.46 1588.07 552.551 1587.16 554.892 1586.55C557.256 1585.93 559.733 1585.5 562.324 1585.25C565.369 1584.93 567.824 1584.64 569.688 1584.36C571.551 1584.07 572.903 1583.64 573.744 1583.07C574.585 1582.5 575.006 1581.66 575.006 1580.55V1580.34C575.006 1578.18 574.324 1576.51 572.96 1575.33C571.619 1574.15 569.71 1573.56 567.233 1573.56C564.619 1573.56 562.54 1574.14 560.994 1575.3C559.449 1576.43 558.426 1577.86 557.926 1579.59L544.494 1578.5C545.176 1575.32 546.517 1572.57 548.517 1570.25C550.517 1567.91 553.097 1566.11 556.256 1564.86C559.438 1563.59 563.119 1562.95 567.301 1562.95C570.21 1562.95 572.994 1563.3 575.653 1563.98C578.335 1564.66 580.71 1565.72 582.778 1567.15C584.869 1568.58 586.517 1570.42 587.722 1572.67C588.926 1574.9 589.528 1577.57 589.528 1580.68V1616H575.756V1608.74H575.347C574.506 1610.38 573.381 1611.82 571.972 1613.07C570.562 1614.3 568.869 1615.26 566.892 1615.97C564.915 1616.65 562.631 1616.99 560.04 1616.99ZM564.199 1606.97C566.335 1606.97 568.222 1606.55 569.858 1605.7C571.494 1604.84 572.778 1603.68 573.71 1602.23C574.642 1600.77 575.108 1599.12 575.108 1597.28V1591.73C574.653 1592.02 574.028 1592.3 573.233 1592.55C572.46 1592.77 571.585 1592.99 570.608 1593.19C569.631 1593.37 568.653 1593.55 567.676 1593.7C566.699 1593.84 565.812 1593.97 565.017 1594.08C563.313 1594.33 561.824 1594.73 560.551 1595.27C559.278 1595.82 558.29 1596.56 557.585 1597.49C556.881 1598.4 556.528 1599.53 556.528 1600.9C556.528 1602.88 557.244 1604.39 558.676 1605.43C560.131 1606.45 561.972 1606.97 564.199 1606.97ZM607.886 1635.64C606.045 1635.64 604.318 1635.49 602.705 1635.19C601.114 1634.92 599.795 1634.57 598.75 1634.14L602.023 1623.3C603.727 1623.82 605.261 1624.1 606.625 1624.15C608.011 1624.19 609.205 1623.88 610.205 1623.19C611.227 1622.51 612.057 1621.35 612.693 1619.72L613.545 1617.5L594.761 1563.64H610.034L620.875 1602.09H621.42L632.364 1563.64H647.739L627.386 1621.66C626.409 1624.48 625.08 1626.93 623.398 1629.02C621.739 1631.14 619.636 1632.76 617.091 1633.9C614.545 1635.06 611.477 1635.64 607.886 1635.64ZM669.693 1546.18V1616H655.17V1546.18H669.693ZM681.327 1616V1563.64H695.849V1616H681.327ZM688.622 1556.89C686.463 1556.89 684.611 1556.17 683.065 1554.74C681.543 1553.28 680.781 1551.55 680.781 1549.52C680.781 1547.52 681.543 1545.81 683.065 1544.38C684.611 1542.92 686.463 1542.19 688.622 1542.19C690.781 1542.19 692.622 1542.92 694.145 1544.38C695.69 1545.81 696.463 1547.52 696.463 1549.52C696.463 1551.55 695.69 1553.28 694.145 1554.74C692.622 1556.17 690.781 1556.89 688.622 1556.89ZM751.051 1578.57L737.756 1579.39C737.528 1578.25 737.04 1577.23 736.29 1576.32C735.54 1575.39 734.551 1574.65 733.324 1574.1C732.119 1573.53 730.676 1573.25 728.994 1573.25C726.744 1573.25 724.847 1573.73 723.301 1574.68C721.756 1575.61 720.983 1576.86 720.983 1578.43C720.983 1579.68 721.483 1580.74 722.483 1581.6C723.483 1582.47 725.199 1583.16 727.631 1583.68L737.108 1585.59C742.199 1586.64 745.994 1588.32 748.494 1590.64C750.994 1592.95 752.244 1596 752.244 1599.77C752.244 1603.2 751.233 1606.22 749.21 1608.81C747.21 1611.4 744.46 1613.42 740.96 1614.88C737.483 1616.31 733.472 1617.02 728.926 1617.02C721.994 1617.02 716.472 1615.58 712.358 1612.69C708.267 1609.78 705.869 1605.83 705.165 1600.83L719.449 1600.08C719.881 1602.19 720.926 1603.81 722.585 1604.92C724.244 1606.01 726.369 1606.56 728.96 1606.56C731.506 1606.56 733.551 1606.07 735.097 1605.09C736.665 1604.09 737.46 1602.81 737.483 1601.24C737.46 1599.92 736.903 1598.84 735.812 1598C734.722 1597.14 733.04 1596.48 730.767 1596.02L721.699 1594.22C716.585 1593.19 712.778 1591.42 710.278 1588.9C707.801 1586.37 706.562 1583.16 706.562 1579.25C706.562 1575.89 707.472 1572.99 709.29 1570.56C711.131 1568.12 713.71 1566.25 717.028 1564.93C720.369 1563.61 724.278 1562.95 728.756 1562.95C735.369 1562.95 740.574 1564.35 744.369 1567.15C748.188 1569.94 750.415 1573.75 751.051 1578.57ZM789.241 1563.64V1574.55H757.707V1563.64H789.241ZM764.866 1551.09H779.389V1599.91C779.389 1601.25 779.594 1602.3 780.003 1603.05C780.412 1603.77 780.98 1604.28 781.707 1604.58C782.457 1604.87 783.321 1605.02 784.298 1605.02C784.98 1605.02 785.662 1604.97 786.344 1604.85C787.026 1604.72 787.548 1604.61 787.912 1604.55L790.196 1615.35C789.469 1615.58 788.446 1615.84 787.128 1616.14C785.81 1616.45 784.207 1616.65 782.321 1616.72C778.821 1616.85 775.753 1616.39 773.116 1615.32C770.503 1614.25 768.469 1612.59 767.014 1610.34C765.56 1608.09 764.844 1605.25 764.866 1601.82V1551.09ZM841.614 1578.57L828.318 1579.39C828.091 1578.25 827.602 1577.23 826.852 1576.32C826.102 1575.39 825.114 1574.65 823.886 1574.1C822.682 1573.53 821.239 1573.25 819.557 1573.25C817.307 1573.25 815.409 1573.73 813.864 1574.68C812.318 1575.61 811.545 1576.86 811.545 1578.43C811.545 1579.68 812.045 1580.74 813.045 1581.6C814.045 1582.47 815.761 1583.16 818.193 1583.68L827.67 1585.59C832.761 1586.64 836.557 1588.32 839.057 1590.64C841.557 1592.95 842.807 1596 842.807 1599.77C842.807 1603.2 841.795 1606.22 839.773 1608.81C837.773 1611.4 835.023 1613.42 831.523 1614.88C828.045 1616.31 824.034 1617.02 819.489 1617.02C812.557 1617.02 807.034 1615.58 802.92 1612.69C798.83 1609.78 796.432 1605.83 795.727 1600.83L810.011 1600.08C810.443 1602.19 811.489 1603.81 813.148 1604.92C814.807 1606.01 816.932 1606.56 819.523 1606.56C822.068 1606.56 824.114 1606.07 825.659 1605.09C827.227 1604.09 828.023 1602.81 828.045 1601.24C828.023 1599.92 827.466 1598.84 826.375 1598C825.284 1597.14 823.602 1596.48 821.33 1596.02L812.261 1594.22C807.148 1593.19 803.341 1591.42 800.841 1588.9C798.364 1586.37 797.125 1583.16 797.125 1579.25C797.125 1575.89 798.034 1572.99 799.852 1570.56C801.693 1568.12 804.273 1566.25 807.591 1564.93C810.932 1563.61 814.841 1562.95 819.318 1562.95C825.932 1562.95 831.136 1564.35 834.932 1567.15C838.75 1569.94 840.977 1573.75 841.614 1578.57ZM889.102 1616.99C885.761 1616.99 882.784 1616.41 880.17 1615.25C877.557 1614.07 875.489 1612.33 873.966 1610.03C872.466 1607.72 871.716 1604.83 871.716 1601.38C871.716 1598.47 872.25 1596.02 873.318 1594.05C874.386 1592.07 875.841 1590.48 877.682 1589.27C879.523 1588.07 881.614 1587.16 883.955 1586.55C886.318 1585.93 888.795 1585.5 891.386 1585.25C894.432 1584.93 896.886 1584.64 898.75 1584.36C900.614 1584.07 901.966 1583.64 902.807 1583.07C903.648 1582.5 904.068 1581.66 904.068 1580.55V1580.34C904.068 1578.18 903.386 1576.51 902.023 1575.33C900.682 1574.15 898.773 1573.56 896.295 1573.56C893.682 1573.56 891.602 1574.14 890.057 1575.3C888.511 1576.43 887.489 1577.86 886.989 1579.59L873.557 1578.5C874.239 1575.32 875.58 1572.57 877.58 1570.25C879.58 1567.91 882.159 1566.11 885.318 1564.86C888.5 1563.59 892.182 1562.95 896.364 1562.95C899.273 1562.95 902.057 1563.3 904.716 1563.98C907.398 1564.66 909.773 1565.72 911.841 1567.15C913.932 1568.58 915.58 1570.42 916.784 1572.67C917.989 1574.9 918.591 1577.57 918.591 1580.68V1616H904.818V1608.74H904.409C903.568 1610.38 902.443 1611.82 901.034 1613.07C899.625 1614.3 897.932 1615.26 895.955 1615.97C893.977 1616.65 891.693 1616.99 889.102 1616.99ZM893.261 1606.97C895.398 1606.97 897.284 1606.55 898.92 1605.7C900.557 1604.84 901.841 1603.68 902.773 1602.23C903.705 1600.77 904.17 1599.12 904.17 1597.28V1591.73C903.716 1592.02 903.091 1592.3 902.295 1592.55C901.523 1592.77 900.648 1592.99 899.67 1593.19C898.693 1593.37 897.716 1593.55 896.739 1593.7C895.761 1593.84 894.875 1593.97 894.08 1594.08C892.375 1594.33 890.886 1594.73 889.614 1595.27C888.341 1595.82 887.352 1596.56 886.648 1597.49C885.943 1598.4 885.591 1599.53 885.591 1600.9C885.591 1602.88 886.307 1604.39 887.739 1605.43C889.193 1606.45 891.034 1606.97 893.261 1606.97ZM929.858 1616V1563.64H943.938V1572.77H944.483C945.438 1569.52 947.04 1567.07 949.29 1565.41C951.54 1563.73 954.131 1562.89 957.062 1562.89C957.79 1562.89 958.574 1562.93 959.415 1563.02C960.256 1563.11 960.994 1563.24 961.631 1563.4V1576.28C960.949 1576.08 960.006 1575.9 958.801 1575.74C957.597 1575.58 956.494 1575.5 955.494 1575.5C953.358 1575.5 951.449 1575.97 949.767 1576.9C948.108 1577.81 946.79 1579.08 945.812 1580.72C944.858 1582.35 944.381 1584.24 944.381 1586.38V1616H929.858ZM990.565 1617.02C985.179 1617.02 980.543 1615.93 976.656 1613.75C972.793 1611.55 969.815 1608.43 967.724 1604.41C965.634 1600.36 964.588 1595.58 964.588 1590.06C964.588 1584.67 965.634 1579.94 967.724 1575.88C969.815 1571.81 972.759 1568.64 976.554 1566.36C980.372 1564.09 984.849 1562.95 989.986 1562.95C993.44 1562.95 996.656 1563.51 999.634 1564.62C1002.63 1565.72 1005.25 1567.36 1007.47 1569.57C1009.72 1571.77 1011.47 1574.55 1012.72 1577.89C1013.97 1581.2 1014.6 1585.09 1014.6 1589.55V1593.53H970.384V1584.53H1000.93C1000.93 1582.44 1000.47 1580.59 999.565 1578.98C998.656 1577.36 997.395 1576.1 995.781 1575.19C994.19 1574.26 992.338 1573.8 990.224 1573.8C988.02 1573.8 986.065 1574.31 984.361 1575.33C982.679 1576.33 981.361 1577.68 980.406 1579.39C979.452 1581.07 978.963 1582.94 978.94 1585.01V1593.57C978.94 1596.16 979.418 1598.4 980.372 1600.28C981.349 1602.17 982.724 1603.62 984.497 1604.65C986.27 1605.67 988.372 1606.18 990.804 1606.18C992.418 1606.18 993.895 1605.95 995.236 1605.5C996.577 1605.05 997.724 1604.36 998.679 1603.45C999.634 1602.55 1000.36 1601.43 1000.86 1600.11L1014.29 1601C1013.61 1604.23 1012.21 1607.05 1010.1 1609.45C1008.01 1611.84 1005.3 1613.7 1001.99 1615.05C998.69 1616.36 994.884 1617.02 990.565 1617.02ZM1069.89 1636.73C1065.18 1636.73 1061.15 1636.08 1057.78 1634.78C1054.44 1633.51 1051.78 1631.77 1049.81 1629.57C1047.83 1627.36 1046.55 1624.89 1045.95 1622.14L1059.39 1620.33C1059.8 1621.38 1060.44 1622.35 1061.33 1623.26C1062.22 1624.17 1063.39 1624.9 1064.84 1625.44C1066.32 1626.01 1068.11 1626.3 1070.23 1626.3C1073.39 1626.3 1075.99 1625.52 1078.03 1623.98C1080.1 1622.45 1081.14 1619.9 1081.14 1616.31V1606.73H1080.52C1079.89 1608.18 1078.93 1609.56 1077.66 1610.85C1076.39 1612.15 1074.75 1613.2 1072.75 1614.02C1070.75 1614.84 1068.36 1615.25 1065.59 1615.25C1061.66 1615.25 1058.08 1614.34 1054.85 1612.52C1051.65 1610.68 1049.09 1607.87 1047.18 1604.1C1045.3 1600.31 1044.35 1595.51 1044.35 1589.72C1044.35 1583.78 1045.32 1578.83 1047.25 1574.85C1049.18 1570.87 1051.75 1567.9 1054.95 1565.92C1058.18 1563.94 1061.72 1562.95 1065.56 1562.95C1068.49 1562.95 1070.94 1563.45 1072.92 1564.45C1074.9 1565.43 1076.49 1566.66 1077.69 1568.14C1078.92 1569.59 1079.86 1571.02 1080.52 1572.43H1081.07V1563.64H1095.49V1616.51C1095.49 1620.97 1094.4 1624.69 1092.22 1627.69C1090.03 1630.69 1087.01 1632.94 1083.15 1634.44C1079.31 1635.97 1074.89 1636.73 1069.89 1636.73ZM1070.19 1604.34C1072.53 1604.34 1074.51 1603.76 1076.12 1602.6C1077.76 1601.42 1079.01 1599.74 1079.88 1597.56C1080.76 1595.35 1081.2 1592.72 1081.2 1589.65C1081.2 1586.58 1080.77 1583.92 1079.91 1581.67C1079.05 1579.4 1077.8 1577.64 1076.16 1576.39C1074.52 1575.14 1072.53 1574.51 1070.19 1574.51C1067.81 1574.51 1065.8 1575.16 1064.16 1576.45C1062.52 1577.73 1061.28 1579.5 1060.44 1581.77C1059.6 1584.05 1059.18 1586.67 1059.18 1589.65C1059.18 1592.67 1059.6 1595.28 1060.44 1597.49C1061.31 1599.67 1062.55 1601.36 1064.16 1602.57C1065.8 1603.75 1067.81 1604.34 1070.19 1604.34ZM1130.91 1617.02C1125.52 1617.02 1120.89 1615.93 1117 1613.75C1113.14 1611.55 1110.16 1608.43 1108.07 1604.41C1105.98 1600.36 1104.93 1595.58 1104.93 1590.06C1104.93 1584.67 1105.98 1579.94 1108.07 1575.88C1110.16 1571.81 1113.1 1568.64 1116.9 1566.36C1120.72 1564.09 1125.19 1562.95 1130.33 1562.95C1133.78 1562.95 1137 1563.51 1139.98 1564.62C1142.98 1565.72 1145.59 1567.36 1147.82 1569.57C1150.07 1571.77 1151.82 1574.55 1153.07 1577.89C1154.32 1581.2 1154.94 1585.09 1154.94 1589.55V1593.53H1110.73V1584.53H1141.27C1141.27 1582.44 1140.82 1580.59 1139.91 1578.98C1139 1577.36 1137.74 1576.1 1136.12 1575.19C1134.53 1574.26 1132.68 1573.8 1130.57 1573.8C1128.36 1573.8 1126.41 1574.31 1124.7 1575.33C1123.02 1576.33 1121.7 1577.68 1120.75 1579.39C1119.8 1581.07 1119.31 1582.94 1119.28 1585.01V1593.57C1119.28 1596.16 1119.76 1598.4 1120.72 1600.28C1121.69 1602.17 1123.07 1603.62 1124.84 1604.65C1126.61 1605.67 1128.72 1606.18 1131.15 1606.18C1132.76 1606.18 1134.24 1605.95 1135.58 1605.5C1136.92 1605.05 1138.07 1604.36 1139.02 1603.45C1139.98 1602.55 1140.7 1601.43 1141.2 1600.11L1154.64 1601C1153.95 1604.23 1152.56 1607.05 1150.44 1609.45C1148.35 1611.84 1145.65 1613.7 1142.33 1615.05C1139.03 1616.36 1135.23 1617.02 1130.91 1617.02ZM1178.94 1585.73V1616H1164.42V1563.64H1178.26V1572.88H1178.88C1180.03 1569.83 1181.98 1567.42 1184.7 1565.65C1187.43 1563.85 1190.74 1562.95 1194.62 1562.95C1198.26 1562.95 1201.43 1563.75 1204.14 1565.34C1206.84 1566.93 1208.94 1569.2 1210.44 1572.16C1211.94 1575.09 1212.69 1578.59 1212.69 1582.66V1616H1198.17V1585.25C1198.19 1582.05 1197.38 1579.55 1195.72 1577.75C1194.06 1575.93 1191.77 1575.02 1188.86 1575.02C1186.91 1575.02 1185.18 1575.44 1183.68 1576.28C1182.2 1577.12 1181.05 1578.35 1180.2 1579.97C1179.39 1581.56 1178.97 1583.48 1178.94 1585.73ZM1248 1617.02C1242.62 1617.02 1237.98 1615.93 1234.09 1613.75C1230.23 1611.55 1227.25 1608.43 1225.16 1604.41C1223.07 1600.36 1222.03 1595.58 1222.03 1590.06C1222.03 1584.67 1223.07 1579.94 1225.16 1575.88C1227.25 1571.81 1230.2 1568.64 1233.99 1566.36C1237.81 1564.09 1242.29 1562.95 1247.42 1562.95C1250.88 1562.95 1254.09 1563.51 1257.07 1564.62C1260.07 1565.72 1262.68 1567.36 1264.91 1569.57C1267.16 1571.77 1268.91 1574.55 1270.16 1577.89C1271.41 1581.2 1272.04 1585.09 1272.04 1589.55V1593.53H1227.82V1584.53H1258.37C1258.37 1582.44 1257.91 1580.59 1257 1578.98C1256.09 1577.36 1254.83 1576.1 1253.22 1575.19C1251.63 1574.26 1249.78 1573.8 1247.66 1573.8C1245.46 1573.8 1243.5 1574.31 1241.8 1575.33C1240.12 1576.33 1238.8 1577.68 1237.84 1579.39C1236.89 1581.07 1236.4 1582.94 1236.38 1585.01V1593.57C1236.38 1596.16 1236.86 1598.4 1237.81 1600.28C1238.79 1602.17 1240.16 1603.62 1241.93 1604.65C1243.71 1605.67 1245.81 1606.18 1248.24 1606.18C1249.86 1606.18 1251.33 1605.95 1252.67 1605.5C1254.01 1605.05 1255.16 1604.36 1256.12 1603.45C1257.07 1602.55 1257.8 1601.43 1258.3 1600.11L1271.73 1601C1271.05 1604.23 1269.65 1607.05 1267.54 1609.45C1265.45 1611.84 1262.74 1613.7 1259.42 1615.05C1256.13 1616.36 1252.32 1617.02 1248 1617.02ZM1281.51 1616V1563.64H1295.59V1572.77H1296.14C1297.09 1569.52 1298.7 1567.07 1300.95 1565.41C1303.2 1563.73 1305.79 1562.89 1308.72 1562.89C1309.45 1562.89 1310.23 1562.93 1311.07 1563.02C1311.91 1563.11 1312.65 1563.24 1313.29 1563.4V1576.28C1312.61 1576.08 1311.66 1575.9 1310.46 1575.74C1309.25 1575.58 1308.15 1575.5 1307.15 1575.5C1305.01 1575.5 1303.11 1575.97 1301.42 1576.9C1299.76 1577.81 1298.45 1579.08 1297.47 1580.72C1296.51 1582.35 1296.04 1584.24 1296.04 1586.38V1616H1281.51ZM1334.23 1616.99C1330.89 1616.99 1327.91 1616.41 1325.3 1615.25C1322.68 1614.07 1320.61 1612.33 1319.09 1610.03C1317.59 1607.72 1316.84 1604.83 1316.84 1601.38C1316.84 1598.47 1317.38 1596.02 1318.44 1594.05C1319.51 1592.07 1320.97 1590.48 1322.81 1589.27C1324.65 1588.07 1326.74 1587.16 1329.08 1586.55C1331.44 1585.93 1333.92 1585.5 1336.51 1585.25C1339.56 1584.93 1342.01 1584.64 1343.88 1584.36C1345.74 1584.07 1347.09 1583.64 1347.93 1583.07C1348.77 1582.5 1349.19 1581.66 1349.19 1580.55V1580.34C1349.19 1578.18 1348.51 1576.51 1347.15 1575.33C1345.81 1574.15 1343.9 1573.56 1341.42 1573.56C1338.81 1573.56 1336.73 1574.14 1335.18 1575.3C1333.64 1576.43 1332.61 1577.86 1332.11 1579.59L1318.68 1578.5C1319.36 1575.32 1320.7 1572.57 1322.7 1570.25C1324.7 1567.91 1327.28 1566.11 1330.44 1564.86C1333.63 1563.59 1337.31 1562.95 1341.49 1562.95C1344.4 1562.95 1347.18 1563.3 1349.84 1563.98C1352.52 1564.66 1354.9 1565.72 1356.97 1567.15C1359.06 1568.58 1360.7 1570.42 1361.91 1572.67C1363.11 1574.9 1363.72 1577.57 1363.72 1580.68V1616H1349.94V1608.74H1349.53C1348.69 1610.38 1347.57 1611.82 1346.16 1613.07C1344.75 1614.3 1343.06 1615.26 1341.08 1615.97C1339.1 1616.65 1336.82 1616.99 1334.23 1616.99ZM1338.39 1606.97C1340.52 1606.97 1342.41 1606.55 1344.05 1605.7C1345.68 1604.84 1346.97 1603.68 1347.9 1602.23C1348.83 1600.77 1349.3 1599.12 1349.3 1597.28V1591.73C1348.84 1592.02 1348.22 1592.3 1347.42 1592.55C1346.65 1592.77 1345.77 1592.99 1344.8 1593.19C1343.82 1593.37 1342.84 1593.55 1341.86 1593.7C1340.89 1593.84 1340 1593.97 1339.2 1594.08C1337.5 1594.33 1336.01 1594.73 1334.74 1595.27C1333.47 1595.82 1332.48 1596.56 1331.77 1597.49C1331.07 1598.4 1330.72 1599.53 1330.72 1600.9C1330.72 1602.88 1331.43 1604.39 1332.86 1605.43C1334.32 1606.45 1336.16 1606.97 1338.39 1606.97ZM1402.84 1563.64V1574.55H1371.3V1563.64H1402.84ZM1378.46 1551.09H1392.98V1599.91C1392.98 1601.25 1393.19 1602.3 1393.6 1603.05C1394.01 1603.77 1394.57 1604.28 1395.3 1604.58C1396.05 1604.87 1396.91 1605.02 1397.89 1605.02C1398.57 1605.02 1399.26 1604.97 1399.94 1604.85C1400.62 1604.72 1401.14 1604.61 1401.51 1604.55L1403.79 1615.35C1403.06 1615.58 1402.04 1615.84 1400.72 1616.14C1399.4 1616.45 1397.8 1616.65 1395.91 1616.72C1392.41 1616.85 1389.35 1616.39 1386.71 1615.32C1384.1 1614.25 1382.06 1612.59 1380.61 1610.34C1379.15 1608.09 1378.44 1605.25 1378.46 1601.82V1551.09ZM1435.6 1617.02C1430.21 1617.02 1425.57 1615.93 1421.69 1613.75C1417.82 1611.55 1414.85 1608.43 1412.76 1604.41C1410.66 1600.36 1409.62 1595.58 1409.62 1590.06C1409.62 1584.67 1410.66 1579.94 1412.76 1575.88C1414.85 1571.81 1417.79 1568.64 1421.59 1566.36C1425.4 1564.09 1429.88 1562.95 1435.02 1562.95C1438.47 1562.95 1441.69 1563.51 1444.66 1564.62C1447.66 1565.72 1450.28 1567.36 1452.51 1569.57C1454.76 1571.77 1456.51 1574.55 1457.76 1577.89C1459.01 1581.2 1459.63 1585.09 1459.63 1589.55V1593.53H1415.41V1584.53H1445.96C1445.96 1582.44 1445.51 1580.59 1444.6 1578.98C1443.69 1577.36 1442.43 1576.1 1440.81 1575.19C1439.22 1574.26 1437.37 1573.8 1435.26 1573.8C1433.05 1573.8 1431.1 1574.31 1429.39 1575.33C1427.71 1576.33 1426.39 1577.68 1425.44 1579.39C1424.48 1581.07 1423.99 1582.94 1423.97 1585.01V1593.57C1423.97 1596.16 1424.45 1598.4 1425.4 1600.28C1426.38 1602.17 1427.76 1603.62 1429.53 1604.65C1431.3 1605.67 1433.4 1606.18 1435.84 1606.18C1437.45 1606.18 1438.93 1605.95 1440.27 1605.5C1441.61 1605.05 1442.76 1604.36 1443.71 1603.45C1444.66 1602.55 1445.39 1601.43 1445.89 1600.11L1459.32 1601C1458.64 1604.23 1457.24 1607.05 1455.13 1609.45C1453.04 1611.84 1450.34 1613.7 1447.02 1615.05C1443.72 1616.36 1439.91 1617.02 1435.6 1617.02ZM1488.4 1616.85C1484.43 1616.85 1480.82 1615.83 1477.6 1613.78C1474.39 1611.72 1471.85 1608.68 1469.96 1604.68C1468.1 1600.66 1467.16 1595.73 1467.16 1589.89C1467.16 1583.89 1468.13 1578.9 1470.06 1574.92C1471.99 1570.92 1474.56 1567.93 1477.77 1565.95C1480.99 1563.95 1484.53 1562.95 1488.37 1562.95C1491.3 1562.95 1493.74 1563.45 1495.7 1564.45C1497.68 1565.43 1499.27 1566.66 1500.47 1568.14C1501.7 1569.59 1502.63 1571.02 1503.27 1572.43H1503.71V1546.18H1518.2V1616H1503.88V1607.61H1503.27C1502.59 1609.07 1501.62 1610.51 1500.37 1611.94C1499.14 1613.35 1497.54 1614.52 1495.56 1615.45C1493.61 1616.39 1491.22 1616.85 1488.4 1616.85ZM1493.01 1605.3C1495.35 1605.3 1497.32 1604.66 1498.94 1603.39C1500.57 1602.09 1501.82 1600.28 1502.69 1597.97C1503.57 1595.65 1504.02 1592.93 1504.02 1589.82C1504.02 1586.7 1503.59 1584 1502.72 1581.7C1501.86 1579.41 1500.61 1577.64 1498.97 1576.39C1497.34 1575.14 1495.35 1574.51 1493.01 1574.51C1490.62 1574.51 1488.61 1575.16 1486.97 1576.45C1485.34 1577.75 1484.1 1579.55 1483.26 1581.84C1482.41 1584.14 1481.99 1586.8 1481.99 1589.82C1481.99 1592.86 1482.41 1595.56 1483.26 1597.9C1484.12 1600.22 1485.36 1602.03 1486.97 1603.35C1488.61 1604.65 1490.62 1605.3 1493.01 1605.3ZM1552.63 1616V1546.18H1567.15V1572.43H1567.6C1568.23 1571.02 1569.15 1569.59 1570.36 1568.14C1571.59 1566.66 1573.18 1565.43 1575.13 1564.45C1577.11 1563.45 1579.56 1562.95 1582.49 1562.95C1586.31 1562.95 1589.84 1563.95 1593.06 1565.95C1596.29 1567.93 1598.87 1570.92 1600.8 1574.92C1602.73 1578.9 1603.7 1583.89 1603.7 1589.89C1603.7 1595.73 1602.76 1600.66 1600.87 1604.68C1599.01 1608.68 1596.46 1611.72 1593.23 1613.78C1590.03 1615.83 1586.44 1616.85 1582.46 1616.85C1579.64 1616.85 1577.24 1616.39 1575.27 1615.45C1573.31 1614.52 1571.71 1613.35 1570.46 1611.94C1569.21 1610.51 1568.26 1609.07 1567.6 1607.61H1566.95V1616H1552.63ZM1566.85 1589.82C1566.85 1592.93 1567.28 1595.65 1568.14 1597.97C1569.01 1600.28 1570.26 1602.09 1571.89 1603.39C1573.53 1604.66 1575.52 1605.3 1577.86 1605.3C1580.22 1605.3 1582.22 1604.65 1583.86 1603.35C1585.49 1602.03 1586.73 1600.22 1587.57 1597.9C1588.44 1595.56 1588.87 1592.86 1588.87 1589.82C1588.87 1586.8 1588.45 1584.14 1587.61 1581.84C1586.77 1579.55 1585.53 1577.75 1583.89 1576.45C1582.26 1575.16 1580.24 1574.51 1577.86 1574.51C1575.49 1574.51 1573.49 1575.14 1571.86 1576.39C1570.24 1577.64 1569.01 1579.41 1568.14 1581.7C1567.28 1584 1566.85 1586.7 1566.85 1589.82ZM1628.32 1616.99C1624.98 1616.99 1622 1616.41 1619.39 1615.25C1616.78 1614.07 1614.71 1612.33 1613.18 1610.03C1611.68 1607.72 1610.93 1604.83 1610.93 1601.38C1610.93 1598.47 1611.47 1596.02 1612.54 1594.05C1613.61 1592.07 1615.06 1590.48 1616.9 1589.27C1618.74 1588.07 1620.83 1587.16 1623.17 1586.55C1625.54 1585.93 1628.01 1585.5 1630.61 1585.25C1633.65 1584.93 1636.11 1584.64 1637.97 1584.36C1639.83 1584.07 1641.18 1583.64 1642.03 1583.07C1642.87 1582.5 1643.29 1581.66 1643.29 1580.55V1580.34C1643.29 1578.18 1642.61 1576.51 1641.24 1575.33C1639.9 1574.15 1637.99 1573.56 1635.51 1573.56C1632.9 1573.56 1630.82 1574.14 1629.28 1575.3C1627.73 1576.43 1626.71 1577.86 1626.21 1579.59L1612.78 1578.5C1613.46 1575.32 1614.8 1572.57 1616.8 1570.25C1618.8 1567.91 1621.38 1566.11 1624.54 1564.86C1627.72 1563.59 1631.4 1562.95 1635.58 1562.95C1638.49 1562.95 1641.28 1563.3 1643.93 1563.98C1646.62 1564.66 1648.99 1565.72 1651.06 1567.15C1653.15 1568.58 1654.8 1570.42 1656 1572.67C1657.21 1574.9 1657.81 1577.57 1657.81 1580.68V1616H1644.04V1608.74H1643.63C1642.79 1610.38 1641.66 1611.82 1640.25 1613.07C1638.84 1614.3 1637.15 1615.26 1635.17 1615.97C1633.2 1616.65 1630.91 1616.99 1628.32 1616.99ZM1632.48 1606.97C1634.62 1606.97 1636.5 1606.55 1638.14 1605.7C1639.78 1604.84 1641.06 1603.68 1641.99 1602.23C1642.92 1600.77 1643.39 1599.12 1643.39 1597.28V1591.73C1642.93 1592.02 1642.31 1592.3 1641.51 1592.55C1640.74 1592.77 1639.87 1592.99 1638.89 1593.19C1637.91 1593.37 1636.93 1593.55 1635.96 1593.7C1634.98 1593.84 1634.09 1593.97 1633.3 1594.08C1631.59 1594.33 1630.11 1594.73 1628.83 1595.27C1627.56 1595.82 1626.57 1596.56 1625.87 1597.49C1625.16 1598.4 1624.81 1599.53 1624.81 1600.9C1624.81 1602.88 1625.53 1604.39 1626.96 1605.43C1628.41 1606.45 1630.25 1606.97 1632.48 1606.97ZM1712.64 1578.57L1699.35 1579.39C1699.12 1578.25 1698.63 1577.23 1697.88 1576.32C1697.13 1575.39 1696.14 1574.65 1694.92 1574.1C1693.71 1573.53 1692.27 1573.25 1690.59 1573.25C1688.34 1573.25 1686.44 1573.73 1684.89 1574.68C1683.35 1575.61 1682.58 1576.86 1682.58 1578.43C1682.58 1579.68 1683.08 1580.74 1684.08 1581.6C1685.08 1582.47 1686.79 1583.16 1689.22 1583.68L1698.7 1585.59C1703.79 1586.64 1707.59 1588.32 1710.09 1590.64C1712.59 1592.95 1713.84 1596 1713.84 1599.77C1713.84 1603.2 1712.83 1606.22 1710.8 1608.81C1708.8 1611.4 1706.05 1613.42 1702.55 1614.88C1699.08 1616.31 1695.07 1617.02 1690.52 1617.02C1683.59 1617.02 1678.07 1615.58 1673.95 1612.69C1669.86 1609.78 1667.46 1605.83 1666.76 1600.83L1681.04 1600.08C1681.47 1602.19 1682.52 1603.81 1684.18 1604.92C1685.84 1606.01 1687.96 1606.56 1690.55 1606.56C1693.1 1606.56 1695.14 1606.07 1696.69 1605.09C1698.26 1604.09 1699.05 1602.81 1699.08 1601.24C1699.05 1599.92 1698.5 1598.84 1697.41 1598C1696.32 1597.14 1694.63 1596.48 1692.36 1596.02L1683.29 1594.22C1678.18 1593.19 1674.37 1591.42 1671.87 1588.9C1669.39 1586.37 1668.16 1583.16 1668.16 1579.25C1668.16 1575.89 1669.07 1572.99 1670.88 1570.56C1672.72 1568.12 1675.3 1566.25 1678.62 1564.93C1681.96 1563.61 1685.87 1562.95 1690.35 1562.95C1696.96 1562.95 1702.17 1564.35 1705.96 1567.15C1709.78 1569.94 1712.01 1573.75 1712.64 1578.57ZM1746.85 1617.02C1741.46 1617.02 1736.82 1615.93 1732.94 1613.75C1729.07 1611.55 1726.1 1608.43 1724.01 1604.41C1721.91 1600.36 1720.87 1595.58 1720.87 1590.06C1720.87 1584.67 1721.91 1579.94 1724.01 1575.88C1726.1 1571.81 1729.04 1568.64 1732.84 1566.36C1736.65 1564.09 1741.13 1562.95 1746.27 1562.95C1749.72 1562.95 1752.94 1563.51 1755.91 1564.62C1758.91 1565.72 1761.53 1567.36 1763.76 1569.57C1766.01 1571.77 1767.76 1574.55 1769.01 1577.89C1770.26 1581.2 1770.88 1585.09 1770.88 1589.55V1593.53H1726.66V1584.53H1757.21C1757.21 1582.44 1756.76 1580.59 1755.85 1578.98C1754.94 1577.36 1753.68 1576.1 1752.06 1575.19C1750.47 1574.26 1748.62 1573.8 1746.51 1573.8C1744.3 1573.8 1742.35 1574.31 1740.64 1575.33C1738.96 1576.33 1737.64 1577.68 1736.69 1579.39C1735.73 1581.07 1735.24 1582.94 1735.22 1585.01V1593.57C1735.22 1596.16 1735.7 1598.4 1736.65 1600.28C1737.63 1602.17 1739.01 1603.62 1740.78 1604.65C1742.55 1605.67 1744.65 1606.18 1747.09 1606.18C1748.7 1606.18 1750.18 1605.95 1751.52 1605.5C1752.86 1605.05 1754.01 1604.36 1754.96 1603.45C1755.91 1602.55 1756.64 1601.43 1757.14 1600.11L1770.57 1601C1769.89 1604.23 1768.49 1607.05 1766.38 1609.45C1764.29 1611.84 1761.59 1613.7 1758.27 1615.05C1754.97 1616.36 1751.16 1617.02 1746.85 1617.02ZM1799.65 1616.85C1795.68 1616.85 1792.07 1615.83 1788.85 1613.78C1785.64 1611.72 1783.1 1608.68 1781.21 1604.68C1779.35 1600.66 1778.41 1595.73 1778.41 1589.89C1778.41 1583.89 1779.38 1578.9 1781.31 1574.92C1783.24 1570.92 1785.81 1567.93 1789.02 1565.95C1792.24 1563.95 1795.78 1562.95 1799.62 1562.95C1802.55 1562.95 1804.99 1563.45 1806.95 1564.45C1808.93 1565.43 1810.52 1566.66 1811.72 1568.14C1812.95 1569.59 1813.88 1571.02 1814.52 1572.43H1814.96V1546.18H1829.45V1616H1815.13V1607.61H1814.52C1813.84 1609.07 1812.87 1610.51 1811.62 1611.94C1810.39 1613.35 1808.79 1614.52 1806.81 1615.45C1804.86 1616.39 1802.47 1616.85 1799.65 1616.85ZM1804.26 1605.3C1806.6 1605.3 1808.57 1604.66 1810.19 1603.39C1811.82 1602.09 1813.07 1600.28 1813.94 1597.97C1814.82 1595.65 1815.27 1592.93 1815.27 1589.82C1815.27 1586.7 1814.84 1584 1813.97 1581.7C1813.11 1579.41 1811.86 1577.64 1810.22 1576.39C1808.59 1575.14 1806.6 1574.51 1804.26 1574.51C1801.87 1574.51 1799.86 1575.16 1798.22 1576.45C1796.59 1577.75 1795.35 1579.55 1794.51 1581.84C1793.66 1584.14 1793.24 1586.8 1793.24 1589.82C1793.24 1592.86 1793.66 1595.56 1794.51 1597.9C1795.37 1600.22 1796.61 1602.03 1798.22 1603.35C1799.86 1604.65 1801.87 1605.3 1804.26 1605.3ZM1887.27 1617.02C1881.97 1617.02 1877.39 1615.9 1873.53 1613.65C1869.69 1611.37 1866.72 1608.22 1864.63 1604.17C1862.54 1600.1 1861.49 1595.39 1861.49 1590.02C1861.49 1584.61 1862.54 1579.89 1864.63 1575.84C1866.72 1571.77 1869.69 1568.61 1873.53 1566.36C1877.39 1564.09 1881.97 1562.95 1887.27 1562.95C1892.56 1562.95 1897.13 1564.09 1900.97 1566.36C1904.84 1568.61 1907.81 1571.77 1909.9 1575.84C1911.99 1579.89 1913.04 1584.61 1913.04 1590.02C1913.04 1595.39 1911.99 1600.1 1909.9 1604.17C1907.81 1608.22 1904.84 1611.37 1900.97 1613.65C1897.13 1615.9 1892.56 1617.02 1887.27 1617.02ZM1887.34 1605.77C1889.74 1605.77 1891.76 1605.09 1893.37 1603.73C1894.98 1602.34 1896.2 1600.45 1897.02 1598.07C1897.86 1595.68 1898.28 1592.97 1898.28 1589.92C1898.28 1586.88 1897.86 1584.16 1897.02 1581.77C1896.2 1579.39 1894.98 1577.5 1893.37 1576.11C1891.76 1574.73 1889.74 1574.03 1887.34 1574.03C1884.9 1574.03 1882.86 1574.73 1881.2 1576.11C1879.56 1577.5 1878.32 1579.39 1877.48 1581.77C1876.66 1584.16 1876.26 1586.88 1876.26 1589.92C1876.26 1592.97 1876.66 1595.68 1877.48 1598.07C1878.32 1600.45 1879.56 1602.34 1881.2 1603.73C1882.86 1605.09 1884.9 1605.77 1887.34 1605.77ZM1937.01 1585.73V1616H1922.48V1563.64H1936.32V1572.88H1936.94C1938.1 1569.83 1940.04 1567.42 1942.77 1565.65C1945.49 1563.85 1948.8 1562.95 1952.69 1562.95C1956.32 1562.95 1959.49 1563.75 1962.2 1565.34C1964.9 1566.93 1967.01 1569.2 1968.51 1572.16C1970.01 1575.09 1970.76 1578.59 1970.76 1582.66V1616H1956.23V1585.25C1956.26 1582.05 1955.44 1579.55 1953.78 1577.75C1952.12 1575.93 1949.84 1575.02 1946.93 1575.02C1944.97 1575.02 1943.24 1575.44 1941.74 1576.28C1940.27 1577.12 1939.11 1578.35 1938.27 1579.97C1937.45 1581.56 1937.03 1583.48 1937.01 1585.73ZM2038 1593.7V1563.64H2052.52V1616H2038.58V1606.49H2038.03C2036.85 1609.56 2034.89 1612.02 2032.14 1613.89C2029.41 1615.75 2026.08 1616.68 2022.15 1616.68C2018.65 1616.68 2015.57 1615.89 2012.91 1614.3C2010.25 1612.7 2008.17 1610.44 2006.67 1607.51C2005.19 1604.58 2004.44 1601.07 2004.42 1596.98V1563.64H2018.94V1594.39C2018.97 1597.48 2019.8 1599.92 2021.43 1601.72C2023.07 1603.51 2025.26 1604.41 2028.01 1604.41C2029.76 1604.41 2031.4 1604.01 2032.92 1603.22C2034.44 1602.4 2035.67 1601.19 2036.6 1599.6C2037.56 1598.01 2038.02 1596.05 2038 1593.7ZM2107.71 1578.57L2094.41 1579.39C2094.18 1578.25 2093.7 1577.23 2092.95 1576.32C2092.2 1575.39 2091.21 1574.65 2089.98 1574.1C2088.78 1573.53 2087.33 1573.25 2085.65 1573.25C2083.4 1573.25 2081.5 1573.73 2079.96 1574.68C2078.41 1575.61 2077.64 1576.86 2077.64 1578.43C2077.64 1579.68 2078.14 1580.74 2079.14 1581.6C2080.14 1582.47 2081.86 1583.16 2084.29 1583.68L2093.76 1585.59C2098.86 1586.64 2102.65 1588.32 2105.15 1590.64C2107.65 1592.95 2108.9 1596 2108.9 1599.77C2108.9 1603.2 2107.89 1606.22 2105.87 1608.81C2103.87 1611.4 2101.12 1613.42 2097.62 1614.88C2094.14 1616.31 2090.13 1617.02 2085.58 1617.02C2078.65 1617.02 2073.13 1615.58 2069.01 1612.69C2064.92 1609.78 2062.53 1605.83 2061.82 1600.83L2076.11 1600.08C2076.54 1602.19 2077.58 1603.81 2079.24 1604.92C2080.9 1606.01 2083.03 1606.56 2085.62 1606.56C2088.16 1606.56 2090.21 1606.07 2091.75 1605.09C2093.32 1604.09 2094.12 1602.81 2094.14 1601.24C2094.12 1599.92 2093.56 1598.84 2092.47 1598C2091.38 1597.14 2089.7 1596.48 2087.42 1596.02L2078.36 1594.22C2073.24 1593.19 2069.43 1591.42 2066.93 1588.9C2064.46 1586.37 2063.22 1583.16 2063.22 1579.25C2063.22 1575.89 2064.13 1572.99 2065.95 1570.56C2067.79 1568.12 2070.37 1566.25 2073.68 1564.93C2077.03 1563.61 2080.93 1562.95 2085.41 1562.95C2092.03 1562.95 2097.23 1564.35 2101.03 1567.15C2104.84 1569.94 2107.07 1573.75 2107.71 1578.57ZM2141.91 1617.02C2136.52 1617.02 2131.89 1615.93 2128 1613.75C2124.14 1611.55 2121.16 1608.43 2119.07 1604.41C2116.98 1600.36 2115.93 1595.58 2115.93 1590.06C2115.93 1584.67 2116.98 1579.94 2119.07 1575.88C2121.16 1571.81 2124.1 1568.64 2127.9 1566.36C2131.72 1564.09 2136.19 1562.95 2141.33 1562.95C2144.78 1562.95 2148 1563.51 2150.98 1564.62C2153.98 1565.72 2156.59 1567.36 2158.82 1569.57C2161.07 1571.77 2162.82 1574.55 2164.07 1577.89C2165.32 1581.2 2165.94 1585.09 2165.94 1589.55V1593.53H2121.73V1584.53H2152.27C2152.27 1582.44 2151.82 1580.59 2150.91 1578.98C2150 1577.36 2148.74 1576.1 2147.12 1575.19C2145.53 1574.26 2143.68 1573.8 2141.57 1573.8C2139.36 1573.8 2137.41 1574.31 2135.7 1575.33C2134.02 1576.33 2132.7 1577.68 2131.75 1579.39C2130.8 1581.07 2130.31 1582.94 2130.28 1585.01V1593.57C2130.28 1596.16 2130.76 1598.4 2131.72 1600.28C2132.69 1602.17 2134.07 1603.62 2135.84 1604.65C2137.61 1605.67 2139.72 1606.18 2142.15 1606.18C2143.76 1606.18 2145.24 1605.95 2146.58 1605.5C2147.92 1605.05 2149.07 1604.36 2150.02 1603.45C2150.98 1602.55 2151.7 1601.43 2152.2 1600.11L2165.64 1601C2164.95 1604.23 2163.56 1607.05 2161.44 1609.45C2159.35 1611.84 2156.65 1613.7 2153.33 1615.05C2150.03 1616.36 2146.23 1617.02 2141.91 1617.02ZM2175.42 1616V1563.64H2189.5V1572.77H2190.05C2191 1569.52 2192.6 1567.07 2194.85 1565.41C2197.1 1563.73 2199.69 1562.89 2202.62 1562.89C2203.35 1562.89 2204.14 1562.93 2204.98 1563.02C2205.82 1563.11 2206.56 1563.24 2207.19 1563.4V1576.28C2206.51 1576.08 2205.57 1575.9 2204.36 1575.74C2203.16 1575.58 2202.06 1575.5 2201.06 1575.5C2198.92 1575.5 2197.01 1575.97 2195.33 1576.9C2193.67 1577.81 2192.35 1579.08 2191.38 1580.72C2190.42 1582.35 2189.94 1584.24 2189.94 1586.38V1616H2175.42ZM2264.77 1563.64V1574.55H2233.24V1563.64H2264.77ZM2240.4 1551.09H2254.92V1599.91C2254.92 1601.25 2255.13 1602.3 2255.53 1603.05C2255.94 1603.77 2256.51 1604.28 2257.24 1604.58C2257.99 1604.87 2258.85 1605.02 2259.83 1605.02C2260.51 1605.02 2261.19 1604.97 2261.88 1604.85C2262.56 1604.72 2263.08 1604.61 2263.44 1604.55L2265.73 1615.35C2265 1615.58 2263.98 1615.84 2262.66 1616.14C2261.34 1616.45 2259.74 1616.65 2257.85 1616.72C2254.35 1616.85 2251.28 1616.39 2248.65 1615.32C2246.03 1614.25 2244 1612.59 2242.55 1610.34C2241.09 1608.09 2240.38 1605.25 2240.4 1601.82V1551.09ZM2297.53 1617.02C2292.15 1617.02 2287.51 1615.93 2283.62 1613.75C2279.76 1611.55 2276.78 1608.43 2274.69 1604.41C2272.6 1600.36 2271.56 1595.58 2271.56 1590.06C2271.56 1584.67 2272.6 1579.94 2274.69 1575.88C2276.78 1571.81 2279.73 1568.64 2283.52 1566.36C2287.34 1564.09 2291.82 1562.95 2296.95 1562.95C2300.41 1562.95 2303.63 1563.51 2306.6 1564.62C2309.6 1565.72 2312.22 1567.36 2314.44 1569.57C2316.69 1571.77 2318.44 1574.55 2319.69 1577.89C2320.94 1581.2 2321.57 1585.09 2321.57 1589.55V1593.53H2277.35V1584.53H2307.9C2307.9 1582.44 2307.44 1580.59 2306.53 1578.98C2305.63 1577.36 2304.36 1576.1 2302.75 1575.19C2301.16 1574.26 2299.31 1573.8 2297.19 1573.8C2294.99 1573.8 2293.03 1574.31 2291.33 1575.33C2289.65 1576.33 2288.33 1577.68 2287.38 1579.39C2286.42 1581.07 2285.93 1582.94 2285.91 1585.01V1593.57C2285.91 1596.16 2286.39 1598.4 2287.34 1600.28C2288.32 1602.17 2289.69 1603.62 2291.47 1604.65C2293.24 1605.67 2295.34 1606.18 2297.77 1606.18C2299.39 1606.18 2300.86 1605.95 2302.2 1605.5C2303.55 1605.05 2304.69 1604.36 2305.65 1603.45C2306.6 1602.55 2307.33 1601.43 2307.83 1600.11L2321.26 1601C2320.58 1604.23 2319.18 1607.05 2317.07 1609.45C2314.98 1611.84 2312.27 1613.7 2308.95 1615.05C2305.66 1616.36 2301.85 1617.02 2297.53 1617.02ZM2345.57 1585.73V1616H2331.05V1563.64H2344.89V1572.88H2345.5C2346.66 1569.83 2348.6 1567.42 2351.33 1565.65C2354.06 1563.85 2357.36 1562.95 2361.25 1562.95C2364.89 1562.95 2368.06 1563.75 2370.76 1565.34C2373.47 1566.93 2375.57 1569.2 2377.07 1572.16C2378.57 1575.09 2379.32 1578.59 2379.32 1582.66V1616H2364.8V1585.25C2364.82 1582.05 2364 1579.55 2362.34 1577.75C2360.68 1575.93 2358.4 1575.02 2355.49 1575.02C2353.53 1575.02 2351.81 1575.44 2350.31 1576.28C2348.83 1577.12 2347.67 1578.35 2346.83 1579.97C2346.01 1581.56 2345.59 1583.48 2345.57 1585.73ZM2410.06 1616.85C2406.08 1616.85 2402.48 1615.83 2399.25 1613.78C2396.05 1611.72 2393.5 1608.68 2391.62 1604.68C2389.75 1600.66 2388.82 1595.73 2388.82 1589.89C2388.82 1583.89 2389.79 1578.9 2391.72 1574.92C2393.65 1570.92 2396.22 1567.93 2399.42 1565.95C2402.65 1563.95 2406.18 1562.95 2410.03 1562.95C2412.96 1562.95 2415.4 1563.45 2417.36 1564.45C2419.33 1565.43 2420.92 1566.66 2422.13 1568.14C2423.36 1569.59 2424.29 1571.02 2424.92 1572.43H2425.37V1546.18H2439.86V1616H2425.54V1607.61H2424.92C2424.24 1609.07 2423.28 1610.51 2422.03 1611.94C2420.8 1613.35 2419.2 1614.52 2417.22 1615.45C2415.26 1616.39 2412.88 1616.85 2410.06 1616.85ZM2414.66 1605.3C2417 1605.3 2418.98 1604.66 2420.59 1603.39C2422.23 1602.09 2423.48 1600.28 2424.34 1597.97C2425.23 1595.65 2425.67 1592.93 2425.67 1589.82C2425.67 1586.7 2425.24 1584 2424.38 1581.7C2423.51 1579.41 2422.26 1577.64 2420.63 1576.39C2418.99 1575.14 2417 1574.51 2414.66 1574.51C2412.28 1574.51 2410.26 1575.16 2408.63 1576.45C2406.99 1577.75 2405.75 1579.55 2404.91 1581.84C2404.07 1584.14 2403.65 1586.8 2403.65 1589.82C2403.65 1592.86 2404.07 1595.56 2404.91 1597.9C2405.78 1600.22 2407.01 1602.03 2408.63 1603.35C2410.26 1604.65 2412.28 1605.3 2414.66 1605.3ZM2475.66 1617.02C2470.27 1617.02 2465.64 1615.93 2461.75 1613.75C2457.89 1611.55 2454.91 1608.43 2452.82 1604.41C2450.73 1600.36 2449.68 1595.58 2449.68 1590.06C2449.68 1584.67 2450.73 1579.94 2452.82 1575.88C2454.91 1571.81 2457.85 1568.64 2461.65 1566.36C2465.47 1564.09 2469.94 1562.95 2475.08 1562.95C2478.53 1562.95 2481.75 1563.51 2484.73 1564.62C2487.73 1565.72 2490.34 1567.36 2492.57 1569.57C2494.82 1571.77 2496.57 1574.55 2497.82 1577.89C2499.07 1581.2 2499.69 1585.09 2499.69 1589.55V1593.53H2455.48V1584.53H2486.02C2486.02 1582.44 2485.57 1580.59 2484.66 1578.98C2483.75 1577.36 2482.49 1576.1 2480.88 1575.19C2479.28 1574.26 2477.43 1573.8 2475.32 1573.8C2473.11 1573.8 2471.16 1574.31 2469.45 1575.33C2467.77 1576.33 2466.45 1577.68 2465.5 1579.39C2464.55 1581.07 2464.06 1582.94 2464.03 1585.01V1593.57C2464.03 1596.16 2464.51 1598.4 2465.47 1600.28C2466.44 1602.17 2467.82 1603.62 2469.59 1604.65C2471.36 1605.67 2473.47 1606.18 2475.9 1606.18C2477.51 1606.18 2478.99 1605.95 2480.33 1605.5C2481.67 1605.05 2482.82 1604.36 2483.77 1603.45C2484.73 1602.55 2485.45 1601.43 2485.95 1600.11L2499.39 1601C2498.7 1604.23 2497.31 1607.05 2495.19 1609.45C2493.1 1611.84 2490.4 1613.7 2487.08 1615.05C2483.78 1616.36 2479.98 1617.02 2475.66 1617.02ZM2523.69 1585.73V1616H2509.17V1563.64H2523.01V1572.88H2523.62C2524.78 1569.83 2526.73 1567.42 2529.45 1565.65C2532.18 1563.85 2535.49 1562.95 2539.38 1562.95C2543.01 1562.95 2546.18 1563.75 2548.89 1565.34C2551.59 1566.93 2553.69 1569.2 2555.19 1572.16C2556.69 1575.09 2557.44 1578.59 2557.44 1582.66V1616H2542.92V1585.25C2542.94 1582.05 2542.13 1579.55 2540.47 1577.75C2538.81 1575.93 2536.52 1575.02 2533.61 1575.02C2531.66 1575.02 2529.93 1575.44 2528.43 1576.28C2526.95 1577.12 2525.8 1578.35 2524.95 1579.97C2524.14 1581.56 2523.72 1583.48 2523.69 1585.73ZM2592.55 1617.02C2587.18 1617.02 2582.57 1615.89 2578.71 1613.61C2574.87 1611.32 2571.91 1608.14 2569.84 1604.07C2567.8 1600 2566.78 1595.32 2566.78 1590.02C2566.78 1584.66 2567.81 1579.95 2569.88 1575.91C2571.97 1571.84 2574.93 1568.67 2578.78 1566.4C2582.62 1564.1 2587.18 1562.95 2592.48 1562.95C2597.05 1562.95 2601.05 1563.78 2604.48 1565.44C2607.91 1567.1 2610.63 1569.43 2612.63 1572.43C2614.63 1575.43 2615.73 1578.95 2615.93 1583H2602.23C2601.84 1580.39 2600.82 1578.28 2599.16 1576.69C2597.53 1575.08 2595.38 1574.27 2592.72 1574.27C2590.47 1574.27 2588.5 1574.89 2586.82 1576.11C2585.16 1577.32 2583.87 1579.08 2582.93 1581.4C2582 1583.72 2581.54 1586.52 2581.54 1589.82C2581.54 1593.16 2581.99 1596 2582.9 1598.34C2583.83 1600.68 2585.14 1602.47 2586.82 1603.69C2588.5 1604.92 2590.47 1605.53 2592.72 1605.53C2594.38 1605.53 2595.87 1605.19 2597.18 1604.51C2598.53 1603.83 2599.63 1602.84 2600.49 1601.55C2601.38 1600.23 2601.96 1598.65 2602.23 1596.81H2615.93C2615.71 1600.81 2614.62 1604.33 2612.66 1607.38C2610.73 1610.4 2608.06 1612.76 2604.65 1614.47C2601.24 1616.17 2597.21 1617.02 2592.55 1617.02ZM2625.23 1616V1563.64H2639.76V1616H2625.23ZM2632.53 1556.89C2630.37 1556.89 2628.52 1556.17 2626.97 1554.74C2625.45 1553.28 2624.69 1551.55 2624.69 1549.52C2624.69 1547.52 2625.45 1545.81 2626.97 1544.38C2628.52 1542.92 2630.37 1542.19 2632.53 1542.19C2634.69 1542.19 2636.53 1542.92 2638.05 1544.38C2639.6 1545.81 2640.37 1547.52 2640.37 1549.52C2640.37 1551.55 2639.6 1553.28 2638.05 1554.74C2636.53 1556.17 2634.69 1556.89 2632.53 1556.89ZM2675.25 1617.02C2669.87 1617.02 2665.23 1615.93 2661.34 1613.75C2657.48 1611.55 2654.5 1608.43 2652.41 1604.41C2650.32 1600.36 2649.28 1595.58 2649.28 1590.06C2649.28 1584.67 2650.32 1579.94 2652.41 1575.88C2654.5 1571.81 2657.45 1568.64 2661.24 1566.36C2665.06 1564.09 2669.54 1562.95 2674.67 1562.95C2678.13 1562.95 2681.34 1563.51 2684.32 1564.62C2687.32 1565.72 2689.93 1567.36 2692.16 1569.57C2694.41 1571.77 2696.16 1574.55 2697.41 1577.89C2698.66 1581.2 2699.29 1585.09 2699.29 1589.55V1593.53H2655.07V1584.53H2685.62C2685.62 1582.44 2685.16 1580.59 2684.25 1578.98C2683.34 1577.36 2682.08 1576.1 2680.47 1575.19C2678.88 1574.26 2677.03 1573.8 2674.91 1573.8C2672.71 1573.8 2670.75 1574.31 2669.05 1575.33C2667.37 1576.33 2666.05 1577.68 2665.09 1579.39C2664.14 1581.07 2663.65 1582.94 2663.63 1585.01V1593.57C2663.63 1596.16 2664.11 1598.4 2665.06 1600.28C2666.04 1602.17 2667.41 1603.62 2669.18 1604.65C2670.96 1605.67 2673.06 1606.18 2675.49 1606.18C2677.11 1606.18 2678.58 1605.95 2679.92 1605.5C2681.26 1605.05 2682.41 1604.36 2683.37 1603.45C2684.32 1602.55 2685.05 1601.43 2685.55 1600.11L2698.98 1601C2698.3 1604.23 2696.9 1607.05 2694.79 1609.45C2692.7 1611.84 2689.99 1613.7 2686.67 1615.05C2683.38 1616.36 2679.57 1617.02 2675.25 1617.02ZM2752.33 1578.57L2739.04 1579.39C2738.81 1578.25 2738.32 1577.23 2737.57 1576.32C2736.82 1575.39 2735.83 1574.65 2734.61 1574.1C2733.4 1573.53 2731.96 1573.25 2730.28 1573.25C2728.03 1573.25 2726.13 1573.73 2724.58 1574.68C2723.04 1575.61 2722.26 1576.86 2722.26 1578.43C2722.26 1579.68 2722.76 1580.74 2723.76 1581.6C2724.76 1582.47 2726.48 1583.16 2728.91 1583.68L2738.39 1585.59C2743.48 1586.64 2747.28 1588.32 2749.78 1590.64C2752.28 1592.95 2753.53 1596 2753.53 1599.77C2753.53 1603.2 2752.51 1606.22 2750.49 1608.81C2748.49 1611.4 2745.74 1613.42 2742.24 1614.88C2738.76 1616.31 2734.75 1617.02 2730.21 1617.02C2723.28 1617.02 2717.75 1615.58 2713.64 1612.69C2709.55 1609.78 2707.15 1605.83 2706.45 1600.83L2720.73 1600.08C2721.16 1602.19 2722.21 1603.81 2723.87 1604.92C2725.53 1606.01 2727.65 1606.56 2730.24 1606.56C2732.79 1606.56 2734.83 1606.07 2736.38 1605.09C2737.95 1604.09 2738.74 1602.81 2738.76 1601.24C2738.74 1599.92 2738.18 1598.84 2737.09 1598C2736 1597.14 2734.32 1596.48 2732.05 1596.02L2722.98 1594.22C2717.87 1593.19 2714.06 1591.42 2711.56 1588.9C2709.08 1586.37 2707.84 1583.16 2707.84 1579.25C2707.84 1575.89 2708.75 1572.99 2710.57 1570.56C2712.41 1568.12 2714.99 1566.25 2718.31 1564.93C2721.65 1563.61 2725.56 1562.95 2730.04 1562.95C2736.65 1562.95 2741.86 1564.35 2745.65 1567.15C2749.47 1569.94 2751.7 1573.75 2752.33 1578.57ZM2804.18 1616.85C2800.21 1616.85 2796.61 1615.83 2793.38 1613.78C2790.17 1611.72 2787.63 1608.68 2785.74 1604.68C2783.88 1600.66 2782.95 1595.73 2782.95 1589.89C2782.95 1583.89 2783.91 1578.9 2785.84 1574.92C2787.78 1570.92 2790.34 1567.93 2793.55 1565.95C2796.78 1563.95 2800.31 1562.95 2804.15 1562.95C2807.08 1562.95 2809.53 1563.45 2811.48 1564.45C2813.46 1565.43 2815.05 1566.66 2816.25 1568.14C2817.48 1569.59 2818.41 1571.02 2819.05 1572.43H2819.49V1546.18H2833.98V1616H2819.66V1607.61H2819.05C2818.37 1609.07 2817.4 1610.51 2816.15 1611.94C2814.92 1613.35 2813.32 1614.52 2811.34 1615.45C2809.39 1616.39 2807 1616.85 2804.18 1616.85ZM2808.79 1605.3C2811.13 1605.3 2813.11 1604.66 2814.72 1603.39C2816.36 1602.09 2817.61 1600.28 2818.47 1597.97C2819.36 1595.65 2819.8 1592.93 2819.8 1589.82C2819.8 1586.7 2819.37 1584 2818.5 1581.7C2817.64 1579.41 2816.39 1577.64 2814.75 1576.39C2813.12 1575.14 2811.13 1574.51 2808.79 1574.51C2806.4 1574.51 2804.39 1575.16 2802.75 1576.45C2801.12 1577.75 2799.88 1579.55 2799.04 1581.84C2798.2 1584.14 2797.78 1586.8 2797.78 1589.82C2797.78 1592.86 2798.2 1595.56 2799.04 1597.9C2799.9 1600.22 2801.14 1602.03 2802.75 1603.35C2804.39 1604.65 2806.4 1605.3 2808.79 1605.3ZM2879.5 1593.7V1563.64H2894.02V1616H2880.08V1606.49H2879.53C2878.35 1609.56 2876.39 1612.02 2873.64 1613.89C2870.91 1615.75 2867.58 1616.68 2863.65 1616.68C2860.15 1616.68 2857.07 1615.89 2854.41 1614.3C2851.75 1612.7 2849.67 1610.44 2848.17 1607.51C2846.69 1604.58 2845.94 1601.07 2845.92 1596.98V1563.64H2860.44V1594.39C2860.47 1597.48 2861.3 1599.92 2862.93 1601.72C2864.57 1603.51 2866.76 1604.41 2869.51 1604.41C2871.26 1604.41 2872.9 1604.01 2874.42 1603.22C2875.94 1602.4 2877.17 1601.19 2878.1 1599.6C2879.06 1598.01 2879.52 1596.05 2879.5 1593.7ZM2905.64 1616V1563.64H2919.72V1572.77H2920.26C2921.22 1569.52 2922.82 1567.07 2925.07 1565.41C2927.32 1563.73 2929.91 1562.89 2932.84 1562.89C2933.57 1562.89 2934.36 1562.93 2935.2 1563.02C2936.04 1563.11 2936.78 1563.24 2937.41 1563.4V1576.28C2936.73 1576.08 2935.79 1575.9 2934.58 1575.74C2933.38 1575.58 2932.28 1575.5 2931.28 1575.5C2929.14 1575.5 2927.23 1575.97 2925.55 1576.9C2923.89 1577.81 2922.57 1579.08 2921.59 1580.72C2920.64 1582.35 2920.16 1584.24 2920.16 1586.38V1616H2905.64ZM2944.92 1616V1563.64H2959.44V1616H2944.92ZM2952.22 1556.89C2950.06 1556.89 2948.2 1556.17 2946.66 1554.74C2945.14 1553.28 2944.38 1551.55 2944.38 1549.52C2944.38 1547.52 2945.14 1545.81 2946.66 1544.38C2948.2 1542.92 2950.06 1542.19 2952.22 1542.19C2954.38 1542.19 2956.22 1542.92 2957.74 1544.38C2959.28 1545.81 2960.06 1547.52 2960.06 1549.52C2960.06 1551.55 2959.28 1553.28 2957.74 1554.74C2956.22 1556.17 2954.38 1556.89 2952.22 1556.89ZM2985.6 1585.73V1616H2971.08V1563.64H2984.92V1572.88H2985.53C2986.69 1569.83 2988.63 1567.42 2991.36 1565.65C2994.09 1563.85 2997.39 1562.95 3001.28 1562.95C3004.92 1562.95 3008.09 1563.75 3010.79 1565.34C3013.5 1566.93 3015.6 1569.2 3017.1 1572.16C3018.6 1575.09 3019.35 1578.59 3019.35 1582.66V1616H3004.83V1585.25C3004.85 1582.05 3004.03 1579.55 3002.37 1577.75C3000.71 1575.93 2998.43 1575.02 2995.52 1575.02C2993.57 1575.02 2991.84 1575.44 2990.34 1576.28C2988.86 1577.12 2987.7 1578.35 2986.86 1579.97C2986.04 1581.56 2985.62 1583.48 2985.6 1585.73ZM3054.39 1636.73C3049.68 1636.73 3045.65 1636.08 3042.28 1634.78C3038.94 1633.51 3036.28 1631.77 3034.31 1629.57C3032.33 1627.36 3031.05 1624.89 3030.45 1622.14L3043.89 1620.33C3044.3 1621.38 3044.94 1622.35 3045.83 1623.26C3046.72 1624.17 3047.89 1624.9 3049.34 1625.44C3050.82 1626.01 3052.61 1626.3 3054.73 1626.3C3057.89 1626.3 3060.49 1625.52 3062.53 1623.98C3064.6 1622.45 3065.64 1619.9 3065.64 1616.31V1606.73H3065.02C3064.39 1608.18 3063.43 1609.56 3062.16 1610.85C3060.89 1612.15 3059.25 1613.2 3057.25 1614.02C3055.25 1614.84 3052.86 1615.25 3050.09 1615.25C3046.16 1615.25 3042.58 1614.34 3039.35 1612.52C3036.15 1610.68 3033.59 1607.87 3031.68 1604.1C3029.8 1600.31 3028.85 1595.51 3028.85 1589.72C3028.85 1583.78 3029.82 1578.83 3031.75 1574.85C3033.68 1570.87 3036.25 1567.9 3039.45 1565.92C3042.68 1563.94 3046.22 1562.95 3050.06 1562.95C3052.99 1562.95 3055.44 1563.45 3057.42 1564.45C3059.4 1565.43 3060.99 1566.66 3062.19 1568.14C3063.42 1569.59 3064.36 1571.02 3065.02 1572.43H3065.57V1563.64H3079.99V1616.51C3079.99 1620.97 3078.9 1624.69 3076.72 1627.69C3074.53 1630.69 3071.51 1632.94 3067.65 1634.44C3063.81 1635.97 3059.39 1636.73 3054.39 1636.73ZM3054.69 1604.34C3057.03 1604.34 3059.01 1603.76 3060.62 1602.6C3062.26 1601.42 3063.51 1599.74 3064.38 1597.56C3065.26 1595.35 3065.7 1592.72 3065.7 1589.65C3065.7 1586.58 3065.27 1583.92 3064.41 1581.67C3063.55 1579.4 3062.3 1577.64 3060.66 1576.39C3059.02 1575.14 3057.03 1574.51 3054.69 1574.51C3052.31 1574.51 3050.3 1575.16 3048.66 1576.45C3047.02 1577.73 3045.78 1579.5 3044.94 1581.77C3044.1 1584.05 3043.68 1586.67 3043.68 1589.65C3043.68 1592.67 3044.1 1595.28 3044.94 1597.49C3045.81 1599.67 3047.05 1601.36 3048.66 1602.57C3050.3 1603.75 3052.31 1604.34 3054.69 1604.34ZM3141.62 1563.64V1574.55H3110.08V1563.64H3141.62ZM3117.24 1551.09H3131.76V1599.91C3131.76 1601.25 3131.97 1602.3 3132.38 1603.05C3132.79 1603.77 3133.36 1604.28 3134.08 1604.58C3134.83 1604.87 3135.7 1605.02 3136.67 1605.02C3137.36 1605.02 3138.04 1604.97 3138.72 1604.85C3139.4 1604.72 3139.92 1604.61 3140.29 1604.55L3142.57 1615.35C3141.84 1615.58 3140.82 1615.84 3139.5 1616.14C3138.18 1616.45 3136.58 1616.65 3134.7 1616.72C3131.2 1616.85 3128.13 1616.39 3125.49 1615.32C3122.88 1614.25 3120.84 1612.59 3119.39 1610.34C3117.93 1608.09 3117.22 1605.25 3117.24 1601.82V1551.09ZM3166.72 1585.73V1616H3152.2V1546.18H3166.32V1572.88H3166.93C3168.11 1569.78 3170.02 1567.36 3172.66 1565.61C3175.29 1563.84 3178.6 1562.95 3182.58 1562.95C3186.21 1562.95 3189.38 1563.75 3192.09 1565.34C3194.82 1566.91 3196.93 1569.17 3198.43 1572.12C3199.95 1575.06 3200.7 1578.57 3200.68 1582.66V1616H3186.16V1585.25C3186.18 1582.02 3185.36 1579.51 3183.7 1577.72C3182.07 1575.92 3179.77 1575.02 3176.82 1575.02C3174.84 1575.02 3173.09 1575.44 3171.57 1576.28C3170.07 1577.12 3168.88 1578.35 3168.02 1579.97C3167.18 1581.56 3166.75 1583.48 3166.72 1585.73ZM3235.97 1617.02C3230.59 1617.02 3225.95 1615.93 3222.06 1613.75C3218.2 1611.55 3215.22 1608.43 3213.13 1604.41C3211.04 1600.36 3209.99 1595.58 3209.99 1590.06C3209.99 1584.67 3211.04 1579.94 3213.13 1575.88C3215.22 1571.81 3218.16 1568.64 3221.96 1566.36C3225.78 1564.09 3230.26 1562.95 3235.39 1562.95C3238.85 1562.95 3242.06 1563.51 3245.04 1564.62C3248.04 1565.72 3250.65 1567.36 3252.88 1569.57C3255.13 1571.77 3256.88 1574.55 3258.13 1577.89C3259.38 1581.2 3260.01 1585.09 3260.01 1589.55V1593.53H3215.79V1584.53H3246.34C3246.34 1582.44 3245.88 1580.59 3244.97 1578.98C3244.06 1577.36 3242.8 1576.1 3241.19 1575.19C3239.6 1574.26 3237.74 1573.8 3235.63 1573.8C3233.43 1573.8 3231.47 1574.31 3229.77 1575.33C3228.09 1576.33 3226.77 1577.68 3225.81 1579.39C3224.86 1581.07 3224.37 1582.94 3224.35 1585.01V1593.57C3224.35 1596.16 3224.82 1598.4 3225.78 1600.28C3226.76 1602.17 3228.13 1603.62 3229.9 1604.65C3231.68 1605.67 3233.78 1606.18 3236.21 1606.18C3237.82 1606.18 3239.3 1605.95 3240.64 1605.5C3241.98 1605.05 3243.13 1604.36 3244.09 1603.45C3245.04 1602.55 3245.77 1601.43 3246.27 1600.11L3259.7 1601C3259.02 1604.23 3257.62 1607.05 3255.51 1609.45C3253.41 1611.84 3250.71 1613.7 3247.39 1615.05C3244.1 1616.36 3240.29 1617.02 3235.97 1617.02ZM3315.29 1636.73C3310.59 1636.73 3306.55 1636.08 3303.19 1634.78C3299.85 1633.51 3297.19 1631.77 3295.21 1629.57C3293.24 1627.36 3291.95 1624.89 3291.36 1622.14L3304.79 1620.33C3305.2 1621.38 3305.85 1622.35 3306.74 1623.26C3307.62 1624.17 3308.79 1624.9 3310.25 1625.44C3311.72 1626.01 3313.52 1626.3 3315.63 1626.3C3318.79 1626.3 3321.39 1625.52 3323.44 1623.98C3325.51 1622.45 3326.54 1619.9 3326.54 1616.31V1606.73H3325.93C3325.29 1608.18 3324.34 1609.56 3323.07 1610.85C3321.79 1612.15 3320.16 1613.2 3318.16 1614.02C3316.16 1614.84 3313.77 1615.25 3311 1615.25C3307.07 1615.25 3303.49 1614.34 3300.26 1612.52C3297.05 1610.68 3294.5 1607.87 3292.59 1604.1C3290.7 1600.31 3289.76 1595.51 3289.76 1589.72C3289.76 1583.78 3290.72 1578.83 3292.66 1574.85C3294.59 1570.87 3297.16 1567.9 3300.36 1565.92C3303.59 1563.94 3307.12 1562.95 3310.96 1562.95C3313.89 1562.95 3316.35 1563.45 3318.33 1564.45C3320.3 1565.43 3321.89 1566.66 3323.1 1568.14C3324.33 1569.59 3325.27 1571.02 3325.93 1572.43H3326.47V1563.64H3340.89V1616.51C3340.89 1620.97 3339.8 1624.69 3337.62 1627.69C3335.44 1630.69 3332.42 1632.94 3328.55 1634.44C3324.71 1635.97 3320.29 1636.73 3315.29 1636.73ZM3315.6 1604.34C3317.94 1604.34 3319.92 1603.76 3321.53 1602.6C3323.17 1601.42 3324.42 1599.74 3325.28 1597.56C3326.17 1595.35 3326.61 1592.72 3326.61 1589.65C3326.61 1586.58 3326.18 1583.92 3325.32 1581.67C3324.45 1579.4 3323.2 1577.64 3321.57 1576.39C3319.93 1575.14 3317.94 1574.51 3315.6 1574.51C3313.21 1574.51 3311.2 1575.16 3309.57 1576.45C3307.93 1577.73 3306.69 1579.5 3305.85 1581.77C3305.01 1584.05 3304.59 1586.67 3304.59 1589.65C3304.59 1592.67 3305.01 1595.28 3305.85 1597.49C3306.71 1599.67 3307.95 1601.36 3309.57 1602.57C3311.2 1603.75 3313.21 1604.34 3315.6 1604.34ZM3352.45 1616V1563.64H3366.97V1616H3352.45ZM3359.75 1556.89C3357.59 1556.89 3355.74 1556.17 3354.19 1554.74C3352.67 1553.28 3351.91 1551.55 3351.91 1549.52C3351.91 1547.52 3352.67 1545.81 3354.19 1544.38C3355.74 1542.92 3357.59 1542.19 3359.75 1542.19C3361.91 1542.19 3363.75 1542.92 3365.27 1544.38C3366.82 1545.81 3367.59 1547.52 3367.59 1549.52C3367.59 1551.55 3366.82 1553.28 3365.27 1554.74C3363.75 1556.17 3361.91 1556.89 3359.75 1556.89ZM3427.43 1563.64L3409.12 1616H3392.76L3374.45 1563.64H3389.79L3400.66 1601.1H3401.21L3412.05 1563.64H3427.43ZM3457.03 1617.02C3451.65 1617.02 3447.01 1615.93 3443.12 1613.75C3439.26 1611.55 3436.28 1608.43 3434.19 1604.41C3432.1 1600.36 3431.06 1595.58 3431.06 1590.06C3431.06 1584.67 3432.1 1579.94 3434.19 1575.88C3436.28 1571.81 3439.23 1568.64 3443.02 1566.36C3446.84 1564.09 3451.32 1562.95 3456.45 1562.95C3459.91 1562.95 3463.13 1563.51 3466.1 1564.62C3469.1 1565.72 3471.72 1567.36 3473.94 1569.57C3476.19 1571.77 3477.94 1574.55 3479.19 1577.89C3480.44 1581.2 3481.07 1585.09 3481.07 1589.55V1593.53H3436.85V1584.53H3467.4C3467.4 1582.44 3466.94 1580.59 3466.03 1578.98C3465.13 1577.36 3463.86 1576.1 3462.25 1575.19C3460.66 1574.26 3458.81 1573.8 3456.69 1573.8C3454.49 1573.8 3452.53 1574.31 3450.83 1575.33C3449.15 1576.33 3447.83 1577.68 3446.88 1579.39C3445.92 1581.07 3445.43 1582.94 3445.41 1585.01V1593.57C3445.41 1596.16 3445.89 1598.4 3446.84 1600.28C3447.82 1602.17 3449.19 1603.62 3450.97 1604.65C3452.74 1605.67 3454.84 1606.18 3457.27 1606.18C3458.89 1606.18 3460.36 1605.95 3461.7 1605.5C3463.05 1605.05 3464.19 1604.36 3465.15 1603.45C3466.1 1602.55 3466.83 1601.43 3467.33 1600.11L3480.76 1601C3480.08 1604.23 3478.68 1607.05 3476.57 1609.45C3474.48 1611.84 3471.77 1613.7 3468.45 1615.05C3465.16 1616.36 3461.35 1617.02 3457.03 1617.02ZM3505.07 1585.73V1616H3490.55V1563.64H3504.39V1572.88H3505C3506.16 1569.83 3508.1 1567.42 3510.83 1565.65C3513.56 1563.85 3516.86 1562.95 3520.75 1562.95C3524.39 1562.95 3527.56 1563.75 3530.26 1565.34C3532.97 1566.93 3535.07 1569.2 3536.57 1572.16C3538.07 1575.09 3538.82 1578.59 3538.82 1582.66V1616H3524.3V1585.25C3524.32 1582.05 3523.5 1579.55 3521.84 1577.75C3520.18 1575.93 3517.9 1575.02 3514.99 1575.02C3513.03 1575.02 3511.31 1575.44 3509.81 1576.28C3508.33 1577.12 3507.17 1578.35 3506.33 1579.97C3505.51 1581.56 3505.09 1583.48 3505.07 1585.73ZM3582.81 1616L3568.56 1563.64H3583.26L3591.37 1598.82H3591.85L3600.3 1563.64H3614.72L3623.31 1598.61H3623.76L3631.73 1563.64H3646.39L3632.18 1616H3616.8L3607.8 1583.07H3607.15L3598.15 1616H3582.81ZM3676.69 1617.02C3671.3 1617.02 3666.67 1615.93 3662.78 1613.75C3658.92 1611.55 3655.94 1608.43 3653.85 1604.41C3651.76 1600.36 3650.71 1595.58 3650.71 1590.06C3650.71 1584.67 3651.76 1579.94 3653.85 1575.88C3655.94 1571.81 3658.88 1568.64 3662.68 1566.36C3666.5 1564.09 3670.97 1562.95 3676.11 1562.95C3679.57 1562.95 3682.78 1563.51 3685.76 1564.62C3688.76 1565.72 3691.37 1567.36 3693.6 1569.57C3695.85 1571.77 3697.6 1574.55 3698.85 1577.89C3700.1 1581.2 3700.72 1585.09 3700.72 1589.55V1593.53H3656.51V1584.53H3687.05C3687.05 1582.44 3686.6 1580.59 3685.69 1578.98C3684.78 1577.36 3683.52 1576.1 3681.91 1575.19C3680.32 1574.26 3678.46 1573.8 3676.35 1573.8C3674.14 1573.8 3672.19 1574.31 3670.49 1575.33C3668.8 1576.33 3667.49 1577.68 3666.53 1579.39C3665.58 1581.07 3665.09 1582.94 3665.07 1585.01V1593.57C3665.07 1596.16 3665.54 1598.4 3666.5 1600.28C3667.47 1602.17 3668.85 1603.62 3670.62 1604.65C3672.39 1605.67 3674.5 1606.18 3676.93 1606.18C3678.54 1606.18 3680.02 1605.95 3681.36 1605.5C3682.7 1605.05 3683.85 1604.36 3684.8 1603.45C3685.76 1602.55 3686.49 1601.43 3686.99 1600.11L3700.42 1601C3699.74 1604.23 3698.34 1607.05 3696.22 1609.45C3694.13 1611.84 3691.43 1613.7 3688.11 1615.05C3684.82 1616.36 3681.01 1617.02 3676.69 1617.02ZM3725.13 1616.99C3721.79 1616.99 3718.82 1616.41 3716.2 1615.25C3713.59 1614.07 3711.52 1612.33 3710 1610.03C3708.5 1607.72 3707.75 1604.83 3707.75 1601.38C3707.75 1598.47 3708.28 1596.02 3709.35 1594.05C3710.42 1592.07 3711.87 1590.48 3713.71 1589.27C3715.55 1588.07 3717.64 1587.16 3719.99 1586.55C3722.35 1585.93 3724.83 1585.5 3727.42 1585.25C3730.46 1584.93 3732.92 1584.64 3734.78 1584.36C3736.64 1584.07 3738 1583.64 3738.84 1583.07C3739.68 1582.5 3740.1 1581.66 3740.1 1580.55V1580.34C3740.1 1578.18 3739.42 1576.51 3738.05 1575.33C3736.71 1574.15 3734.8 1573.56 3732.33 1573.56C3729.71 1573.56 3727.63 1574.14 3726.09 1575.3C3724.54 1576.43 3723.52 1577.86 3723.02 1579.59L3709.59 1578.5C3710.27 1575.32 3711.61 1572.57 3713.61 1570.25C3715.61 1567.91 3718.19 1566.11 3721.35 1564.86C3724.53 1563.59 3728.21 1562.95 3732.39 1562.95C3735.3 1562.95 3738.09 1563.3 3740.75 1563.98C3743.43 1564.66 3745.8 1565.72 3747.87 1567.15C3749.96 1568.58 3751.61 1570.42 3752.82 1572.67C3754.02 1574.9 3754.62 1577.57 3754.62 1580.68V1616H3740.85V1608.74H3740.44C3739.6 1610.38 3738.47 1611.82 3737.07 1613.07C3735.66 1614.3 3733.96 1615.26 3731.99 1615.97C3730.01 1616.65 3727.72 1616.99 3725.13 1616.99ZM3729.29 1606.97C3731.43 1606.97 3733.32 1606.55 3734.95 1605.7C3736.59 1604.84 3737.87 1603.68 3738.8 1602.23C3739.74 1600.77 3740.2 1599.12 3740.2 1597.28V1591.73C3739.75 1592.02 3739.12 1592.3 3738.33 1592.55C3737.55 1592.77 3736.68 1592.99 3735.7 1593.19C3734.72 1593.37 3733.75 1593.55 3732.77 1593.7C3731.79 1593.84 3730.91 1593.97 3730.11 1594.08C3728.41 1594.33 3726.92 1594.73 3725.64 1595.27C3724.37 1595.82 3723.38 1596.56 3722.68 1597.49C3721.97 1598.4 3721.62 1599.53 3721.62 1600.9C3721.62 1602.88 3722.34 1604.39 3723.77 1605.43C3725.22 1606.45 3727.07 1606.97 3729.29 1606.97ZM3793.74 1563.64V1574.55H3762.21V1563.64H3793.74ZM3769.37 1551.09H3783.89V1599.91C3783.89 1601.25 3784.09 1602.3 3784.5 1603.05C3784.91 1603.77 3785.48 1604.28 3786.21 1604.58C3786.96 1604.87 3787.82 1605.02 3788.8 1605.02C3789.48 1605.02 3790.16 1604.97 3790.84 1604.85C3791.53 1604.72 3792.05 1604.61 3792.41 1604.55L3794.7 1615.35C3793.97 1615.58 3792.95 1615.84 3791.63 1616.14C3790.31 1616.45 3788.71 1616.65 3786.82 1616.72C3783.32 1616.85 3780.25 1616.39 3777.62 1615.32C3775 1614.25 3772.97 1612.59 3771.51 1610.34C3770.06 1608.09 3769.34 1605.25 3769.37 1601.82V1551.09ZM3818.85 1585.73V1616H3804.33V1546.18H3818.44V1572.88H3819.05C3820.24 1569.78 3822.14 1567.36 3824.78 1565.61C3827.42 1563.84 3830.72 1562.95 3834.7 1562.95C3838.34 1562.95 3841.51 1563.75 3844.21 1565.34C3846.94 1566.91 3849.05 1569.17 3850.55 1572.12C3852.08 1575.06 3852.83 1578.57 3852.8 1582.66V1616H3838.28V1585.25C3838.3 1582.02 3837.49 1579.51 3835.83 1577.72C3834.19 1575.92 3831.89 1575.02 3828.94 1575.02C3826.96 1575.02 3825.21 1575.44 3823.69 1576.28C3822.19 1577.12 3821.01 1578.35 3820.14 1579.97C3819.3 1581.56 3818.87 1583.48 3818.85 1585.73ZM3888.1 1617.02C3882.71 1617.02 3878.07 1615.93 3874.19 1613.75C3870.32 1611.55 3867.35 1608.43 3865.26 1604.41C3863.16 1600.36 3862.12 1595.58 3862.12 1590.06C3862.12 1584.67 3863.16 1579.94 3865.26 1575.88C3867.35 1571.81 3870.29 1568.64 3874.09 1566.36C3877.9 1564.09 3882.38 1562.95 3887.52 1562.95C3890.97 1562.95 3894.19 1563.51 3897.16 1564.62C3900.16 1565.72 3902.78 1567.36 3905.01 1569.57C3907.26 1571.77 3909.01 1574.55 3910.26 1577.89C3911.51 1581.2 3912.13 1585.09 3912.13 1589.55V1593.53H3867.91V1584.53H3898.46C3898.46 1582.44 3898.01 1580.59 3897.1 1578.98C3896.19 1577.36 3894.93 1576.1 3893.31 1575.19C3891.72 1574.26 3889.87 1573.8 3887.76 1573.8C3885.55 1573.8 3883.6 1574.31 3881.89 1575.33C3880.21 1576.33 3878.89 1577.68 3877.94 1579.39C3876.98 1581.07 3876.49 1582.94 3876.47 1585.01V1593.57C3876.47 1596.16 3876.95 1598.4 3877.9 1600.28C3878.88 1602.17 3880.26 1603.62 3882.03 1604.65C3883.8 1605.67 3885.9 1606.18 3888.34 1606.18C3889.95 1606.18 3891.43 1605.95 3892.77 1605.5C3894.11 1605.05 3895.26 1604.36 3896.21 1603.45C3897.16 1602.55 3897.89 1601.43 3898.39 1600.11L3911.82 1601C3911.14 1604.23 3909.74 1607.05 3907.63 1609.45C3905.54 1611.84 3902.84 1613.7 3899.52 1615.05C3896.22 1616.36 3892.41 1617.02 3888.1 1617.02ZM3921.61 1616V1563.64H3935.69V1572.77H3936.23C3937.19 1569.52 3938.79 1567.07 3941.04 1565.41C3943.29 1563.73 3945.88 1562.89 3948.81 1562.89C3949.54 1562.89 3950.32 1562.93 3951.16 1563.02C3952.01 1563.11 3952.74 1563.24 3953.38 1563.4V1576.28C3952.7 1576.08 3951.76 1575.9 3950.55 1575.74C3949.35 1575.58 3948.24 1575.5 3947.24 1575.5C3945.11 1575.5 3943.2 1575.97 3941.52 1576.9C3939.86 1577.81 3938.54 1579.08 3937.56 1580.72C3936.61 1582.35 3936.13 1584.24 3936.13 1586.38V1616H3921.61ZM3963.38 1616.89C3961.13 1616.89 3959.2 1616.09 3957.58 1614.5C3955.99 1612.89 3955.2 1610.95 3955.2 1608.7C3955.2 1606.48 3955.99 1604.57 3957.58 1602.98C3959.2 1601.39 3961.13 1600.59 3963.38 1600.59C3965.56 1600.59 3967.47 1601.39 3969.11 1602.98C3970.74 1604.57 3971.56 1606.48 3971.56 1608.7C3971.56 1610.2 3971.17 1611.58 3970.4 1612.83C3969.65 1614.06 3968.66 1615.05 3967.43 1615.8C3966.21 1616.52 3964.86 1616.89 3963.38 1616.89Z" fill="white"/>
</svg>
