<svg width="7482" height="1719" viewBox="0 0 7482 1719" fill="none" xmlns="http://www.w3.org/2000/svg">
<path d="M972.497 410L972.497 385L972.497 385L972.497 410ZM1200.66 610.328L1175.87 613.528C1177.03 622.575 1183.04 630.267 1191.53 633.6L1200.66 610.328ZM1306.75 765.957L1331.75 765.957L1331.75 765.957L1306.75 765.957ZM688.166 933.083L688.007 958.082C688.06 958.083 688.113 958.083 688.166 958.083L688.166 933.083ZM686.328 933.071L686.011 958.069C686.064 958.07 686.116 958.07 686.169 958.071L686.328 933.071ZM546 790.917L521 790.917V790.917H546ZM627.998 662.074L638.591 684.719C649.488 679.621 655.21 667.485 652.207 655.835L627.998 662.074ZM625.222 640.069L600.222 640.069V640.069H625.222ZM713.126 552.166L713.126 527.166L713.126 527.166L713.126 552.166ZM755.618 563.102L743.516 584.977C749.943 588.533 757.608 589.082 764.477 586.479C771.345 583.877 776.722 578.385 779.178 571.463L755.618 563.102ZM972.497 410V435C1076.75 435 1162.87 512.819 1175.87 613.528L1200.66 610.328L1225.46 607.128C1209.28 481.808 1102.21 385 972.497 385V410ZM1200.66 610.328L1191.53 633.6C1244.39 654.349 1281.75 705.821 1281.75 765.957L1306.75 765.957L1331.75 765.957C1331.75 684.572 1281.16 615.066 1209.8 587.057L1200.66 610.328ZM1306.75 765.957H1281.75C1281.75 844.451 1218.12 908.083 1139.62 908.083V933.083V958.083C1245.73 958.083 1331.75 872.066 1331.75 765.957H1306.75ZM1139.62 933.083V908.083H688.166V933.083V958.083H1139.62V933.083ZM688.166 933.083L688.325 908.084L686.488 908.072L686.328 933.071L686.169 958.071L688.007 958.082L688.166 933.083ZM686.328 933.071L686.645 908.073C622.641 907.263 571 855.119 571 790.917H546H521C521 882.521 594.677 956.912 686.011 958.069L686.328 933.071ZM546 790.917L571 790.917C571 743.97 598.612 703.421 638.591 684.719L627.998 662.074L617.405 639.429C560.504 666.047 521 723.843 521 790.917L546 790.917ZM627.998 662.074L652.207 655.835C650.915 650.824 650.222 645.546 650.222 640.069H625.222H600.222C600.222 649.79 601.456 659.259 603.789 668.314L627.998 662.074ZM625.222 640.069L650.222 640.069C650.222 605.329 678.385 577.166 713.126 577.166L713.126 552.166L713.126 527.166C650.771 527.166 600.222 577.714 600.222 640.069L625.222 640.069ZM713.126 552.166V577.166C724.196 577.166 734.53 580.005 743.516 584.977L755.618 563.102L767.721 541.226C751.518 532.262 732.88 527.166 713.126 527.166V552.166ZM755.618 563.102L779.178 571.463C807.412 491.91 883.341 435 972.497 435L972.497 410L972.497 385C861.514 385 767.149 455.867 732.058 554.74L755.618 563.102Z" fill="#4F98FF"/>
<rect x="718.868" y="1000.37" width="67.2846" height="148.677" rx="31" transform="rotate(23.8025 718.868 1000.37)" fill="#4F98FF"/>
<rect x="778.004" y="1146" width="67.2846" height="148.677" rx="31" transform="rotate(23.8025 778.004 1146)" fill="#4F98FF"/>
<rect x="1129.09" y="1010.13" width="67.2846" height="148.677" rx="31" transform="rotate(23.8025 1129.09 1010.13)" fill="#4F98FF"/>
<rect x="986.004" y="1146" width="67.2846" height="148.677" rx="31" transform="rotate(23.8025 986.004 1146)" fill="#4F98FF"/>
<rect x="923.978" y="1010.13" width="67.2846" height="148.677" rx="31" transform="rotate(23.8025 923.978 1010.13)" fill="#4F98FF"/>
<path d="M1998.39 786.545V932H1967.64V786.545H1998.39ZM2081.15 822.909V845.636H2015.46V822.909H2081.15ZM2030.37 796.773H2060.63V898.477C2060.63 901.271 2061.05 903.449 2061.91 905.011C2062.76 906.527 2063.94 907.592 2065.46 908.207C2067.02 908.823 2068.82 909.131 2070.86 909.131C2072.28 909.131 2073.7 909.012 2075.12 908.776C2076.54 908.491 2077.63 908.278 2078.38 908.136L2083.14 930.651C2081.63 931.124 2079.5 931.669 2076.75 932.284C2074 932.947 2070.67 933.349 2066.74 933.491C2059.44 933.776 2053.05 932.805 2047.56 930.58C2042.12 928.354 2037.88 924.898 2034.85 920.21C2031.82 915.523 2030.33 909.604 2030.37 902.455V796.773ZM2120.32 786.545V841.801H2098.73V786.545H2120.32ZM2233.43 854.017L2205.73 855.722C2205.25 853.354 2204.24 851.223 2202.67 849.33C2201.11 847.388 2199.05 845.849 2196.5 844.713C2193.99 843.529 2190.98 842.938 2187.48 842.938C2182.79 842.938 2178.83 843.932 2175.61 845.92C2172.39 847.862 2170.78 850.466 2170.78 853.733C2170.78 856.337 2171.83 858.539 2173.91 860.338C2175.99 862.137 2179.57 863.581 2184.63 864.67L2204.38 868.648C2214.98 870.826 2222.89 874.33 2228.1 879.159C2233.31 883.989 2235.91 890.333 2235.91 898.193C2235.91 905.343 2233.81 911.616 2229.59 917.014C2225.42 922.412 2219.7 926.626 2212.4 929.656C2205.16 932.639 2196.8 934.131 2187.33 934.131C2172.89 934.131 2161.39 931.124 2152.82 925.111C2144.29 919.05 2139.3 910.812 2137.83 900.395L2167.59 898.832C2168.49 903.236 2170.67 906.598 2174.12 908.918C2177.58 911.19 2182.01 912.327 2187.4 912.327C2192.71 912.327 2196.97 911.309 2200.19 909.273C2203.46 907.189 2205.11 904.514 2205.16 901.247C2205.11 898.501 2203.95 896.252 2201.68 894.5C2199.41 892.701 2195.9 891.328 2191.17 890.381L2172.28 886.616C2161.62 884.486 2153.69 880.793 2148.48 875.537C2143.32 870.281 2140.74 863.581 2140.74 855.438C2140.74 848.43 2142.64 842.393 2146.42 837.327C2150.26 832.26 2155.63 828.354 2162.55 825.608C2169.51 822.862 2177.65 821.489 2186.98 821.489C2200.76 821.489 2211.6 824.401 2219.51 830.224C2227.46 836.048 2232.1 843.979 2233.43 854.017ZM2301.25 932V822.909H2330.59V841.943H2331.72C2333.71 835.172 2337.05 830.059 2341.74 826.602C2346.42 823.098 2351.82 821.347 2357.93 821.347C2359.44 821.347 2361.08 821.441 2362.83 821.631C2364.58 821.82 2366.12 822.08 2367.45 822.412V849.259C2366.03 848.832 2364.06 848.454 2361.55 848.122C2359.04 847.791 2356.75 847.625 2354.66 847.625C2350.21 847.625 2346.23 848.596 2342.73 850.537C2339.27 852.431 2336.53 855.082 2334.49 858.491C2332.5 861.901 2331.51 865.83 2331.51 870.281V932H2301.25ZM2411.07 934.06C2404.11 934.06 2397.91 932.852 2392.46 930.438C2387.02 927.975 2382.71 924.353 2379.54 919.571C2376.41 914.741 2374.85 908.728 2374.85 901.531C2374.85 895.471 2375.96 890.381 2378.19 886.261C2380.41 882.142 2383.44 878.828 2387.28 876.318C2391.12 873.809 2395.47 871.915 2400.35 870.636C2405.27 869.358 2410.43 868.458 2415.83 867.938C2422.18 867.275 2427.29 866.659 2431.17 866.091C2435.05 865.475 2437.87 864.576 2439.62 863.392C2441.38 862.208 2442.25 860.456 2442.25 858.136V857.71C2442.25 853.212 2440.83 849.732 2437.99 847.27C2435.2 844.808 2431.22 843.577 2426.06 843.577C2420.61 843.577 2416.28 844.784 2413.06 847.199C2409.84 849.566 2407.71 852.549 2406.67 856.148L2378.69 853.875C2380.11 847.246 2382.9 841.517 2387.07 836.688C2391.23 831.811 2396.61 828.07 2403.19 825.466C2409.82 822.814 2417.49 821.489 2426.2 821.489C2432.26 821.489 2438.06 822.199 2443.6 823.619C2449.19 825.04 2454.14 827.241 2458.44 830.224C2462.8 833.207 2466.23 837.043 2468.74 841.73C2471.25 846.37 2472.51 851.934 2472.51 858.42V932H2443.81V916.872H2442.96C2441.21 920.281 2438.87 923.288 2435.93 925.892C2432.99 928.449 2429.47 930.461 2425.35 931.929C2421.23 933.349 2416.47 934.06 2411.07 934.06ZM2419.74 913.179C2424.19 913.179 2428.12 912.303 2431.53 910.551C2434.94 908.752 2437.61 906.337 2439.55 903.307C2441.49 900.277 2442.46 896.844 2442.46 893.009V881.432C2441.52 882.047 2440.22 882.616 2438.56 883.136C2436.95 883.61 2435.13 884.06 2433.09 884.486C2431.05 884.865 2429.02 885.22 2426.98 885.551C2424.95 885.835 2423.1 886.096 2421.44 886.332C2417.89 886.853 2414.79 887.682 2412.14 888.818C2409.49 889.955 2407.43 891.493 2405.96 893.435C2404.49 895.329 2403.76 897.696 2403.76 900.537C2403.76 904.656 2405.25 907.805 2408.23 909.983C2411.26 912.114 2415.1 913.179 2419.74 913.179ZM2495.98 932V822.909H2526.24V932H2495.98ZM2511.18 808.847C2506.68 808.847 2502.82 807.355 2499.6 804.372C2496.43 801.342 2494.84 797.72 2494.84 793.506C2494.84 789.339 2496.43 785.764 2499.6 782.781C2502.82 779.751 2506.68 778.236 2511.18 778.236C2515.68 778.236 2519.51 779.751 2522.68 782.781C2525.9 785.764 2527.51 789.339 2527.51 793.506C2527.51 797.72 2525.9 801.342 2522.68 804.372C2519.51 807.355 2515.68 808.847 2511.18 808.847ZM2580.73 868.932V932H2550.47V822.909H2579.31V842.156H2580.59C2583 835.812 2587.05 830.793 2592.73 827.099C2598.41 823.359 2605.3 821.489 2613.4 821.489C2620.97 821.489 2627.58 823.146 2633.21 826.46C2638.85 829.775 2643.23 834.509 2646.35 840.665C2649.48 846.773 2651.04 854.064 2651.04 862.54V932H2620.78V867.938C2620.83 861.261 2619.13 856.053 2615.67 852.312C2612.21 848.525 2607.46 846.631 2601.4 846.631C2597.32 846.631 2593.73 847.507 2590.6 849.259C2587.52 851.01 2585.11 853.567 2583.36 856.929C2581.65 860.243 2580.78 864.244 2580.73 868.932ZM2674.89 932V822.909H2705.14V932H2674.89ZM2690.09 808.847C2685.59 808.847 2681.73 807.355 2678.51 804.372C2675.34 801.342 2673.75 797.72 2673.75 793.506C2673.75 789.339 2675.34 785.764 2678.51 782.781C2681.73 779.751 2685.59 778.236 2690.09 778.236C2694.58 778.236 2698.42 779.751 2701.59 782.781C2704.81 785.764 2706.42 789.339 2706.42 793.506C2706.42 797.72 2704.81 801.342 2701.59 804.372C2698.42 807.355 2694.58 808.847 2690.09 808.847ZM2759.63 868.932V932H2729.38V822.909H2758.21V842.156H2759.49C2761.91 835.812 2765.96 830.793 2771.64 827.099C2777.32 823.359 2784.21 821.489 2792.3 821.489C2799.88 821.489 2806.49 823.146 2812.12 826.46C2817.75 829.775 2822.13 834.509 2825.26 840.665C2828.38 846.773 2829.95 854.064 2829.95 862.54V932H2799.69V867.938C2799.74 861.261 2798.03 856.053 2794.58 852.312C2791.12 848.525 2786.36 846.631 2780.3 846.631C2776.23 846.631 2772.63 847.507 2769.51 849.259C2766.43 851.01 2764.01 853.567 2762.26 856.929C2760.56 860.243 2759.68 864.244 2759.63 868.932ZM2902.94 975.182C2893.14 975.182 2884.73 973.832 2877.73 971.134C2870.77 968.482 2865.23 964.86 2861.11 960.267C2856.99 955.674 2854.31 950.513 2853.08 944.784L2881.07 941.02C2881.92 943.198 2883.27 945.234 2885.11 947.128C2886.96 949.022 2889.4 950.537 2892.43 951.673C2895.51 952.857 2899.25 953.449 2903.65 953.449C2910.23 953.449 2915.65 951.839 2919.91 948.619C2924.22 945.447 2926.38 940.12 2926.38 932.639V912.682H2925.1C2923.77 915.712 2921.79 918.577 2919.13 921.276C2916.48 923.974 2913.07 926.176 2908.91 927.881C2904.74 929.585 2899.77 930.438 2893.99 930.438C2885.8 930.438 2878.34 928.544 2871.62 924.756C2864.94 920.92 2859.62 915.073 2855.64 907.213C2851.71 899.306 2849.74 889.315 2849.74 877.241C2849.74 864.884 2851.76 854.562 2855.78 846.276C2859.81 837.99 2865.16 831.787 2871.83 827.668C2878.56 823.548 2885.92 821.489 2893.92 821.489C2900.03 821.489 2905.14 822.53 2909.26 824.614C2913.38 826.65 2916.7 829.206 2919.2 832.284C2921.76 835.314 2923.73 838.297 2925.1 841.233H2926.24V822.909H2956.28V933.065C2956.28 942.346 2954.01 950.111 2949.46 956.361C2944.91 962.611 2938.62 967.298 2930.57 970.423C2922.57 973.596 2913.36 975.182 2902.94 975.182ZM2903.58 907.71C2908.46 907.71 2912.58 906.503 2915.94 904.088C2919.35 901.626 2921.95 898.122 2923.75 893.577C2925.6 888.984 2926.52 883.491 2926.52 877.099C2926.52 870.707 2925.62 865.168 2923.82 860.48C2922.02 855.745 2919.42 852.076 2916.01 849.472C2912.6 846.867 2908.46 845.565 2903.58 845.565C2898.61 845.565 2894.42 846.915 2891.01 849.614C2887.6 852.265 2885.02 855.958 2883.27 860.693C2881.52 865.428 2880.64 870.897 2880.64 877.099C2880.64 883.397 2881.52 888.842 2883.27 893.435C2885.07 897.98 2887.65 901.508 2891.01 904.017C2894.42 906.479 2898.61 907.71 2903.58 907.71ZM3075.93 934.131C3064.9 934.131 3055.36 931.787 3047.31 927.099C3039.31 922.365 3033.13 915.783 3028.77 907.355C3024.42 898.88 3022.24 889.055 3022.24 877.881C3022.24 866.612 3024.42 856.763 3028.77 848.335C3033.13 839.86 3039.31 833.278 3047.31 828.591C3055.36 823.856 3064.9 821.489 3075.93 821.489C3086.97 821.489 3096.48 823.856 3104.49 828.591C3112.53 833.278 3118.74 839.86 3123.09 848.335C3127.45 856.763 3129.63 866.612 3129.63 877.881C3129.63 889.055 3127.45 898.88 3123.09 907.355C3118.74 915.783 3112.53 922.365 3104.49 927.099C3096.48 931.787 3086.97 934.131 3075.93 934.131ZM3076.08 910.693C3081.09 910.693 3085.29 909.273 3088.65 906.432C3092.01 903.544 3094.54 899.614 3096.25 894.642C3098 889.67 3098.87 884.012 3098.87 877.668C3098.87 871.323 3098 865.665 3096.25 860.693C3094.54 855.722 3092.01 851.792 3088.65 848.903C3085.29 846.015 3081.09 844.571 3076.08 844.571C3071.01 844.571 3066.75 846.015 3063.29 848.903C3059.88 851.792 3057.3 855.722 3055.55 860.693C3053.85 865.665 3052.99 871.323 3052.99 877.668C3052.99 884.012 3053.85 889.67 3055.55 894.642C3057.3 899.614 3059.88 903.544 3063.29 906.432C3066.75 909.273 3071.01 910.693 3076.08 910.693ZM3219.26 885.551V822.909H3249.51V932H3220.47V912.185H3219.33C3216.87 918.577 3212.77 923.714 3207.04 927.597C3201.36 931.479 3194.42 933.42 3186.23 933.42C3178.94 933.42 3172.52 931.763 3166.99 928.449C3161.45 925.134 3157.11 920.423 3153.99 914.315C3150.91 908.207 3149.35 900.892 3149.3 892.369V822.909H3179.56V886.972C3179.6 893.411 3181.33 898.501 3184.74 902.241C3188.15 905.982 3192.72 907.852 3198.45 907.852C3202.09 907.852 3205.5 907.024 3208.68 905.366C3211.85 903.662 3214.4 901.152 3216.35 897.838C3218.33 894.524 3219.31 890.428 3219.26 885.551ZM3331.74 822.909V845.636H3266.04V822.909H3331.74ZM3280.96 796.773H3311.21V898.477C3311.21 901.271 3311.64 903.449 3312.49 905.011C3313.35 906.527 3314.53 907.592 3316.04 908.207C3317.61 908.823 3319.41 909.131 3321.44 909.131C3322.86 909.131 3324.28 909.012 3325.7 908.776C3327.12 908.491 3328.21 908.278 3328.97 908.136L3333.73 930.651C3332.21 931.124 3330.08 931.669 3327.34 932.284C3324.59 932.947 3321.25 933.349 3317.32 933.491C3310.03 933.776 3303.64 932.805 3298.15 930.58C3292.7 928.354 3288.46 924.898 3285.43 920.21C3282.4 915.523 3280.91 909.604 3280.96 902.455V796.773ZM3440.85 854.017L3413.15 855.722C3412.68 853.354 3411.66 851.223 3410.1 849.33C3408.53 847.388 3406.47 845.849 3403.92 844.713C3401.41 843.529 3398.4 842.938 3394.9 842.938C3390.21 842.938 3386.26 843.932 3383.04 845.92C3379.82 847.862 3378.21 850.466 3378.21 853.733C3378.21 856.337 3379.25 858.539 3381.33 860.338C3383.42 862.137 3386.99 863.581 3392.06 864.67L3411.8 868.648C3422.41 870.826 3430.31 874.33 3435.52 879.159C3440.73 883.989 3443.33 890.333 3443.33 898.193C3443.33 905.343 3441.23 911.616 3437.01 917.014C3432.85 922.412 3427.12 926.626 3419.83 929.656C3412.58 932.639 3404.22 934.131 3394.75 934.131C3380.31 934.131 3368.81 931.124 3360.24 925.111C3351.72 919.05 3346.72 910.812 3345.25 900.395L3375.01 898.832C3375.91 903.236 3378.09 906.598 3381.54 908.918C3385 911.19 3389.43 912.327 3394.83 912.327C3400.13 912.327 3404.39 911.309 3407.61 909.273C3410.88 907.189 3412.53 904.514 3412.58 901.247C3412.53 898.501 3411.37 896.252 3409.1 894.5C3406.83 892.701 3403.33 891.328 3398.59 890.381L3379.7 886.616C3369.04 884.486 3361.11 880.793 3355.91 875.537C3350.74 870.281 3348.16 863.581 3348.16 855.438C3348.16 848.43 3350.06 842.393 3353.85 837.327C3357.68 832.26 3363.06 828.354 3369.97 825.608C3376.93 822.862 3385.07 821.489 3394.4 821.489C3408.18 821.489 3419.02 824.401 3426.93 830.224C3434.88 836.048 3439.52 843.979 3440.85 854.017ZM3462.39 932V822.909H3492.64V932H3462.39ZM3477.59 808.847C3473.09 808.847 3469.23 807.355 3466.01 804.372C3462.84 801.342 3461.25 797.72 3461.25 793.506C3461.25 789.339 3462.84 785.764 3466.01 782.781C3469.23 779.751 3473.09 778.236 3477.59 778.236C3482.08 778.236 3485.92 779.751 3489.09 782.781C3492.31 785.764 3493.92 789.339 3493.92 793.506C3493.92 797.72 3492.31 801.342 3489.09 804.372C3485.92 807.355 3482.08 808.847 3477.59 808.847ZM3557.08 933.776C3548.79 933.776 3541.29 931.645 3534.56 927.384C3527.89 923.075 3522.58 916.754 3518.65 908.42C3514.77 900.04 3512.83 889.765 3512.83 877.597C3512.83 865.097 3514.84 854.704 3518.87 846.418C3522.89 838.084 3528.24 831.858 3534.92 827.739C3541.64 823.572 3549 821.489 3557.01 821.489C3563.11 821.489 3568.2 822.53 3572.28 824.614C3576.4 826.65 3579.71 829.206 3582.22 832.284C3584.78 835.314 3586.72 838.297 3588.04 841.233H3588.97V786.545H3619.15V932H3589.32V914.528H3588.04C3586.62 917.559 3584.61 920.565 3582.01 923.548C3579.45 926.484 3576.11 928.922 3571.99 930.864C3567.92 932.805 3562.95 933.776 3557.08 933.776ZM3566.67 909.699C3571.54 909.699 3575.66 908.373 3579.02 905.722C3582.43 903.023 3585.04 899.259 3586.84 894.429C3588.68 889.599 3589.61 883.941 3589.61 877.455C3589.61 870.968 3588.71 865.333 3586.91 860.551C3585.11 855.769 3582.5 852.076 3579.09 849.472C3575.69 846.867 3571.54 845.565 3566.67 845.565C3561.69 845.565 3557.5 846.915 3554.09 849.614C3550.69 852.312 3548.1 856.053 3546.35 860.835C3544.6 865.617 3543.73 871.157 3543.73 877.455C3543.73 883.799 3544.6 889.41 3546.35 894.287C3548.15 899.116 3550.73 902.904 3554.09 905.651C3557.5 908.349 3561.69 909.699 3566.67 909.699ZM3693.74 934.131C3682.52 934.131 3672.86 931.858 3664.77 927.312C3656.72 922.72 3650.51 916.233 3646.16 907.852C3641.8 899.424 3639.62 889.457 3639.62 877.952C3639.62 866.73 3641.8 856.882 3646.16 848.406C3650.51 839.931 3656.65 833.326 3664.55 828.591C3672.51 823.856 3681.83 821.489 3692.54 821.489C3699.73 821.489 3706.43 822.649 3712.63 824.969C3718.88 827.241 3724.33 830.674 3728.97 835.267C3733.66 839.86 3737.3 845.636 3739.91 852.597C3742.51 859.509 3743.81 867.606 3743.81 876.886V885.196H3651.7V866.446H3715.33C3715.33 862.09 3714.39 858.231 3712.49 854.869C3710.6 851.508 3707.97 848.88 3704.61 846.986C3701.29 845.045 3697.44 844.074 3693.03 844.074C3688.44 844.074 3684.37 845.139 3680.82 847.27C3677.31 849.353 3674.57 852.17 3672.58 855.722C3670.59 859.225 3669.57 863.132 3669.52 867.44V885.267C3669.52 890.665 3670.52 895.329 3672.51 899.259C3674.54 903.188 3677.41 906.219 3681.1 908.349C3684.79 910.48 3689.17 911.545 3694.24 911.545C3697.6 911.545 3700.68 911.072 3703.47 910.125C3706.27 909.178 3708.66 907.758 3710.65 905.864C3712.63 903.97 3714.15 901.65 3715.19 898.903L3743.17 900.75C3741.75 907.473 3738.84 913.345 3734.44 918.364C3730.08 923.335 3724.45 927.218 3717.54 930.011C3710.67 932.758 3702.74 934.131 3693.74 934.131ZM3781.24 933.847C3776.56 933.847 3772.53 932.189 3769.17 928.875C3765.85 925.513 3764.2 921.489 3764.2 916.801C3764.2 912.161 3765.85 908.184 3769.17 904.869C3772.53 901.555 3776.56 899.898 3781.24 899.898C3785.79 899.898 3789.77 901.555 3793.17 904.869C3796.58 908.184 3798.29 912.161 3798.29 916.801C3798.29 919.926 3797.48 922.791 3795.87 925.395C3794.31 927.952 3792.25 930.011 3789.69 931.574C3787.14 933.089 3784.32 933.847 3781.24 933.847ZM3857.61 811.901V786.545H3977.07V811.901H3932.54V932H3902.14V811.901H3857.61ZM3996.18 932V822.909H4026.43V932H3996.18ZM4011.37 808.847C4006.88 808.847 4003.02 807.355 3999.8 804.372C3996.63 801.342 3995.04 797.72 3995.04 793.506C3995.04 789.339 3996.63 785.764 3999.8 782.781C4003.02 779.751 4006.88 778.236 4011.37 778.236C4015.87 778.236 4019.71 779.751 4022.88 782.781C4026.1 785.764 4027.71 789.339 4027.71 793.506C4027.71 797.72 4026.1 801.342 4022.88 804.372C4019.71 807.355 4015.87 808.847 4011.37 808.847ZM4050.67 932V822.909H4079.5V842.156H4080.78C4083.05 835.764 4086.84 830.722 4092.14 827.028C4097.45 823.335 4103.79 821.489 4111.18 821.489C4118.66 821.489 4125.03 823.359 4130.28 827.099C4135.54 830.793 4139.04 835.812 4140.8 842.156H4141.93C4144.16 835.906 4148.18 830.911 4154.01 827.17C4159.88 823.383 4166.81 821.489 4174.82 821.489C4185 821.489 4193.26 824.732 4199.6 831.219C4205.99 837.658 4209.19 846.796 4209.19 858.634V932H4179.01V864.599C4179.01 858.539 4177.4 853.993 4174.18 850.963C4170.96 847.933 4166.93 846.418 4162.1 846.418C4156.61 846.418 4152.32 848.17 4149.25 851.673C4146.17 855.13 4144.63 859.699 4144.63 865.381V932H4115.3V863.96C4115.3 858.61 4113.76 854.348 4110.68 851.176C4107.65 848.004 4103.65 846.418 4098.68 846.418C4095.32 846.418 4092.29 847.27 4089.59 848.974C4086.94 850.632 4084.83 852.975 4083.27 856.006C4081.7 858.989 4080.92 862.492 4080.92 866.517V932H4050.67ZM4282.81 934.131C4271.58 934.131 4261.92 931.858 4253.83 927.312C4245.78 922.72 4239.58 916.233 4235.22 907.852C4230.86 899.424 4228.69 889.457 4228.69 877.952C4228.69 866.73 4230.86 856.882 4235.22 848.406C4239.58 839.931 4245.71 833.326 4253.62 828.591C4261.57 823.856 4270.9 821.489 4281.6 821.489C4288.79 821.489 4295.49 822.649 4301.7 824.969C4307.95 827.241 4313.39 830.674 4318.03 835.267C4322.72 839.86 4326.37 845.636 4328.97 852.597C4331.57 859.509 4332.88 867.606 4332.88 876.886V885.196H4240.76V866.446H4304.4C4304.4 862.09 4303.45 858.231 4301.56 854.869C4299.66 851.508 4297.03 848.88 4293.67 846.986C4290.36 845.045 4286.5 844.074 4282.1 844.074C4277.5 844.074 4273.43 845.139 4269.88 847.27C4266.38 849.353 4263.63 852.17 4261.64 855.722C4259.65 859.225 4258.63 863.132 4258.59 867.44V885.267C4258.59 890.665 4259.58 895.329 4261.57 899.259C4263.61 903.188 4266.47 906.219 4270.16 908.349C4273.86 910.48 4278.24 911.545 4283.3 911.545C4286.66 911.545 4289.74 911.072 4292.54 910.125C4295.33 909.178 4297.72 907.758 4299.71 905.864C4301.7 903.97 4303.21 901.65 4304.25 898.903L4332.24 900.75C4330.82 907.473 4327.9 913.345 4323.5 918.364C4319.15 923.335 4313.51 927.218 4306.6 930.011C4299.73 932.758 4291.8 934.131 4282.81 934.131ZM4457.57 822.909V845.636H4390.25V822.909H4457.57ZM4405.66 932V815.026C4405.66 807.118 4407.2 800.561 4410.27 795.352C4413.4 790.144 4417.66 786.238 4423.06 783.634C4428.46 781.029 4434.59 779.727 4441.45 779.727C4446.09 779.727 4450.33 780.082 4454.17 780.793C4458.05 781.503 4460.94 782.142 4462.83 782.71L4457.43 805.438C4456.25 805.059 4454.78 804.704 4453.03 804.372C4451.32 804.041 4449.57 803.875 4447.77 803.875C4443.32 803.875 4440.22 804.917 4438.47 807C4436.72 809.036 4435.84 811.901 4435.84 815.594V932H4405.66ZM4521.44 934.131C4510.41 934.131 4500.87 931.787 4492.82 927.099C4484.82 922.365 4478.64 915.783 4474.28 907.355C4469.93 898.88 4467.75 889.055 4467.75 877.881C4467.75 866.612 4469.93 856.763 4474.28 848.335C4478.64 839.86 4484.82 833.278 4492.82 828.591C4500.87 823.856 4510.41 821.489 4521.44 821.489C4532.47 821.489 4541.99 823.856 4549.99 828.591C4558.04 833.278 4564.24 839.86 4568.6 848.335C4572.96 856.763 4575.13 866.612 4575.13 877.881C4575.13 889.055 4572.96 898.88 4568.6 907.355C4564.24 915.783 4558.04 922.365 4549.99 927.099C4541.99 931.787 4532.47 934.131 4521.44 934.131ZM4521.58 910.693C4526.6 910.693 4530.79 909.273 4534.15 906.432C4537.52 903.544 4540.05 899.614 4541.75 894.642C4543.51 889.67 4544.38 884.012 4544.38 877.668C4544.38 871.323 4543.51 865.665 4541.75 860.693C4540.05 855.722 4537.52 851.792 4534.15 848.903C4530.79 846.015 4526.6 844.571 4521.58 844.571C4516.52 844.571 4512.26 846.015 4508.8 848.903C4505.39 851.792 4502.81 855.722 4501.06 860.693C4499.35 865.665 4498.5 871.323 4498.5 877.668C4498.5 884.012 4499.35 889.67 4501.06 894.642C4502.81 899.614 4505.39 903.544 4508.8 906.432C4512.26 909.273 4516.52 910.693 4521.58 910.693ZM4594.81 932V822.909H4624.14V841.943H4625.28C4627.27 835.172 4630.6 830.059 4635.29 826.602C4639.98 823.098 4645.38 821.347 4651.48 821.347C4653 821.347 4654.63 821.441 4656.38 821.631C4658.14 821.82 4659.68 822.08 4661 822.412V849.259C4659.58 848.832 4657.62 848.454 4655.11 848.122C4652.6 847.791 4650.3 847.625 4648.22 847.625C4643.77 847.625 4639.79 848.596 4636.29 850.537C4632.83 852.431 4630.08 855.082 4628.05 858.491C4626.06 861.901 4625.06 865.83 4625.06 870.281V932H4594.81ZM4780.96 822.909V845.636H4715.26V822.909H4780.96ZM4730.18 796.773H4760.43V898.477C4760.43 901.271 4760.86 903.449 4761.71 905.011C4762.56 906.527 4763.75 907.592 4765.26 908.207C4766.83 908.823 4768.62 909.131 4770.66 909.131C4772.08 909.131 4773.5 909.012 4774.92 908.776C4776.34 908.491 4777.43 908.278 4778.19 908.136L4782.95 930.651C4781.43 931.124 4779.3 931.669 4776.56 932.284C4773.81 932.947 4770.47 933.349 4766.54 933.491C4759.25 933.776 4752.86 932.805 4747.37 930.58C4741.92 928.354 4737.68 924.898 4734.65 920.21C4731.62 915.523 4730.13 909.604 4730.18 902.455V796.773ZM4833.27 868.932V932H4803.01V786.545H4832.41V842.156H4833.69C4836.16 835.717 4840.13 830.674 4845.62 827.028C4851.12 823.335 4858.01 821.489 4866.29 821.489C4873.87 821.489 4880.47 823.146 4886.11 826.46C4891.79 829.727 4896.19 834.438 4899.32 840.594C4902.49 846.702 4904.05 854.017 4904.01 862.54V932H4873.75V867.938C4873.8 861.214 4872.09 855.982 4868.64 852.241C4865.23 848.501 4860.45 846.631 4854.29 846.631C4850.17 846.631 4846.52 847.507 4843.35 849.259C4840.23 851.01 4837.77 853.567 4835.97 856.929C4834.21 860.243 4833.31 864.244 4833.27 868.932ZM4977.53 934.131C4966.31 934.131 4956.65 931.858 4948.55 927.312C4940.51 922.72 4934.3 916.233 4929.95 907.852C4925.59 899.424 4923.41 889.457 4923.41 877.952C4923.41 866.73 4925.59 856.882 4929.95 848.406C4934.3 839.931 4940.43 833.326 4948.34 828.591C4956.3 823.856 4965.62 821.489 4976.32 821.489C4983.52 821.489 4990.22 822.649 4996.42 824.969C5002.67 827.241 5008.12 830.674 5012.76 835.267C5017.45 839.86 5021.09 845.636 5023.7 852.597C5026.3 859.509 5027.6 867.606 5027.6 876.886V885.196H4935.49V866.446H4999.12C4999.12 862.09 4998.18 858.231 4996.28 854.869C4994.39 851.508 4991.76 848.88 4988.4 846.986C4985.08 845.045 4981.23 844.074 4976.82 844.074C4972.23 844.074 4968.16 845.139 4964.61 847.27C4961.1 849.353 4958.36 852.17 4956.37 855.722C4954.38 859.225 4953.36 863.132 4953.31 867.44V885.267C4953.31 890.665 4954.31 895.329 4956.3 899.259C4958.33 903.188 4961.2 906.219 4964.89 908.349C4968.58 910.48 4972.96 911.545 4978.03 911.545C4981.39 911.545 4984.47 911.072 4987.26 910.125C4990.06 909.178 4992.45 907.758 4994.44 905.864C4996.42 903.97 4997.94 901.65 4998.98 898.903L5026.96 900.75C5025.54 907.473 5022.63 913.345 5018.23 918.364C5013.87 923.335 5008.24 927.218 5001.32 930.011C4994.46 932.758 4986.53 934.131 4977.53 934.131ZM5093.64 932V822.909H5122.97V841.943H5124.11C5126.09 835.172 5129.43 830.059 5134.12 826.602C5138.81 823.098 5144.2 821.347 5150.31 821.347C5151.83 821.347 5153.46 821.441 5155.21 821.631C5156.96 821.82 5158.5 822.08 5159.83 822.412V849.259C5158.41 848.832 5156.44 848.454 5153.93 848.122C5151.43 847.791 5149.13 847.625 5147.05 847.625C5142.59 847.625 5138.62 848.596 5135.11 850.537C5131.66 852.431 5128.91 855.082 5126.88 858.491C5124.89 861.901 5123.89 865.83 5123.89 870.281V932H5093.64ZM5203.46 934.06C5196.5 934.06 5190.29 932.852 5184.85 930.438C5179.4 927.975 5175.09 924.353 5171.92 919.571C5168.8 914.741 5167.23 908.728 5167.23 901.531C5167.23 895.471 5168.35 890.381 5170.57 886.261C5172.8 882.142 5175.83 878.828 5179.66 876.318C5183.5 873.809 5187.85 871.915 5192.73 870.636C5197.66 869.358 5202.82 868.458 5208.21 867.938C5214.56 867.275 5219.67 866.659 5223.55 866.091C5227.44 865.475 5230.25 864.576 5232.01 863.392C5233.76 862.208 5234.63 860.456 5234.63 858.136V857.71C5234.63 853.212 5233.21 849.732 5230.37 847.27C5227.58 844.808 5223.6 843.577 5218.44 843.577C5213 843.577 5208.66 844.784 5205.44 847.199C5202.22 849.566 5200.09 852.549 5199.05 856.148L5171.07 853.875C5172.49 847.246 5175.28 841.517 5179.45 836.688C5183.62 831.811 5188.99 828.07 5195.57 825.466C5202.2 822.814 5209.87 821.489 5218.58 821.489C5224.64 821.489 5230.44 822.199 5235.98 823.619C5241.57 825.04 5246.52 827.241 5250.83 830.224C5255.18 833.207 5258.62 837.043 5261.13 841.73C5263.64 846.37 5264.89 851.934 5264.89 858.42V932H5236.2V916.872H5235.34C5233.59 920.281 5231.25 923.288 5228.31 925.892C5225.38 928.449 5221.85 930.461 5217.73 931.929C5213.61 933.349 5208.85 934.06 5203.46 934.06ZM5212.12 913.179C5216.57 913.179 5220.5 912.303 5223.91 910.551C5227.32 908.752 5229.99 906.337 5231.94 903.307C5233.88 900.277 5234.85 896.844 5234.85 893.009V881.432C5233.9 882.047 5232.6 882.616 5230.94 883.136C5229.33 883.61 5227.51 884.06 5225.47 884.486C5223.44 884.865 5221.4 885.22 5219.36 885.551C5217.33 885.835 5215.48 886.096 5213.82 886.332C5210.27 886.853 5207.17 887.682 5204.52 888.818C5201.87 889.955 5199.81 891.493 5198.34 893.435C5196.87 895.329 5196.14 897.696 5196.14 900.537C5196.14 904.656 5197.63 907.805 5200.61 909.983C5203.64 912.114 5207.48 913.179 5212.12 913.179ZM5288.36 932V822.909H5318.62V932H5288.36ZM5303.56 808.847C5299.06 808.847 5295.2 807.355 5291.99 804.372C5288.81 801.342 5287.23 797.72 5287.23 793.506C5287.23 789.339 5288.81 785.764 5291.99 782.781C5295.2 779.751 5299.06 778.236 5303.56 778.236C5308.06 778.236 5311.9 779.751 5315.07 782.781C5318.29 785.764 5319.9 789.339 5319.9 793.506C5319.9 797.72 5318.29 801.342 5315.07 804.372C5311.9 807.355 5308.06 808.847 5303.56 808.847ZM5373.11 868.932V932H5342.86V822.909H5371.69V842.156H5372.97C5375.38 835.812 5379.43 830.793 5385.11 827.099C5390.8 823.359 5397.68 821.489 5405.78 821.489C5413.36 821.489 5419.96 823.146 5425.6 826.46C5431.23 829.775 5435.61 834.509 5438.74 840.665C5441.86 846.773 5443.42 854.064 5443.42 862.54V932H5413.17V867.938C5413.21 861.261 5411.51 856.053 5408.05 852.312C5404.6 848.525 5399.84 846.631 5393.78 846.631C5389.71 846.631 5386.11 847.507 5382.98 849.259C5379.91 851.01 5377.49 853.567 5375.74 856.929C5374.03 860.243 5373.16 864.244 5373.11 868.932ZM5482.04 972.909C5478.21 972.909 5474.61 972.601 5471.25 971.986C5467.93 971.418 5465.19 970.684 5463.01 969.784L5469.83 947.199C5473.38 948.288 5476.57 948.88 5479.41 948.974C5482.3 949.069 5484.79 948.406 5486.87 946.986C5489 945.565 5490.73 943.151 5492.06 939.741L5493.83 935.125L5454.7 822.909H5486.52L5509.1 903.023H5510.24L5533.04 822.909H5565.07L5522.67 943.79C5520.63 949.661 5517.86 954.775 5514.36 959.131C5510.9 963.534 5506.52 966.92 5501.22 969.287C5495.92 971.702 5489.52 972.909 5482.04 972.909ZM5626.84 972.909V822.909H5656.67V841.233H5658.02C5659.34 838.297 5661.26 835.314 5663.77 832.284C5666.33 829.206 5669.64 826.65 5673.71 824.614C5677.83 822.53 5682.95 821.489 5689.06 821.489C5697.01 821.489 5704.35 823.572 5711.07 827.739C5717.8 831.858 5723.17 838.084 5727.19 846.418C5731.22 854.704 5733.23 865.097 5733.23 877.597C5733.23 889.765 5731.27 900.04 5727.34 908.42C5723.45 916.754 5718.15 923.075 5711.43 927.384C5704.75 931.645 5697.27 933.776 5688.98 933.776C5683.11 933.776 5678.12 932.805 5674 930.864C5669.93 928.922 5666.59 926.484 5663.98 923.548C5661.38 920.565 5659.39 917.559 5658.02 914.528H5657.1V972.909H5626.84ZM5656.46 877.455C5656.46 883.941 5657.36 889.599 5659.15 894.429C5660.95 899.259 5663.56 903.023 5666.97 905.722C5670.38 908.373 5674.52 909.699 5679.4 909.699C5684.32 909.699 5688.49 908.349 5691.9 905.651C5695.31 902.904 5697.89 899.116 5699.64 894.287C5701.44 889.41 5702.34 883.799 5702.34 877.455C5702.34 871.157 5701.46 865.617 5699.71 860.835C5697.96 856.053 5695.38 852.312 5691.97 849.614C5688.56 846.915 5684.37 845.565 5679.4 845.565C5674.47 845.565 5670.31 846.867 5666.9 849.472C5663.53 852.076 5660.95 855.769 5659.15 860.551C5657.36 865.333 5656.46 870.968 5656.46 877.455ZM5783.66 786.545V932H5753.4V786.545H5783.66ZM5839 934.06C5832.04 934.06 5825.84 932.852 5820.39 930.438C5814.95 927.975 5810.64 924.353 5807.47 919.571C5804.34 914.741 5802.78 908.728 5802.78 901.531C5802.78 895.471 5803.89 890.381 5806.12 886.261C5808.34 882.142 5811.37 878.828 5815.21 876.318C5819.04 873.809 5823.4 871.915 5828.28 870.636C5833.2 869.358 5838.36 868.458 5843.76 867.938C5850.11 867.275 5855.22 866.659 5859.1 866.091C5862.98 865.475 5865.8 864.576 5867.55 863.392C5869.31 862.208 5870.18 860.456 5870.18 858.136V857.71C5870.18 853.212 5868.76 849.732 5865.92 847.27C5863.13 844.808 5859.15 843.577 5853.99 843.577C5848.54 843.577 5844.21 844.784 5840.99 847.199C5837.77 849.566 5835.64 852.549 5834.6 856.148L5806.62 853.875C5808.04 847.246 5810.83 841.517 5815 836.688C5819.16 831.811 5824.54 828.07 5831.12 825.466C5837.75 822.814 5845.42 821.489 5854.13 821.489C5860.19 821.489 5865.99 822.199 5871.53 823.619C5877.12 825.04 5882.07 827.241 5886.37 830.224C5890.73 833.207 5894.16 837.043 5896.67 841.73C5899.18 846.37 5900.44 851.934 5900.44 858.42V932H5871.74V916.872H5870.89C5869.14 920.281 5866.8 923.288 5863.86 925.892C5860.92 928.449 5857.4 930.461 5853.28 931.929C5849.16 933.349 5844.4 934.06 5839 934.06ZM5847.67 913.179C5852.12 913.179 5856.05 912.303 5859.46 910.551C5862.87 908.752 5865.54 906.337 5867.48 903.307C5869.42 900.277 5870.39 896.844 5870.39 893.009V881.432C5869.45 882.047 5868.15 882.616 5866.49 883.136C5864.88 883.61 5863.06 884.06 5861.02 884.486C5858.98 884.865 5856.95 885.22 5854.91 885.551C5852.88 885.835 5851.03 886.096 5849.37 886.332C5845.82 886.853 5842.72 887.682 5840.07 888.818C5837.42 889.955 5835.36 891.493 5833.89 893.435C5832.42 895.329 5831.69 897.696 5831.69 900.537C5831.69 904.656 5833.18 907.805 5836.16 909.983C5839.19 912.114 5843.03 913.179 5847.67 913.179ZM5938.68 972.909C5934.85 972.909 5931.25 972.601 5927.89 971.986C5924.57 971.418 5921.83 970.684 5919.65 969.784L5926.47 947.199C5930.02 948.288 5933.21 948.88 5936.05 948.974C5938.94 949.069 5941.43 948.406 5943.51 946.986C5945.64 945.565 5947.37 943.151 5948.7 939.741L5950.47 935.125L5911.34 822.909H5943.16L5965.74 903.023H5966.88L5989.68 822.909H6021.71L5979.31 943.79C5977.27 949.661 5974.5 954.775 5971 959.131C5967.54 963.534 5963.16 966.92 5957.86 969.287C5952.56 971.702 5946.16 972.909 5938.68 972.909ZM6067.45 786.545V932H6037.19V786.545H6067.45ZM6091.68 932V822.909H6121.94V932H6091.68ZM6106.88 808.847C6102.38 808.847 6098.53 807.355 6095.31 804.372C6092.13 801.342 6090.55 797.72 6090.55 793.506C6090.55 789.339 6092.13 785.764 6095.31 782.781C6098.53 779.751 6102.38 778.236 6106.88 778.236C6111.38 778.236 6115.22 779.751 6118.39 782.781C6121.61 785.764 6123.22 789.339 6123.22 793.506C6123.22 797.72 6121.61 801.342 6118.39 804.372C6115.22 807.355 6111.38 808.847 6106.88 808.847ZM6236.94 854.017L6209.24 855.722C6208.77 853.354 6207.75 851.223 6206.19 849.33C6204.63 847.388 6202.57 845.849 6200.01 844.713C6197.5 843.529 6194.49 842.938 6190.99 842.938C6186.3 842.938 6182.35 843.932 6179.13 845.92C6175.91 847.862 6174.3 850.466 6174.3 853.733C6174.3 856.337 6175.34 858.539 6177.43 860.338C6179.51 862.137 6183.08 863.581 6188.15 864.67L6207.89 868.648C6218.5 870.826 6226.41 874.33 6231.62 879.159C6236.82 883.989 6239.43 890.333 6239.43 898.193C6239.43 905.343 6237.32 911.616 6233.11 917.014C6228.94 922.412 6223.21 926.626 6215.92 929.656C6208.68 932.639 6200.32 934.131 6190.85 934.131C6176.41 934.131 6164.9 931.124 6156.33 925.111C6147.81 919.05 6142.81 910.812 6141.35 900.395L6171.1 898.832C6172 903.236 6174.18 906.598 6177.64 908.918C6181.09 911.19 6185.52 912.327 6190.92 912.327C6196.22 912.327 6200.48 911.309 6203.7 909.273C6206.97 907.189 6208.63 904.514 6208.68 901.247C6208.63 898.501 6207.47 896.252 6205.2 894.5C6202.92 892.701 6199.42 891.328 6194.68 890.381L6175.79 886.616C6165.14 884.486 6157.21 880.793 6152 875.537C6146.84 870.281 6144.26 863.581 6144.26 855.438C6144.26 848.43 6146.15 842.393 6149.94 837.327C6153.77 832.26 6159.15 828.354 6166.06 825.608C6173.02 822.862 6181.17 821.489 6190.49 821.489C6204.27 821.489 6215.11 824.401 6223.02 830.224C6230.98 836.048 6235.62 843.979 6236.94 854.017ZM6316.51 822.909V845.636H6250.81V822.909H6316.51ZM6265.72 796.773H6295.98V898.477C6295.98 901.271 6296.41 903.449 6297.26 905.011C6298.11 906.527 6299.29 907.592 6300.81 908.207C6302.37 908.823 6304.17 909.131 6306.21 909.131C6307.63 909.131 6309.05 909.012 6310.47 908.776C6311.89 908.491 6312.98 908.278 6313.74 908.136L6318.49 930.651C6316.98 931.124 6314.85 931.669 6312.1 932.284C6309.36 932.947 6306.02 933.349 6302.09 933.491C6294.8 933.776 6288.4 932.805 6282.91 930.58C6277.47 928.354 6273.23 924.898 6270.2 920.21C6267.17 915.523 6265.68 909.604 6265.72 902.455V796.773ZM6353.9 933.847C6349.21 933.847 6345.19 932.189 6341.83 928.875C6338.51 925.513 6336.85 921.489 6336.85 916.801C6336.85 912.161 6338.51 908.184 6341.83 904.869C6345.19 901.555 6349.21 899.898 6353.9 899.898C6358.44 899.898 6362.42 901.555 6365.83 904.869C6369.24 908.184 6370.94 912.161 6370.94 916.801C6370.94 919.926 6370.14 922.791 6368.53 925.395C6366.97 927.952 6364.91 930.011 6362.35 931.574C6359.79 933.089 6356.98 933.847 6353.9 933.847Z" fill="white"/>
<path d="M1961.07 1127V1057.18H1988.61C1993.91 1057.18 1998.42 1058.19 2002.15 1060.22C2005.88 1062.22 2008.72 1065 2010.67 1068.57C2012.65 1072.11 2013.64 1076.2 2013.64 1080.84C2013.64 1085.48 2012.64 1089.57 2010.64 1093.11C2008.64 1096.66 2005.74 1099.42 2001.94 1101.4C1998.17 1103.37 1993.6 1104.36 1988.24 1104.36H1970.68V1092.53H1985.85C1988.69 1092.53 1991.03 1092.05 1992.88 1091.07C1994.74 1090.07 1996.13 1088.69 1997.03 1086.94C1997.97 1085.17 1998.43 1083.14 1998.43 1080.84C1998.43 1078.52 1997.97 1076.5 1997.03 1074.77C1996.13 1073.02 1994.74 1071.67 1992.88 1070.72C1991.01 1069.74 1988.65 1069.25 1985.78 1069.25H1975.83V1127H1961.07ZM2037.47 1057.18V1127H2022.95V1057.18H2037.47ZM2064.04 1127.99C2060.7 1127.99 2057.72 1127.41 2055.11 1126.25C2052.49 1125.07 2050.43 1123.33 2048.9 1121.03C2047.4 1118.72 2046.65 1115.83 2046.65 1112.38C2046.65 1109.47 2047.19 1107.02 2048.26 1105.05C2049.32 1103.07 2050.78 1101.48 2052.62 1100.27C2054.46 1099.07 2056.55 1098.16 2058.89 1097.55C2061.26 1096.93 2063.73 1096.5 2066.32 1096.25C2069.37 1095.93 2071.82 1095.64 2073.69 1095.36C2075.55 1095.07 2076.9 1094.64 2077.74 1094.07C2078.59 1093.5 2079.01 1092.66 2079.01 1091.55V1091.34C2079.01 1089.18 2078.32 1087.51 2076.96 1086.33C2075.62 1085.15 2073.71 1084.56 2071.23 1084.56C2068.62 1084.56 2066.54 1085.14 2064.99 1086.3C2063.45 1087.43 2062.43 1088.86 2061.93 1090.59L2048.49 1089.5C2049.18 1086.32 2050.52 1083.57 2052.52 1081.25C2054.52 1078.91 2057.1 1077.11 2060.26 1075.86C2063.44 1074.59 2067.12 1073.95 2071.3 1073.95C2074.21 1073.95 2076.99 1074.3 2079.65 1074.98C2082.34 1075.66 2084.71 1076.72 2086.78 1078.15C2088.87 1079.58 2090.52 1081.42 2091.72 1083.67C2092.93 1085.9 2093.53 1088.57 2093.53 1091.68V1127H2079.76V1119.74H2079.35C2078.51 1121.38 2077.38 1122.82 2075.97 1124.07C2074.56 1125.3 2072.87 1126.26 2070.89 1126.97C2068.91 1127.65 2066.63 1127.99 2064.04 1127.99ZM2068.2 1117.97C2070.34 1117.97 2072.22 1117.55 2073.86 1116.7C2075.49 1115.84 2076.78 1114.68 2077.71 1113.23C2078.64 1111.77 2079.11 1110.12 2079.11 1108.28V1102.73C2078.65 1103.02 2078.03 1103.3 2077.23 1103.55C2076.46 1103.77 2075.59 1103.99 2074.61 1104.19C2073.63 1104.37 2072.65 1104.55 2071.68 1104.7C2070.7 1104.84 2069.81 1104.97 2069.02 1105.08C2067.31 1105.33 2065.82 1105.73 2064.55 1106.27C2063.28 1106.82 2062.29 1107.56 2061.59 1108.49C2060.88 1109.4 2060.53 1110.53 2060.53 1111.9C2060.53 1113.88 2061.24 1115.39 2062.68 1116.43C2064.13 1117.45 2065.97 1117.97 2068.2 1117.97ZM2111.89 1146.64C2110.05 1146.64 2108.32 1146.49 2106.7 1146.19C2105.11 1145.92 2103.8 1145.57 2102.75 1145.14L2106.02 1134.3C2107.73 1134.82 2109.26 1135.1 2110.62 1135.15C2112.01 1135.19 2113.2 1134.88 2114.2 1134.19C2115.23 1133.51 2116.06 1132.35 2116.69 1130.72L2117.55 1128.5L2098.76 1074.64H2114.03L2124.88 1113.09H2125.42L2136.36 1074.64H2151.74L2131.39 1132.66C2130.41 1135.48 2129.08 1137.93 2127.4 1140.02C2125.74 1142.14 2123.64 1143.76 2121.09 1144.9C2118.55 1146.06 2115.48 1146.64 2111.89 1146.64ZM2173.69 1057.18V1127H2159.17V1057.18H2173.69ZM2185.33 1127V1074.64H2199.85V1127H2185.33ZM2192.62 1067.89C2190.46 1067.89 2188.61 1067.17 2187.07 1065.74C2185.54 1064.28 2184.78 1062.55 2184.78 1060.52C2184.78 1058.52 2185.54 1056.81 2187.07 1055.38C2188.61 1053.92 2190.46 1053.19 2192.62 1053.19C2194.78 1053.19 2196.62 1053.92 2198.14 1055.38C2199.69 1056.81 2200.46 1058.52 2200.46 1060.52C2200.46 1062.55 2199.69 1064.28 2198.14 1065.74C2196.62 1067.17 2194.78 1067.89 2192.62 1067.89ZM2255.05 1089.57L2241.76 1090.39C2241.53 1089.25 2241.04 1088.23 2240.29 1087.32C2239.54 1086.39 2238.55 1085.65 2237.32 1085.1C2236.12 1084.53 2234.68 1084.25 2232.99 1084.25C2230.74 1084.25 2228.85 1084.73 2227.3 1085.68C2225.76 1086.61 2224.98 1087.86 2224.98 1089.43C2224.98 1090.68 2225.48 1091.74 2226.48 1092.6C2227.48 1093.47 2229.2 1094.16 2231.63 1094.68L2241.11 1096.59C2246.2 1097.64 2249.99 1099.32 2252.49 1101.64C2254.99 1103.95 2256.24 1107 2256.24 1110.77C2256.24 1114.2 2255.23 1117.22 2253.21 1119.81C2251.21 1122.4 2248.46 1124.42 2244.96 1125.88C2241.48 1127.31 2237.47 1128.02 2232.93 1128.02C2225.99 1128.02 2220.47 1126.58 2216.36 1123.69C2212.27 1120.78 2209.87 1116.83 2209.16 1111.83L2223.45 1111.08C2223.88 1113.19 2224.93 1114.81 2226.59 1115.92C2228.24 1117.01 2230.37 1117.56 2232.96 1117.56C2235.51 1117.56 2237.55 1117.07 2239.1 1116.09C2240.66 1115.09 2241.46 1113.81 2241.48 1112.24C2241.46 1110.92 2240.9 1109.84 2239.81 1109C2238.72 1108.14 2237.04 1107.48 2234.77 1107.02L2225.7 1105.22C2220.59 1104.19 2216.78 1102.42 2214.28 1099.9C2211.8 1097.37 2210.56 1094.16 2210.56 1090.25C2210.56 1086.89 2211.47 1083.99 2213.29 1081.56C2215.13 1079.12 2217.71 1077.25 2221.03 1075.93C2224.37 1074.61 2228.28 1073.95 2232.76 1073.95C2239.37 1073.95 2244.57 1075.35 2248.37 1078.15C2252.19 1080.94 2254.41 1084.75 2255.05 1089.57ZM2293.24 1074.64V1085.55H2261.71V1074.64H2293.24ZM2268.87 1062.09H2283.39V1110.91C2283.39 1112.25 2283.59 1113.3 2284 1114.05C2284.41 1114.77 2284.98 1115.28 2285.71 1115.58C2286.46 1115.87 2287.32 1116.02 2288.3 1116.02C2288.98 1116.02 2289.66 1115.97 2290.34 1115.85C2291.03 1115.72 2291.55 1115.61 2291.91 1115.55L2294.2 1126.35C2293.47 1126.58 2292.45 1126.84 2291.13 1127.14C2289.81 1127.45 2288.21 1127.65 2286.32 1127.72C2282.82 1127.85 2279.75 1127.39 2277.12 1126.32C2274.5 1125.25 2272.47 1123.59 2271.01 1121.34C2269.56 1119.09 2268.84 1116.25 2268.87 1112.82V1062.09ZM2345.61 1089.57L2332.32 1090.39C2332.09 1089.25 2331.6 1088.23 2330.85 1087.32C2330.1 1086.39 2329.11 1085.65 2327.89 1085.1C2326.68 1084.53 2325.24 1084.25 2323.56 1084.25C2321.31 1084.25 2319.41 1084.73 2317.86 1085.68C2316.32 1086.61 2315.55 1087.86 2315.55 1089.43C2315.55 1090.68 2316.05 1091.74 2317.05 1092.6C2318.05 1093.47 2319.76 1094.16 2322.19 1094.68L2331.67 1096.59C2336.76 1097.64 2340.56 1099.32 2343.06 1101.64C2345.56 1103.95 2346.81 1107 2346.81 1110.77C2346.81 1114.2 2345.8 1117.22 2343.77 1119.81C2341.77 1122.4 2339.02 1124.42 2335.52 1125.88C2332.05 1127.31 2328.03 1128.02 2323.49 1128.02C2316.56 1128.02 2311.03 1126.58 2306.92 1123.69C2302.83 1120.78 2300.43 1116.83 2299.73 1111.83L2314.01 1111.08C2314.44 1113.19 2315.49 1114.81 2317.15 1115.92C2318.81 1117.01 2320.93 1117.56 2323.52 1117.56C2326.07 1117.56 2328.11 1117.07 2329.66 1116.09C2331.23 1115.09 2332.02 1113.81 2332.05 1112.24C2332.02 1110.92 2331.47 1109.84 2330.38 1109C2329.28 1108.14 2327.6 1107.48 2325.33 1107.02L2316.26 1105.22C2311.15 1104.19 2307.34 1102.42 2304.84 1099.9C2302.36 1097.37 2301.12 1094.16 2301.12 1090.25C2301.12 1086.89 2302.03 1083.99 2303.85 1081.56C2305.69 1079.12 2308.27 1077.25 2311.59 1075.93C2314.93 1074.61 2318.84 1073.95 2323.32 1073.95C2329.93 1073.95 2335.14 1075.35 2338.93 1078.15C2342.75 1080.94 2344.98 1084.75 2345.61 1089.57ZM2393.1 1127.99C2389.76 1127.99 2386.78 1127.41 2384.17 1126.25C2381.56 1125.07 2379.49 1123.33 2377.97 1121.03C2376.47 1118.72 2375.72 1115.83 2375.72 1112.38C2375.72 1109.47 2376.25 1107.02 2377.32 1105.05C2378.39 1103.07 2379.84 1101.48 2381.68 1100.27C2383.52 1099.07 2385.61 1098.16 2387.95 1097.55C2390.32 1096.93 2392.8 1096.5 2395.39 1096.25C2398.43 1095.93 2400.89 1095.64 2402.75 1095.36C2404.61 1095.07 2405.97 1094.64 2406.81 1094.07C2407.65 1093.5 2408.07 1092.66 2408.07 1091.55V1091.34C2408.07 1089.18 2407.39 1087.51 2406.02 1086.33C2404.68 1085.15 2402.77 1084.56 2400.3 1084.56C2397.68 1084.56 2395.6 1085.14 2394.06 1086.3C2392.51 1087.43 2391.49 1088.86 2390.99 1090.59L2377.56 1089.5C2378.24 1086.32 2379.58 1083.57 2381.58 1081.25C2383.58 1078.91 2386.16 1077.11 2389.32 1075.86C2392.5 1074.59 2396.18 1073.95 2400.36 1073.95C2403.27 1073.95 2406.06 1074.3 2408.72 1074.98C2411.4 1075.66 2413.77 1076.72 2415.84 1078.15C2417.93 1079.58 2419.58 1081.42 2420.78 1083.67C2421.99 1085.9 2422.59 1088.57 2422.59 1091.68V1127H2408.82V1119.74H2408.41C2407.57 1121.38 2406.44 1122.82 2405.03 1124.07C2403.62 1125.3 2401.93 1126.26 2399.95 1126.97C2397.98 1127.65 2395.69 1127.99 2393.1 1127.99ZM2397.26 1117.97C2399.4 1117.97 2401.28 1117.55 2402.92 1116.7C2404.56 1115.84 2405.84 1114.68 2406.77 1113.23C2407.7 1111.77 2408.17 1110.12 2408.17 1108.28V1102.73C2407.72 1103.02 2407.09 1103.3 2406.3 1103.55C2405.52 1103.77 2404.65 1103.99 2403.67 1104.19C2402.69 1104.37 2401.72 1104.55 2400.74 1104.7C2399.76 1104.84 2398.88 1104.97 2398.08 1105.08C2396.38 1105.33 2394.89 1105.73 2393.61 1106.27C2392.34 1106.82 2391.35 1107.56 2390.65 1108.49C2389.94 1109.4 2389.59 1110.53 2389.59 1111.9C2389.59 1113.88 2390.31 1115.39 2391.74 1116.43C2393.19 1117.45 2395.03 1117.97 2397.26 1117.97ZM2433.86 1127V1074.64H2447.94V1083.77H2448.48C2449.44 1080.52 2451.04 1078.07 2453.29 1076.41C2455.54 1074.73 2458.13 1073.89 2461.06 1073.89C2461.79 1073.89 2462.57 1073.93 2463.41 1074.02C2464.26 1074.11 2464.99 1074.24 2465.63 1074.4V1087.28C2464.95 1087.08 2464.01 1086.9 2462.8 1086.74C2461.6 1086.58 2460.49 1086.5 2459.49 1086.5C2457.36 1086.5 2455.45 1086.97 2453.77 1087.9C2452.11 1088.81 2450.79 1090.08 2449.81 1091.72C2448.86 1093.35 2448.38 1095.24 2448.38 1097.38V1127H2433.86ZM2494.57 1128.02C2489.18 1128.02 2484.54 1126.93 2480.66 1124.75C2476.79 1122.55 2473.82 1119.43 2471.72 1115.41C2469.63 1111.36 2468.59 1106.58 2468.59 1101.06C2468.59 1095.67 2469.63 1090.94 2471.72 1086.88C2473.82 1082.81 2476.76 1079.64 2480.55 1077.36C2484.37 1075.09 2488.85 1073.95 2493.99 1073.95C2497.44 1073.95 2500.66 1074.51 2503.63 1075.62C2506.63 1076.72 2509.25 1078.36 2511.47 1080.57C2513.72 1082.77 2515.47 1085.55 2516.72 1088.89C2517.97 1092.2 2518.6 1096.09 2518.6 1100.55V1104.53H2474.38V1095.53H2504.93C2504.93 1093.44 2504.47 1091.59 2503.57 1089.98C2502.66 1088.36 2501.39 1087.1 2499.78 1086.19C2498.19 1085.26 2496.34 1084.8 2494.22 1084.8C2492.02 1084.8 2490.07 1085.31 2488.36 1086.33C2486.68 1087.33 2485.36 1088.68 2484.41 1090.39C2483.45 1092.07 2482.96 1093.94 2482.94 1096.01V1104.57C2482.94 1107.16 2483.42 1109.4 2484.37 1111.28C2485.35 1113.17 2486.72 1114.62 2488.5 1115.65C2490.27 1116.67 2492.37 1117.18 2494.8 1117.18C2496.42 1117.18 2497.89 1116.95 2499.24 1116.5C2500.58 1116.05 2501.72 1115.36 2502.68 1114.45C2503.63 1113.55 2504.36 1112.43 2504.86 1111.11L2518.29 1112C2517.61 1115.23 2516.21 1118.05 2514.1 1120.45C2512.01 1122.84 2509.3 1124.7 2505.99 1126.05C2502.69 1127.36 2498.88 1128.02 2494.57 1128.02ZM2573.89 1147.73C2569.18 1147.73 2565.15 1147.08 2561.78 1145.78C2558.44 1144.51 2555.78 1142.77 2553.81 1140.57C2551.83 1138.36 2550.55 1135.89 2549.95 1133.14L2563.39 1131.33C2563.8 1132.38 2564.44 1133.35 2565.33 1134.26C2566.22 1135.17 2567.39 1135.9 2568.84 1136.44C2570.32 1137.01 2572.11 1137.3 2574.23 1137.3C2577.39 1137.3 2579.99 1136.52 2582.03 1134.98C2584.1 1133.45 2585.14 1130.9 2585.14 1127.31V1117.73H2584.52C2583.89 1119.18 2582.93 1120.56 2581.66 1121.85C2580.39 1123.15 2578.75 1124.2 2576.75 1125.02C2574.75 1125.84 2572.36 1126.25 2569.59 1126.25C2565.66 1126.25 2562.08 1125.34 2558.85 1123.52C2555.65 1121.68 2553.09 1118.87 2551.18 1115.1C2549.3 1111.31 2548.35 1106.51 2548.35 1100.72C2548.35 1094.78 2549.32 1089.83 2551.25 1085.85C2553.18 1081.87 2555.75 1078.9 2558.95 1076.92C2562.18 1074.94 2565.72 1073.95 2569.56 1073.95C2572.49 1073.95 2574.94 1074.45 2576.92 1075.45C2578.9 1076.43 2580.49 1077.66 2581.69 1079.14C2582.92 1080.59 2583.86 1082.02 2584.52 1083.43H2585.07V1074.64H2599.49V1127.51C2599.49 1131.97 2598.4 1135.69 2596.22 1138.69C2594.03 1141.69 2591.01 1143.94 2587.15 1145.44C2583.31 1146.97 2578.89 1147.73 2573.89 1147.73ZM2574.19 1115.34C2576.53 1115.34 2578.51 1114.76 2580.12 1113.6C2581.76 1112.42 2583.01 1110.74 2583.88 1108.56C2584.76 1106.35 2585.2 1103.72 2585.2 1100.65C2585.2 1097.58 2584.77 1094.92 2583.91 1092.67C2583.05 1090.4 2581.8 1088.64 2580.16 1087.39C2578.52 1086.14 2576.53 1085.51 2574.19 1085.51C2571.81 1085.51 2569.8 1086.16 2568.16 1087.45C2566.52 1088.73 2565.28 1090.5 2564.44 1092.77C2563.6 1095.05 2563.18 1097.67 2563.18 1100.65C2563.18 1103.67 2563.6 1106.28 2564.44 1108.49C2565.31 1110.67 2566.55 1112.36 2568.16 1113.57C2569.8 1114.75 2571.81 1115.34 2574.19 1115.34ZM2634.91 1128.02C2629.52 1128.02 2624.89 1126.93 2621 1124.75C2617.14 1122.55 2614.16 1119.43 2612.07 1115.41C2609.98 1111.36 2608.93 1106.58 2608.93 1101.06C2608.93 1095.67 2609.98 1090.94 2612.07 1086.88C2614.16 1082.81 2617.1 1079.64 2620.9 1077.36C2624.72 1075.09 2629.19 1073.95 2634.33 1073.95C2637.78 1073.95 2641 1074.51 2643.98 1075.62C2646.98 1076.72 2649.59 1078.36 2651.82 1080.57C2654.07 1082.77 2655.82 1085.55 2657.07 1088.89C2658.32 1092.2 2658.94 1096.09 2658.94 1100.55V1104.53H2614.73V1095.53H2645.27C2645.27 1093.44 2644.82 1091.59 2643.91 1089.98C2643 1088.36 2641.74 1087.1 2640.12 1086.19C2638.53 1085.26 2636.68 1084.8 2634.57 1084.8C2632.36 1084.8 2630.41 1085.31 2628.7 1086.33C2627.02 1087.33 2625.7 1088.68 2624.75 1090.39C2623.8 1092.07 2623.31 1093.94 2623.28 1096.01V1104.57C2623.28 1107.16 2623.76 1109.4 2624.72 1111.28C2625.69 1113.17 2627.07 1114.62 2628.84 1115.65C2630.61 1116.67 2632.72 1117.18 2635.15 1117.18C2636.76 1117.18 2638.24 1116.95 2639.58 1116.5C2640.92 1116.05 2642.07 1115.36 2643.02 1114.45C2643.98 1113.55 2644.7 1112.43 2645.2 1111.11L2658.64 1112C2657.95 1115.23 2656.56 1118.05 2654.44 1120.45C2652.35 1122.84 2649.65 1124.7 2646.33 1126.05C2643.03 1127.36 2639.23 1128.02 2634.91 1128.02ZM2682.94 1096.73V1127H2668.42V1074.64H2682.26V1083.88H2682.88C2684.03 1080.83 2685.98 1078.42 2688.7 1076.65C2691.43 1074.85 2694.74 1073.95 2698.62 1073.95C2702.26 1073.95 2705.43 1074.75 2708.14 1076.34C2710.84 1077.93 2712.94 1080.2 2714.44 1083.16C2715.94 1086.09 2716.69 1089.59 2716.69 1093.66V1127H2702.17V1096.25C2702.19 1093.05 2701.38 1090.55 2699.72 1088.75C2698.06 1086.93 2695.77 1086.02 2692.86 1086.02C2690.91 1086.02 2689.18 1086.44 2687.68 1087.28C2686.2 1088.12 2685.05 1089.35 2684.2 1090.97C2683.39 1092.56 2682.97 1094.48 2682.94 1096.73ZM2752 1128.02C2746.62 1128.02 2741.98 1126.93 2738.09 1124.75C2734.23 1122.55 2731.25 1119.43 2729.16 1115.41C2727.07 1111.36 2726.03 1106.58 2726.03 1101.06C2726.03 1095.67 2727.07 1090.94 2729.16 1086.88C2731.25 1082.81 2734.2 1079.64 2737.99 1077.36C2741.81 1075.09 2746.29 1073.95 2751.42 1073.95C2754.88 1073.95 2758.09 1074.51 2761.07 1075.62C2764.07 1076.72 2766.68 1078.36 2768.91 1080.57C2771.16 1082.77 2772.91 1085.55 2774.16 1088.89C2775.41 1092.2 2776.04 1096.09 2776.04 1100.55V1104.53H2731.82V1095.53H2762.37C2762.37 1093.44 2761.91 1091.59 2761 1089.98C2760.09 1088.36 2758.83 1087.1 2757.22 1086.19C2755.63 1085.26 2753.78 1084.8 2751.66 1084.8C2749.46 1084.8 2747.5 1085.31 2745.8 1086.33C2744.12 1087.33 2742.8 1088.68 2741.84 1090.39C2740.89 1092.07 2740.4 1093.94 2740.38 1096.01V1104.57C2740.38 1107.16 2740.86 1109.4 2741.81 1111.28C2742.79 1113.17 2744.16 1114.62 2745.93 1115.65C2747.71 1116.67 2749.81 1117.18 2752.24 1117.18C2753.86 1117.18 2755.33 1116.95 2756.67 1116.5C2758.01 1116.05 2759.16 1115.36 2760.12 1114.45C2761.07 1113.55 2761.8 1112.43 2762.3 1111.11L2775.73 1112C2775.05 1115.23 2773.65 1118.05 2771.54 1120.45C2769.45 1122.84 2766.74 1124.7 2763.42 1126.05C2760.13 1127.36 2756.32 1128.02 2752 1128.02ZM2785.51 1127V1074.64H2799.59V1083.77H2800.14C2801.09 1080.52 2802.7 1078.07 2804.95 1076.41C2807.2 1074.73 2809.79 1073.89 2812.72 1073.89C2813.45 1073.89 2814.23 1073.93 2815.07 1074.02C2815.91 1074.11 2816.65 1074.24 2817.29 1074.4V1087.28C2816.61 1087.08 2815.66 1086.9 2814.46 1086.74C2813.25 1086.58 2812.15 1086.5 2811.15 1086.5C2809.01 1086.5 2807.11 1086.97 2805.42 1087.9C2803.76 1088.81 2802.45 1090.08 2801.47 1091.72C2800.51 1093.35 2800.04 1095.24 2800.04 1097.38V1127H2785.51ZM2838.23 1127.99C2834.89 1127.99 2831.91 1127.41 2829.3 1126.25C2826.68 1125.07 2824.61 1123.33 2823.09 1121.03C2821.59 1118.72 2820.84 1115.83 2820.84 1112.38C2820.84 1109.47 2821.38 1107.02 2822.44 1105.05C2823.51 1103.07 2824.97 1101.48 2826.81 1100.27C2828.65 1099.07 2830.74 1098.16 2833.08 1097.55C2835.44 1096.93 2837.92 1096.5 2840.51 1096.25C2843.56 1095.93 2846.01 1095.64 2847.88 1095.36C2849.74 1095.07 2851.09 1094.64 2851.93 1094.07C2852.77 1093.5 2853.19 1092.66 2853.19 1091.55V1091.34C2853.19 1089.18 2852.51 1087.51 2851.15 1086.33C2849.81 1085.15 2847.9 1084.56 2845.42 1084.56C2842.81 1084.56 2840.73 1085.14 2839.18 1086.3C2837.64 1087.43 2836.61 1088.86 2836.11 1090.59L2822.68 1089.5C2823.36 1086.32 2824.7 1083.57 2826.7 1081.25C2828.7 1078.91 2831.28 1077.11 2834.44 1075.86C2837.63 1074.59 2841.31 1073.95 2845.49 1073.95C2848.4 1073.95 2851.18 1074.3 2853.84 1074.98C2856.52 1075.66 2858.9 1076.72 2860.97 1078.15C2863.06 1079.58 2864.7 1081.42 2865.91 1083.67C2867.11 1085.9 2867.72 1088.57 2867.72 1091.68V1127H2853.94V1119.74H2853.53C2852.69 1121.38 2851.57 1122.82 2850.16 1124.07C2848.75 1125.3 2847.06 1126.26 2845.08 1126.97C2843.1 1127.65 2840.82 1127.99 2838.23 1127.99ZM2842.39 1117.97C2844.52 1117.97 2846.41 1117.55 2848.05 1116.7C2849.68 1115.84 2850.97 1114.68 2851.9 1113.23C2852.83 1111.77 2853.3 1110.12 2853.3 1108.28V1102.73C2852.84 1103.02 2852.22 1103.3 2851.42 1103.55C2850.65 1103.77 2849.77 1103.99 2848.8 1104.19C2847.82 1104.37 2846.84 1104.55 2845.86 1104.7C2844.89 1104.84 2844 1104.97 2843.2 1105.08C2841.5 1105.33 2840.01 1105.73 2838.74 1106.27C2837.47 1106.82 2836.48 1107.56 2835.77 1108.49C2835.07 1109.4 2834.72 1110.53 2834.72 1111.9C2834.72 1113.88 2835.43 1115.39 2836.86 1116.43C2838.32 1117.45 2840.16 1117.97 2842.39 1117.97ZM2906.84 1074.64V1085.55H2875.3V1074.64H2906.84ZM2882.46 1062.09H2896.98V1110.91C2896.98 1112.25 2897.19 1113.3 2897.6 1114.05C2898.01 1114.77 2898.57 1115.28 2899.3 1115.58C2900.05 1115.87 2900.91 1116.02 2901.89 1116.02C2902.57 1116.02 2903.26 1115.97 2903.94 1115.85C2904.62 1115.72 2905.14 1115.61 2905.51 1115.55L2907.79 1126.35C2907.06 1126.58 2906.04 1126.84 2904.72 1127.14C2903.4 1127.45 2901.8 1127.65 2899.91 1127.72C2896.41 1127.85 2893.35 1127.39 2890.71 1126.32C2888.1 1125.25 2886.06 1123.59 2884.61 1121.34C2883.15 1119.09 2882.44 1116.25 2882.46 1112.82V1062.09ZM2939.6 1128.02C2934.21 1128.02 2929.57 1126.93 2925.69 1124.75C2921.82 1122.55 2918.85 1119.43 2916.76 1115.41C2914.66 1111.36 2913.62 1106.58 2913.62 1101.06C2913.62 1095.67 2914.66 1090.94 2916.76 1086.88C2918.85 1082.81 2921.79 1079.64 2925.59 1077.36C2929.4 1075.09 2933.88 1073.95 2939.02 1073.95C2942.47 1073.95 2945.69 1074.51 2948.66 1075.62C2951.66 1076.72 2954.28 1078.36 2956.51 1080.57C2958.76 1082.77 2960.51 1085.55 2961.76 1088.89C2963.01 1092.2 2963.63 1096.09 2963.63 1100.55V1104.53H2919.41V1095.53H2949.96C2949.96 1093.44 2949.51 1091.59 2948.6 1089.98C2947.69 1088.36 2946.43 1087.1 2944.81 1086.19C2943.22 1085.26 2941.37 1084.8 2939.26 1084.8C2937.05 1084.8 2935.1 1085.31 2933.39 1086.33C2931.71 1087.33 2930.39 1088.68 2929.44 1090.39C2928.48 1092.07 2927.99 1093.94 2927.97 1096.01V1104.57C2927.97 1107.16 2928.45 1109.4 2929.4 1111.28C2930.38 1113.17 2931.76 1114.62 2933.53 1115.65C2935.3 1116.67 2937.4 1117.18 2939.84 1117.18C2941.45 1117.18 2942.93 1116.95 2944.27 1116.5C2945.61 1116.05 2946.76 1115.36 2947.71 1114.45C2948.66 1113.55 2949.39 1112.43 2949.89 1111.11L2963.32 1112C2962.64 1115.23 2961.24 1118.05 2959.13 1120.45C2957.04 1122.84 2954.34 1124.7 2951.02 1126.05C2947.72 1127.36 2943.91 1128.02 2939.6 1128.02ZM2992.4 1127.85C2988.43 1127.85 2984.82 1126.83 2981.6 1124.78C2978.39 1122.72 2975.85 1119.68 2973.96 1115.68C2972.1 1111.66 2971.16 1106.73 2971.16 1100.89C2971.16 1094.89 2972.13 1089.9 2974.06 1085.92C2975.99 1081.92 2978.56 1078.93 2981.77 1076.95C2984.99 1074.95 2988.53 1073.95 2992.37 1073.95C2995.3 1073.95 2997.74 1074.45 2999.7 1075.45C3001.68 1076.43 3003.27 1077.66 3004.47 1079.14C3005.7 1080.59 3006.63 1082.02 3007.27 1083.43H3007.71V1057.18H3022.2V1127H3007.88V1118.61H3007.27C3006.59 1120.07 3005.62 1121.51 3004.37 1122.94C3003.14 1124.35 3001.54 1125.52 2999.56 1126.45C2997.61 1127.39 2995.22 1127.85 2992.4 1127.85ZM2997.01 1116.3C2999.35 1116.3 3001.32 1115.66 3002.94 1114.39C3004.57 1113.09 3005.82 1111.28 3006.69 1108.97C3007.57 1106.65 3008.02 1103.93 3008.02 1100.82C3008.02 1097.7 3007.59 1095 3006.72 1092.7C3005.86 1090.41 3004.61 1088.64 3002.97 1087.39C3001.34 1086.14 2999.35 1085.51 2997.01 1085.51C2994.62 1085.51 2992.61 1086.16 2990.97 1087.45C2989.34 1088.75 2988.1 1090.55 2987.26 1092.84C2986.41 1095.14 2985.99 1097.8 2985.99 1100.82C2985.99 1103.86 2986.41 1106.56 2987.26 1108.9C2988.12 1111.22 2989.36 1113.03 2990.97 1114.35C2992.61 1115.65 2994.62 1116.3 2997.01 1116.3ZM3056.63 1127V1057.18H3071.15V1083.43H3071.6C3072.23 1082.02 3073.15 1080.59 3074.36 1079.14C3075.59 1077.66 3077.18 1076.43 3079.13 1075.45C3081.11 1074.45 3083.56 1073.95 3086.49 1073.95C3090.31 1073.95 3093.84 1074.95 3097.06 1076.95C3100.29 1078.93 3102.87 1081.92 3104.8 1085.92C3106.73 1089.9 3107.7 1094.89 3107.7 1100.89C3107.7 1106.73 3106.76 1111.66 3104.87 1115.68C3103.01 1119.68 3100.46 1122.72 3097.23 1124.78C3094.03 1126.83 3090.44 1127.85 3086.46 1127.85C3083.64 1127.85 3081.24 1127.39 3079.27 1126.45C3077.31 1125.52 3075.71 1124.35 3074.46 1122.94C3073.21 1121.51 3072.26 1120.07 3071.6 1118.61H3070.95V1127H3056.63ZM3070.85 1100.82C3070.85 1103.93 3071.28 1106.65 3072.14 1108.97C3073.01 1111.28 3074.26 1113.09 3075.89 1114.39C3077.53 1115.66 3079.52 1116.3 3081.86 1116.3C3084.22 1116.3 3086.22 1115.65 3087.86 1114.35C3089.49 1113.03 3090.73 1111.22 3091.57 1108.9C3092.44 1106.56 3092.87 1103.86 3092.87 1100.82C3092.87 1097.8 3092.45 1095.14 3091.61 1092.84C3090.77 1090.55 3089.53 1088.75 3087.89 1087.45C3086.26 1086.16 3084.24 1085.51 3081.86 1085.51C3079.49 1085.51 3077.49 1086.14 3075.86 1087.39C3074.24 1088.64 3073.01 1090.41 3072.14 1092.7C3071.28 1095 3070.85 1097.7 3070.85 1100.82ZM3132.32 1127.99C3128.98 1127.99 3126 1127.41 3123.39 1126.25C3120.78 1125.07 3118.71 1123.33 3117.18 1121.03C3115.68 1118.72 3114.93 1115.83 3114.93 1112.38C3114.93 1109.47 3115.47 1107.02 3116.54 1105.05C3117.61 1103.07 3119.06 1101.48 3120.9 1100.27C3122.74 1099.07 3124.83 1098.16 3127.17 1097.55C3129.54 1096.93 3132.01 1096.5 3134.61 1096.25C3137.65 1095.93 3140.11 1095.64 3141.97 1095.36C3143.83 1095.07 3145.18 1094.64 3146.03 1094.07C3146.87 1093.5 3147.29 1092.66 3147.29 1091.55V1091.34C3147.29 1089.18 3146.61 1087.51 3145.24 1086.33C3143.9 1085.15 3141.99 1084.56 3139.51 1084.56C3136.9 1084.56 3134.82 1085.14 3133.28 1086.3C3131.73 1087.43 3130.71 1088.86 3130.21 1090.59L3116.78 1089.5C3117.46 1086.32 3118.8 1083.57 3120.8 1081.25C3122.8 1078.91 3125.38 1077.11 3128.54 1075.86C3131.72 1074.59 3135.4 1073.95 3139.58 1073.95C3142.49 1073.95 3145.28 1074.3 3147.93 1074.98C3150.62 1075.66 3152.99 1076.72 3155.06 1078.15C3157.15 1079.58 3158.8 1081.42 3160 1083.67C3161.21 1085.9 3161.81 1088.57 3161.81 1091.68V1127H3148.04V1119.74H3147.63C3146.79 1121.38 3145.66 1122.82 3144.25 1124.07C3142.84 1125.3 3141.15 1126.26 3139.17 1126.97C3137.2 1127.65 3134.91 1127.99 3132.32 1127.99ZM3136.48 1117.97C3138.62 1117.97 3140.5 1117.55 3142.14 1116.7C3143.78 1115.84 3145.06 1114.68 3145.99 1113.23C3146.92 1111.77 3147.39 1110.12 3147.39 1108.28V1102.73C3146.93 1103.02 3146.31 1103.3 3145.51 1103.55C3144.74 1103.77 3143.87 1103.99 3142.89 1104.19C3141.91 1104.37 3140.93 1104.55 3139.96 1104.7C3138.98 1104.84 3138.09 1104.97 3137.3 1105.08C3135.59 1105.33 3134.11 1105.73 3132.83 1106.27C3131.56 1106.82 3130.57 1107.56 3129.87 1108.49C3129.16 1109.4 3128.81 1110.53 3128.81 1111.9C3128.81 1113.88 3129.53 1115.39 3130.96 1116.43C3132.41 1117.45 3134.25 1117.97 3136.48 1117.97ZM3216.64 1089.57L3203.35 1090.39C3203.12 1089.25 3202.63 1088.23 3201.88 1087.32C3201.13 1086.39 3200.14 1085.65 3198.92 1085.1C3197.71 1084.53 3196.27 1084.25 3194.59 1084.25C3192.34 1084.25 3190.44 1084.73 3188.89 1085.68C3187.35 1086.61 3186.58 1087.86 3186.58 1089.43C3186.58 1090.68 3187.08 1091.74 3188.08 1092.6C3189.08 1093.47 3190.79 1094.16 3193.22 1094.68L3202.7 1096.59C3207.79 1097.64 3211.59 1099.32 3214.09 1101.64C3216.59 1103.95 3217.84 1107 3217.84 1110.77C3217.84 1114.2 3216.83 1117.22 3214.8 1119.81C3212.8 1122.4 3210.05 1124.42 3206.55 1125.88C3203.08 1127.31 3199.07 1128.02 3194.52 1128.02C3187.59 1128.02 3182.07 1126.58 3177.95 1123.69C3173.86 1120.78 3171.46 1116.83 3170.76 1111.83L3185.04 1111.08C3185.47 1113.19 3186.52 1114.81 3188.18 1115.92C3189.84 1117.01 3191.96 1117.56 3194.55 1117.56C3197.1 1117.56 3199.14 1117.07 3200.69 1116.09C3202.26 1115.09 3203.05 1113.81 3203.08 1112.24C3203.05 1110.92 3202.5 1109.84 3201.41 1109C3200.32 1108.14 3198.63 1107.48 3196.36 1107.02L3187.29 1105.22C3182.18 1104.19 3178.37 1102.42 3175.87 1099.9C3173.39 1097.37 3172.16 1094.16 3172.16 1090.25C3172.16 1086.89 3173.07 1083.99 3174.88 1081.56C3176.72 1079.12 3179.3 1077.25 3182.62 1075.93C3185.96 1074.61 3189.87 1073.95 3194.35 1073.95C3200.96 1073.95 3206.17 1075.35 3209.96 1078.15C3213.78 1080.94 3216.01 1084.75 3216.64 1089.57ZM3250.85 1128.02C3245.46 1128.02 3240.82 1126.93 3236.94 1124.75C3233.07 1122.55 3230.1 1119.43 3228.01 1115.41C3225.91 1111.36 3224.87 1106.58 3224.87 1101.06C3224.87 1095.67 3225.91 1090.94 3228.01 1086.88C3230.1 1082.81 3233.04 1079.64 3236.84 1077.36C3240.65 1075.09 3245.13 1073.95 3250.27 1073.95C3253.72 1073.95 3256.94 1074.51 3259.91 1075.62C3262.91 1076.72 3265.53 1078.36 3267.76 1080.57C3270.01 1082.77 3271.76 1085.55 3273.01 1088.89C3274.26 1092.2 3274.88 1096.09 3274.88 1100.55V1104.53H3230.66V1095.53H3261.21C3261.21 1093.44 3260.76 1091.59 3259.85 1089.98C3258.94 1088.36 3257.68 1087.1 3256.06 1086.19C3254.47 1085.26 3252.62 1084.8 3250.51 1084.8C3248.3 1084.8 3246.35 1085.31 3244.64 1086.33C3242.96 1087.33 3241.64 1088.68 3240.69 1090.39C3239.73 1092.07 3239.24 1093.94 3239.22 1096.01V1104.57C3239.22 1107.16 3239.7 1109.4 3240.65 1111.28C3241.63 1113.17 3243.01 1114.62 3244.78 1115.65C3246.55 1116.67 3248.65 1117.18 3251.09 1117.18C3252.7 1117.18 3254.18 1116.95 3255.52 1116.5C3256.86 1116.05 3258.01 1115.36 3258.96 1114.45C3259.91 1113.55 3260.64 1112.43 3261.14 1111.11L3274.57 1112C3273.89 1115.23 3272.49 1118.05 3270.38 1120.45C3268.29 1122.84 3265.59 1124.7 3262.27 1126.05C3258.97 1127.36 3255.16 1128.02 3250.85 1128.02ZM3303.65 1127.85C3299.68 1127.85 3296.07 1126.83 3292.85 1124.78C3289.64 1122.72 3287.1 1119.68 3285.21 1115.68C3283.35 1111.66 3282.41 1106.73 3282.41 1100.89C3282.41 1094.89 3283.38 1089.9 3285.31 1085.92C3287.24 1081.92 3289.81 1078.93 3293.02 1076.95C3296.24 1074.95 3299.78 1073.95 3303.62 1073.95C3306.55 1073.95 3308.99 1074.45 3310.95 1075.45C3312.93 1076.43 3314.52 1077.66 3315.72 1079.14C3316.95 1080.59 3317.88 1082.02 3318.52 1083.43H3318.96V1057.18H3333.45V1127H3319.13V1118.61H3318.52C3317.84 1120.07 3316.87 1121.51 3315.62 1122.94C3314.39 1124.35 3312.79 1125.52 3310.81 1126.45C3308.86 1127.39 3306.47 1127.85 3303.65 1127.85ZM3308.26 1116.3C3310.6 1116.3 3312.57 1115.66 3314.19 1114.39C3315.82 1113.09 3317.07 1111.28 3317.94 1108.97C3318.82 1106.65 3319.27 1103.93 3319.27 1100.82C3319.27 1097.7 3318.84 1095 3317.97 1092.7C3317.11 1090.41 3315.86 1088.64 3314.22 1087.39C3312.59 1086.14 3310.6 1085.51 3308.26 1085.51C3305.87 1085.51 3303.86 1086.16 3302.22 1087.45C3300.59 1088.75 3299.35 1090.55 3298.51 1092.84C3297.66 1095.14 3297.24 1097.8 3297.24 1100.82C3297.24 1103.86 3297.66 1106.56 3298.51 1108.9C3299.37 1111.22 3300.61 1113.03 3302.22 1114.35C3303.86 1115.65 3305.87 1116.3 3308.26 1116.3ZM3391.27 1128.02C3385.97 1128.02 3381.39 1126.9 3377.53 1124.65C3373.69 1122.37 3370.72 1119.22 3368.63 1115.17C3366.54 1111.1 3365.49 1106.39 3365.49 1101.02C3365.49 1095.61 3366.54 1090.89 3368.63 1086.84C3370.72 1082.77 3373.69 1079.61 3377.53 1077.36C3381.39 1075.09 3385.97 1073.95 3391.27 1073.95C3396.56 1073.95 3401.13 1075.09 3404.97 1077.36C3408.84 1079.61 3411.81 1082.77 3413.9 1086.84C3415.99 1090.89 3417.04 1095.61 3417.04 1101.02C3417.04 1106.39 3415.99 1111.1 3413.9 1115.17C3411.81 1119.22 3408.84 1122.37 3404.97 1124.65C3401.13 1126.9 3396.56 1128.02 3391.27 1128.02ZM3391.34 1116.77C3393.74 1116.77 3395.76 1116.09 3397.37 1114.73C3398.98 1113.34 3400.2 1111.45 3401.02 1109.07C3401.86 1106.68 3402.28 1103.97 3402.28 1100.92C3402.28 1097.88 3401.86 1095.16 3401.02 1092.77C3400.2 1090.39 3398.98 1088.5 3397.37 1087.11C3395.76 1085.73 3393.74 1085.03 3391.34 1085.03C3388.9 1085.03 3386.86 1085.73 3385.2 1087.11C3383.56 1088.5 3382.32 1090.39 3381.48 1092.77C3380.66 1095.16 3380.26 1097.88 3380.26 1100.92C3380.26 1103.97 3380.66 1106.68 3381.48 1109.07C3382.32 1111.45 3383.56 1113.34 3385.2 1114.73C3386.86 1116.09 3388.9 1116.77 3391.34 1116.77ZM3441.01 1096.73V1127H3426.48V1074.64H3440.32V1083.88H3440.94C3442.1 1080.83 3444.04 1078.42 3446.77 1076.65C3449.49 1074.85 3452.8 1073.95 3456.69 1073.95C3460.32 1073.95 3463.49 1074.75 3466.2 1076.34C3468.9 1077.93 3471.01 1080.2 3472.51 1083.16C3474.01 1086.09 3474.76 1089.59 3474.76 1093.66V1127H3460.23V1096.25C3460.26 1093.05 3459.44 1090.55 3457.78 1088.75C3456.12 1086.93 3453.84 1086.02 3450.93 1086.02C3448.97 1086.02 3447.24 1086.44 3445.74 1087.28C3444.27 1088.12 3443.11 1089.35 3442.27 1090.97C3441.45 1092.56 3441.03 1094.48 3441.01 1096.73ZM3542 1104.7V1074.64H3556.52V1127H3542.58V1117.49H3542.03C3540.85 1120.56 3538.89 1123.02 3536.14 1124.89C3533.41 1126.75 3530.08 1127.68 3526.15 1127.68C3522.65 1127.68 3519.57 1126.89 3516.91 1125.3C3514.25 1123.7 3512.17 1121.44 3510.67 1118.51C3509.19 1115.58 3508.44 1112.07 3508.42 1107.98V1074.64H3522.94V1105.39C3522.97 1108.48 3523.8 1110.92 3525.43 1112.72C3527.07 1114.51 3529.26 1115.41 3532.01 1115.41C3533.76 1115.41 3535.4 1115.01 3536.92 1114.22C3538.44 1113.4 3539.67 1112.19 3540.6 1110.6C3541.56 1109.01 3542.02 1107.05 3542 1104.7ZM3611.71 1089.57L3598.41 1090.39C3598.18 1089.25 3597.7 1088.23 3596.95 1087.32C3596.2 1086.39 3595.21 1085.65 3593.98 1085.1C3592.78 1084.53 3591.33 1084.25 3589.65 1084.25C3587.4 1084.25 3585.5 1084.73 3583.96 1085.68C3582.41 1086.61 3581.64 1087.86 3581.64 1089.43C3581.64 1090.68 3582.14 1091.74 3583.14 1092.6C3584.14 1093.47 3585.86 1094.16 3588.29 1094.68L3597.76 1096.59C3602.86 1097.64 3606.65 1099.32 3609.15 1101.64C3611.65 1103.95 3612.9 1107 3612.9 1110.77C3612.9 1114.2 3611.89 1117.22 3609.87 1119.81C3607.87 1122.4 3605.12 1124.42 3601.62 1125.88C3598.14 1127.31 3594.13 1128.02 3589.58 1128.02C3582.65 1128.02 3577.13 1126.58 3573.01 1123.69C3568.92 1120.78 3566.53 1116.83 3565.82 1111.83L3580.11 1111.08C3580.54 1113.19 3581.58 1114.81 3583.24 1115.92C3584.9 1117.01 3587.03 1117.56 3589.62 1117.56C3592.16 1117.56 3594.21 1117.07 3595.75 1116.09C3597.32 1115.09 3598.12 1113.81 3598.14 1112.24C3598.12 1110.92 3597.56 1109.84 3596.47 1109C3595.38 1108.14 3593.7 1107.48 3591.42 1107.02L3582.36 1105.22C3577.24 1104.19 3573.43 1102.42 3570.93 1099.9C3568.46 1097.37 3567.22 1094.16 3567.22 1090.25C3567.22 1086.89 3568.13 1083.99 3569.95 1081.56C3571.79 1079.12 3574.37 1077.25 3577.68 1075.93C3581.03 1074.61 3584.93 1073.95 3589.41 1073.95C3596.03 1073.95 3601.23 1075.35 3605.03 1078.15C3608.84 1080.94 3611.07 1084.75 3611.71 1089.57ZM3645.91 1128.02C3640.52 1128.02 3635.89 1126.93 3632 1124.75C3628.14 1122.55 3625.16 1119.43 3623.07 1115.41C3620.98 1111.36 3619.93 1106.58 3619.93 1101.06C3619.93 1095.67 3620.98 1090.94 3623.07 1086.88C3625.16 1082.81 3628.1 1079.64 3631.9 1077.36C3635.72 1075.09 3640.19 1073.95 3645.33 1073.95C3648.78 1073.95 3652 1074.51 3654.98 1075.62C3657.98 1076.72 3660.59 1078.36 3662.82 1080.57C3665.07 1082.77 3666.82 1085.55 3668.07 1088.89C3669.32 1092.2 3669.94 1096.09 3669.94 1100.55V1104.53H3625.73V1095.53H3656.27C3656.27 1093.44 3655.82 1091.59 3654.91 1089.98C3654 1088.36 3652.74 1087.1 3651.12 1086.19C3649.53 1085.26 3647.68 1084.8 3645.57 1084.8C3643.36 1084.8 3641.41 1085.31 3639.7 1086.33C3638.02 1087.33 3636.7 1088.68 3635.75 1090.39C3634.8 1092.07 3634.31 1093.94 3634.28 1096.01V1104.57C3634.28 1107.16 3634.76 1109.4 3635.72 1111.28C3636.69 1113.17 3638.07 1114.62 3639.84 1115.65C3641.61 1116.67 3643.72 1117.18 3646.15 1117.18C3647.76 1117.18 3649.24 1116.95 3650.58 1116.5C3651.92 1116.05 3653.07 1115.36 3654.02 1114.45C3654.98 1113.55 3655.7 1112.43 3656.2 1111.11L3669.64 1112C3668.95 1115.23 3667.56 1118.05 3665.44 1120.45C3663.35 1122.84 3660.65 1124.7 3657.33 1126.05C3654.03 1127.36 3650.23 1128.02 3645.91 1128.02ZM3679.42 1127V1074.64H3693.5V1083.77H3694.05C3695 1080.52 3696.6 1078.07 3698.85 1076.41C3701.1 1074.73 3703.69 1073.89 3706.62 1073.89C3707.35 1073.89 3708.14 1073.93 3708.98 1074.02C3709.82 1074.11 3710.56 1074.24 3711.19 1074.4V1087.28C3710.51 1087.08 3709.57 1086.9 3708.36 1086.74C3707.16 1086.58 3706.06 1086.5 3705.06 1086.5C3702.92 1086.5 3701.01 1086.97 3699.33 1087.9C3697.67 1088.81 3696.35 1090.08 3695.38 1091.72C3694.42 1093.35 3693.94 1095.24 3693.94 1097.38V1127H3679.42ZM3768.77 1074.64V1085.55H3737.24V1074.64H3768.77ZM3744.4 1062.09H3758.92V1110.91C3758.92 1112.25 3759.13 1113.3 3759.53 1114.05C3759.94 1114.77 3760.51 1115.28 3761.24 1115.58C3761.99 1115.87 3762.85 1116.02 3763.83 1116.02C3764.51 1116.02 3765.19 1115.97 3765.88 1115.85C3766.56 1115.72 3767.08 1115.61 3767.44 1115.55L3769.73 1126.35C3769 1126.58 3767.98 1126.84 3766.66 1127.14C3765.34 1127.45 3763.74 1127.65 3761.85 1127.72C3758.35 1127.85 3755.28 1127.39 3752.65 1126.32C3750.03 1125.25 3748 1123.59 3746.55 1121.34C3745.09 1119.09 3744.38 1116.25 3744.4 1112.82V1062.09ZM3801.53 1128.02C3796.15 1128.02 3791.51 1126.93 3787.62 1124.75C3783.76 1122.55 3780.78 1119.43 3778.69 1115.41C3776.6 1111.36 3775.56 1106.58 3775.56 1101.06C3775.56 1095.67 3776.6 1090.94 3778.69 1086.88C3780.78 1082.81 3783.73 1079.64 3787.52 1077.36C3791.34 1075.09 3795.82 1073.95 3800.95 1073.95C3804.41 1073.95 3807.63 1074.51 3810.6 1075.62C3813.6 1076.72 3816.22 1078.36 3818.44 1080.57C3820.69 1082.77 3822.44 1085.55 3823.69 1088.89C3824.94 1092.2 3825.57 1096.09 3825.57 1100.55V1104.53H3781.35V1095.53H3811.9C3811.9 1093.44 3811.44 1091.59 3810.53 1089.98C3809.63 1088.36 3808.36 1087.1 3806.75 1086.19C3805.16 1085.26 3803.31 1084.8 3801.19 1084.8C3798.99 1084.8 3797.03 1085.31 3795.33 1086.33C3793.65 1087.33 3792.33 1088.68 3791.38 1090.39C3790.42 1092.07 3789.93 1093.94 3789.91 1096.01V1104.57C3789.91 1107.16 3790.39 1109.4 3791.34 1111.28C3792.32 1113.17 3793.69 1114.62 3795.47 1115.65C3797.24 1116.67 3799.34 1117.18 3801.77 1117.18C3803.39 1117.18 3804.86 1116.95 3806.2 1116.5C3807.55 1116.05 3808.69 1115.36 3809.65 1114.45C3810.6 1113.55 3811.33 1112.43 3811.83 1111.11L3825.26 1112C3824.58 1115.23 3823.18 1118.05 3821.07 1120.45C3818.98 1122.84 3816.27 1124.7 3812.95 1126.05C3809.66 1127.36 3805.85 1128.02 3801.53 1128.02ZM3849.57 1096.73V1127H3835.05V1074.64H3848.89V1083.88H3849.5C3850.66 1080.83 3852.6 1078.42 3855.33 1076.65C3858.06 1074.85 3861.36 1073.95 3865.25 1073.95C3868.89 1073.95 3872.06 1074.75 3874.76 1076.34C3877.47 1077.93 3879.57 1080.2 3881.07 1083.16C3882.57 1086.09 3883.32 1089.59 3883.32 1093.66V1127H3868.8V1096.25C3868.82 1093.05 3868 1090.55 3866.34 1088.75C3864.68 1086.93 3862.4 1086.02 3859.49 1086.02C3857.53 1086.02 3855.81 1086.44 3854.31 1087.28C3852.83 1088.12 3851.67 1089.35 3850.83 1090.97C3850.01 1092.56 3849.59 1094.48 3849.57 1096.73ZM3914.06 1127.85C3910.08 1127.85 3906.48 1126.83 3903.25 1124.78C3900.05 1122.72 3897.5 1119.68 3895.62 1115.68C3893.75 1111.66 3892.82 1106.73 3892.82 1100.89C3892.82 1094.89 3893.79 1089.9 3895.72 1085.92C3897.65 1081.92 3900.22 1078.93 3903.42 1076.95C3906.65 1074.95 3910.18 1073.95 3914.03 1073.95C3916.96 1073.95 3919.4 1074.45 3921.36 1075.45C3923.33 1076.43 3924.92 1077.66 3926.13 1079.14C3927.36 1080.59 3928.29 1082.02 3928.92 1083.43H3929.37V1057.18H3943.86V1127H3929.54V1118.61H3928.92C3928.24 1120.07 3927.28 1121.51 3926.03 1122.94C3924.8 1124.35 3923.2 1125.52 3921.22 1126.45C3919.26 1127.39 3916.88 1127.85 3914.06 1127.85ZM3918.66 1116.3C3921 1116.3 3922.98 1115.66 3924.59 1114.39C3926.23 1113.09 3927.48 1111.28 3928.34 1108.97C3929.23 1106.65 3929.67 1103.93 3929.67 1100.82C3929.67 1097.7 3929.24 1095 3928.38 1092.7C3927.51 1090.41 3926.26 1088.64 3924.63 1087.39C3922.99 1086.14 3921 1085.51 3918.66 1085.51C3916.28 1085.51 3914.26 1086.16 3912.63 1087.45C3910.99 1088.75 3909.75 1090.55 3908.91 1092.84C3908.07 1095.14 3907.65 1097.8 3907.65 1100.82C3907.65 1103.86 3908.07 1106.56 3908.91 1108.9C3909.78 1111.22 3911.01 1113.03 3912.63 1114.35C3914.26 1115.65 3916.28 1116.3 3918.66 1116.3ZM3979.66 1128.02C3974.27 1128.02 3969.64 1126.93 3965.75 1124.75C3961.89 1122.55 3958.91 1119.43 3956.82 1115.41C3954.73 1111.36 3953.68 1106.58 3953.68 1101.06C3953.68 1095.67 3954.73 1090.94 3956.82 1086.88C3958.91 1082.81 3961.85 1079.64 3965.65 1077.36C3969.47 1075.09 3973.94 1073.95 3979.08 1073.95C3982.53 1073.95 3985.75 1074.51 3988.73 1075.62C3991.73 1076.72 3994.34 1078.36 3996.57 1080.57C3998.82 1082.77 4000.57 1085.55 4001.82 1088.89C4003.07 1092.2 4003.69 1096.09 4003.69 1100.55V1104.53H3959.48V1095.53H3990.02C3990.02 1093.44 3989.57 1091.59 3988.66 1089.98C3987.75 1088.36 3986.49 1087.1 3984.88 1086.19C3983.28 1085.26 3981.43 1084.8 3979.32 1084.8C3977.11 1084.8 3975.16 1085.31 3973.45 1086.33C3971.77 1087.33 3970.45 1088.68 3969.5 1090.39C3968.55 1092.07 3968.06 1093.94 3968.03 1096.01V1104.57C3968.03 1107.16 3968.51 1109.4 3969.47 1111.28C3970.44 1113.17 3971.82 1114.62 3973.59 1115.65C3975.36 1116.67 3977.47 1117.18 3979.9 1117.18C3981.51 1117.18 3982.99 1116.95 3984.33 1116.5C3985.67 1116.05 3986.82 1115.36 3987.77 1114.45C3988.73 1113.55 3989.45 1112.43 3989.95 1111.11L4003.39 1112C4002.7 1115.23 4001.31 1118.05 3999.19 1120.45C3997.1 1122.84 3994.4 1124.7 3991.08 1126.05C3987.78 1127.36 3983.98 1128.02 3979.66 1128.02ZM4027.69 1096.73V1127H4013.17V1074.64H4027.01V1083.88H4027.62C4028.78 1080.83 4030.73 1078.42 4033.45 1076.65C4036.18 1074.85 4039.49 1073.95 4043.38 1073.95C4047.01 1073.95 4050.18 1074.75 4052.89 1076.34C4055.59 1077.93 4057.69 1080.2 4059.19 1083.16C4060.69 1086.09 4061.44 1089.59 4061.44 1093.66V1127H4046.92V1096.25C4046.94 1093.05 4046.13 1090.55 4044.47 1088.75C4042.81 1086.93 4040.52 1086.02 4037.61 1086.02C4035.66 1086.02 4033.93 1086.44 4032.43 1087.28C4030.95 1088.12 4029.8 1089.35 4028.95 1090.97C4028.14 1092.56 4027.72 1094.48 4027.69 1096.73ZM4096.55 1128.02C4091.18 1128.02 4086.57 1126.89 4082.71 1124.61C4078.87 1122.32 4075.91 1119.14 4073.84 1115.07C4071.8 1111 4070.78 1106.32 4070.78 1101.02C4070.78 1095.66 4071.81 1090.95 4073.88 1086.91C4075.97 1082.84 4078.93 1079.67 4082.78 1077.4C4086.62 1075.1 4091.18 1073.95 4096.48 1073.95C4101.05 1073.95 4105.05 1074.78 4108.48 1076.44C4111.91 1078.1 4114.63 1080.43 4116.63 1083.43C4118.63 1086.43 4119.73 1089.95 4119.93 1094H4106.23C4105.84 1091.39 4104.82 1089.28 4103.16 1087.69C4101.53 1086.08 4099.38 1085.27 4096.72 1085.27C4094.47 1085.27 4092.5 1085.89 4090.82 1087.11C4089.16 1088.32 4087.87 1090.08 4086.93 1092.4C4086 1094.72 4085.54 1097.52 4085.54 1100.82C4085.54 1104.16 4085.99 1107 4086.9 1109.34C4087.83 1111.68 4089.14 1113.47 4090.82 1114.69C4092.5 1115.92 4094.47 1116.53 4096.72 1116.53C4098.38 1116.53 4099.87 1116.19 4101.18 1115.51C4102.53 1114.83 4103.63 1113.84 4104.49 1112.55C4105.38 1111.23 4105.96 1109.65 4106.23 1107.81H4119.93C4119.71 1111.81 4118.62 1115.33 4116.66 1118.38C4114.73 1121.4 4112.06 1123.76 4108.65 1125.47C4105.24 1127.17 4101.21 1128.02 4096.55 1128.02ZM4129.23 1127V1074.64H4143.76V1127H4129.23ZM4136.53 1067.89C4134.37 1067.89 4132.52 1067.17 4130.97 1065.74C4129.45 1064.28 4128.69 1062.55 4128.69 1060.52C4128.69 1058.52 4129.45 1056.81 4130.97 1055.38C4132.52 1053.92 4134.37 1053.19 4136.53 1053.19C4138.69 1053.19 4140.53 1053.92 4142.05 1055.38C4143.6 1056.81 4144.37 1058.52 4144.37 1060.52C4144.37 1062.55 4143.6 1064.28 4142.05 1065.74C4140.53 1067.17 4138.69 1067.89 4136.53 1067.89ZM4179.25 1128.02C4173.87 1128.02 4169.23 1126.93 4165.34 1124.75C4161.48 1122.55 4158.5 1119.43 4156.41 1115.41C4154.32 1111.36 4153.28 1106.58 4153.28 1101.06C4153.28 1095.67 4154.32 1090.94 4156.41 1086.88C4158.5 1082.81 4161.45 1079.64 4165.24 1077.36C4169.06 1075.09 4173.54 1073.95 4178.67 1073.95C4182.13 1073.95 4185.34 1074.51 4188.32 1075.62C4191.32 1076.72 4193.93 1078.36 4196.16 1080.57C4198.41 1082.77 4200.16 1085.55 4201.41 1088.89C4202.66 1092.2 4203.29 1096.09 4203.29 1100.55V1104.53H4159.07V1095.53H4189.62C4189.62 1093.44 4189.16 1091.59 4188.25 1089.98C4187.34 1088.36 4186.08 1087.1 4184.47 1086.19C4182.88 1085.26 4181.03 1084.8 4178.91 1084.8C4176.71 1084.8 4174.75 1085.31 4173.05 1086.33C4171.37 1087.33 4170.05 1088.68 4169.09 1090.39C4168.14 1092.07 4167.65 1093.94 4167.63 1096.01V1104.57C4167.63 1107.16 4168.11 1109.4 4169.06 1111.28C4170.04 1113.17 4171.41 1114.62 4173.18 1115.65C4174.96 1116.67 4177.06 1117.18 4179.49 1117.18C4181.11 1117.18 4182.58 1116.95 4183.92 1116.5C4185.26 1116.05 4186.41 1115.36 4187.37 1114.45C4188.32 1113.55 4189.05 1112.43 4189.55 1111.11L4202.98 1112C4202.3 1115.23 4200.9 1118.05 4198.79 1120.45C4196.7 1122.84 4193.99 1124.7 4190.67 1126.05C4187.38 1127.36 4183.57 1128.02 4179.25 1128.02ZM4256.33 1089.57L4243.04 1090.39C4242.81 1089.25 4242.32 1088.23 4241.57 1087.32C4240.82 1086.39 4239.83 1085.65 4238.61 1085.1C4237.4 1084.53 4235.96 1084.25 4234.28 1084.25C4232.03 1084.25 4230.13 1084.73 4228.58 1085.68C4227.04 1086.61 4226.26 1087.86 4226.26 1089.43C4226.26 1090.68 4226.76 1091.74 4227.76 1092.6C4228.76 1093.47 4230.48 1094.16 4232.91 1094.68L4242.39 1096.59C4247.48 1097.64 4251.28 1099.32 4253.78 1101.64C4256.28 1103.95 4257.53 1107 4257.53 1110.77C4257.53 1114.2 4256.51 1117.22 4254.49 1119.81C4252.49 1122.4 4249.74 1124.42 4246.24 1125.88C4242.76 1127.31 4238.75 1128.02 4234.21 1128.02C4227.28 1128.02 4221.75 1126.58 4217.64 1123.69C4213.55 1120.78 4211.15 1116.83 4210.45 1111.83L4224.73 1111.08C4225.16 1113.19 4226.21 1114.81 4227.87 1115.92C4229.53 1117.01 4231.65 1117.56 4234.24 1117.56C4236.79 1117.56 4238.83 1117.07 4240.38 1116.09C4241.95 1115.09 4242.74 1113.81 4242.76 1112.24C4242.74 1110.92 4242.18 1109.84 4241.09 1109C4240 1108.14 4238.32 1107.48 4236.05 1107.02L4226.98 1105.22C4221.87 1104.19 4218.06 1102.42 4215.56 1099.9C4213.08 1097.37 4211.84 1094.16 4211.84 1090.25C4211.84 1086.89 4212.75 1083.99 4214.57 1081.56C4216.41 1079.12 4218.99 1077.25 4222.31 1075.93C4225.65 1074.61 4229.56 1073.95 4234.04 1073.95C4240.65 1073.95 4245.86 1075.35 4249.65 1078.15C4253.47 1080.94 4255.7 1084.75 4256.33 1089.57ZM4308.18 1127.85C4304.21 1127.85 4300.61 1126.83 4297.38 1124.78C4294.17 1122.72 4291.63 1119.68 4289.74 1115.68C4287.88 1111.66 4286.95 1106.73 4286.95 1100.89C4286.95 1094.89 4287.91 1089.9 4289.84 1085.92C4291.78 1081.92 4294.34 1078.93 4297.55 1076.95C4300.78 1074.95 4304.31 1073.95 4308.15 1073.95C4311.08 1073.95 4313.53 1074.45 4315.48 1075.45C4317.46 1076.43 4319.05 1077.66 4320.25 1079.14C4321.48 1080.59 4322.41 1082.02 4323.05 1083.43H4323.49V1057.18H4337.98V1127H4323.66V1118.61H4323.05C4322.37 1120.07 4321.4 1121.51 4320.15 1122.94C4318.92 1124.35 4317.32 1125.52 4315.34 1126.45C4313.39 1127.39 4311 1127.85 4308.18 1127.85ZM4312.79 1116.3C4315.13 1116.3 4317.11 1115.66 4318.72 1114.39C4320.36 1113.09 4321.61 1111.28 4322.47 1108.97C4323.36 1106.65 4323.8 1103.93 4323.8 1100.82C4323.8 1097.7 4323.37 1095 4322.5 1092.7C4321.64 1090.41 4320.39 1088.64 4318.75 1087.39C4317.12 1086.14 4315.13 1085.51 4312.79 1085.51C4310.4 1085.51 4308.39 1086.16 4306.75 1087.45C4305.12 1088.75 4303.88 1090.55 4303.04 1092.84C4302.2 1095.14 4301.78 1097.8 4301.78 1100.82C4301.78 1103.86 4302.2 1106.56 4303.04 1108.9C4303.9 1111.22 4305.14 1113.03 4306.75 1114.35C4308.39 1115.65 4310.4 1116.3 4312.79 1116.3ZM4383.5 1104.7V1074.64H4398.02V1127H4384.08V1117.49H4383.53C4382.35 1120.56 4380.39 1123.02 4377.64 1124.89C4374.91 1126.75 4371.58 1127.68 4367.65 1127.68C4364.15 1127.68 4361.07 1126.89 4358.41 1125.3C4355.75 1123.7 4353.67 1121.44 4352.17 1118.51C4350.69 1115.58 4349.94 1112.07 4349.92 1107.98V1074.64H4364.44V1105.39C4364.47 1108.48 4365.3 1110.92 4366.93 1112.72C4368.57 1114.51 4370.76 1115.41 4373.51 1115.41C4375.26 1115.41 4376.9 1115.01 4378.42 1114.22C4379.94 1113.4 4381.17 1112.19 4382.1 1110.6C4383.06 1109.01 4383.52 1107.05 4383.5 1104.7ZM4409.64 1127V1074.64H4423.72V1083.77H4424.26C4425.22 1080.52 4426.82 1078.07 4429.07 1076.41C4431.32 1074.73 4433.91 1073.89 4436.84 1073.89C4437.57 1073.89 4438.36 1073.93 4439.2 1074.02C4440.04 1074.11 4440.78 1074.24 4441.41 1074.4V1087.28C4440.73 1087.08 4439.79 1086.9 4438.58 1086.74C4437.38 1086.58 4436.28 1086.5 4435.28 1086.5C4433.14 1086.5 4431.23 1086.97 4429.55 1087.9C4427.89 1088.81 4426.57 1090.08 4425.59 1091.72C4424.64 1093.35 4424.16 1095.24 4424.16 1097.38V1127H4409.64ZM4448.92 1127V1074.64H4463.44V1127H4448.92ZM4456.22 1067.89C4454.06 1067.89 4452.2 1067.17 4450.66 1065.74C4449.14 1064.28 4448.38 1062.55 4448.38 1060.52C4448.38 1058.52 4449.14 1056.81 4450.66 1055.38C4452.2 1053.92 4454.06 1053.19 4456.22 1053.19C4458.38 1053.19 4460.22 1053.92 4461.74 1055.38C4463.28 1056.81 4464.06 1058.52 4464.06 1060.52C4464.06 1062.55 4463.28 1064.28 4461.74 1065.74C4460.22 1067.17 4458.38 1067.89 4456.22 1067.89ZM4489.6 1096.73V1127H4475.08V1074.64H4488.92V1083.88H4489.53C4490.69 1080.83 4492.63 1078.42 4495.36 1076.65C4498.09 1074.85 4501.39 1073.95 4505.28 1073.95C4508.92 1073.95 4512.09 1074.75 4514.79 1076.34C4517.5 1077.93 4519.6 1080.2 4521.1 1083.16C4522.6 1086.09 4523.35 1089.59 4523.35 1093.66V1127H4508.83V1096.25C4508.85 1093.05 4508.03 1090.55 4506.37 1088.75C4504.71 1086.93 4502.43 1086.02 4499.52 1086.02C4497.57 1086.02 4495.84 1086.44 4494.34 1087.28C4492.86 1088.12 4491.7 1089.35 4490.86 1090.97C4490.04 1092.56 4489.62 1094.48 4489.6 1096.73ZM4558.39 1147.73C4553.68 1147.73 4549.65 1147.08 4546.28 1145.78C4542.94 1144.51 4540.28 1142.77 4538.31 1140.57C4536.33 1138.36 4535.05 1135.89 4534.45 1133.14L4547.89 1131.33C4548.3 1132.38 4548.94 1133.35 4549.83 1134.26C4550.72 1135.17 4551.89 1135.9 4553.34 1136.44C4554.82 1137.01 4556.61 1137.3 4558.73 1137.3C4561.89 1137.3 4564.49 1136.52 4566.53 1134.98C4568.6 1133.45 4569.64 1130.9 4569.64 1127.31V1117.73H4569.02C4568.39 1119.18 4567.43 1120.56 4566.16 1121.85C4564.89 1123.15 4563.25 1124.2 4561.25 1125.02C4559.25 1125.84 4556.86 1126.25 4554.09 1126.25C4550.16 1126.25 4546.58 1125.34 4543.35 1123.52C4540.15 1121.68 4537.59 1118.87 4535.68 1115.1C4533.8 1111.31 4532.85 1106.51 4532.85 1100.72C4532.85 1094.78 4533.82 1089.83 4535.75 1085.85C4537.68 1081.87 4540.25 1078.9 4543.45 1076.92C4546.68 1074.94 4550.22 1073.95 4554.06 1073.95C4556.99 1073.95 4559.44 1074.45 4561.42 1075.45C4563.4 1076.43 4564.99 1077.66 4566.19 1079.14C4567.42 1080.59 4568.36 1082.02 4569.02 1083.43H4569.57V1074.64H4583.99V1127.51C4583.99 1131.97 4582.9 1135.69 4580.72 1138.69C4578.53 1141.69 4575.51 1143.94 4571.65 1145.44C4567.81 1146.97 4563.39 1147.73 4558.39 1147.73ZM4558.69 1115.34C4561.03 1115.34 4563.01 1114.76 4564.62 1113.6C4566.26 1112.42 4567.51 1110.74 4568.38 1108.56C4569.26 1106.35 4569.7 1103.72 4569.7 1100.65C4569.7 1097.58 4569.27 1094.92 4568.41 1092.67C4567.55 1090.4 4566.3 1088.64 4564.66 1087.39C4563.02 1086.14 4561.03 1085.51 4558.69 1085.51C4556.31 1085.51 4554.3 1086.16 4552.66 1087.45C4551.02 1088.73 4549.78 1090.5 4548.94 1092.77C4548.1 1095.05 4547.68 1097.67 4547.68 1100.65C4547.68 1103.67 4548.1 1106.28 4548.94 1108.49C4549.81 1110.67 4551.05 1112.36 4552.66 1113.57C4554.3 1114.75 4556.31 1115.34 4558.69 1115.34ZM4645.62 1074.64V1085.55H4614.08V1074.64H4645.62ZM4621.24 1062.09H4635.76V1110.91C4635.76 1112.25 4635.97 1113.3 4636.38 1114.05C4636.79 1114.77 4637.36 1115.28 4638.08 1115.58C4638.83 1115.87 4639.7 1116.02 4640.67 1116.02C4641.36 1116.02 4642.04 1115.97 4642.72 1115.85C4643.4 1115.72 4643.92 1115.61 4644.29 1115.55L4646.57 1126.35C4645.84 1126.58 4644.82 1126.84 4643.5 1127.14C4642.18 1127.45 4640.58 1127.65 4638.7 1127.72C4635.2 1127.85 4632.13 1127.39 4629.49 1126.32C4626.88 1125.25 4624.84 1123.59 4623.39 1121.34C4621.93 1119.09 4621.22 1116.25 4621.24 1112.82V1062.09ZM4670.72 1096.73V1127H4656.2V1057.18H4670.32V1083.88H4670.93C4672.11 1080.78 4674.02 1078.36 4676.66 1076.61C4679.29 1074.84 4682.6 1073.95 4686.58 1073.95C4690.21 1073.95 4693.38 1074.75 4696.09 1076.34C4698.82 1077.91 4700.93 1080.17 4702.43 1083.12C4703.95 1086.06 4704.7 1089.57 4704.68 1093.66V1127H4690.16V1096.25C4690.18 1093.02 4689.36 1090.51 4687.7 1088.72C4686.07 1086.92 4683.77 1086.02 4680.82 1086.02C4678.84 1086.02 4677.09 1086.44 4675.57 1087.28C4674.07 1088.12 4672.88 1089.35 4672.02 1090.97C4671.18 1092.56 4670.75 1094.48 4670.72 1096.73ZM4739.97 1128.02C4734.59 1128.02 4729.95 1126.93 4726.06 1124.75C4722.2 1122.55 4719.22 1119.43 4717.13 1115.41C4715.04 1111.36 4713.99 1106.58 4713.99 1101.06C4713.99 1095.67 4715.04 1090.94 4717.13 1086.88C4719.22 1082.81 4722.16 1079.64 4725.96 1077.36C4729.78 1075.09 4734.26 1073.95 4739.39 1073.95C4742.85 1073.95 4746.06 1074.51 4749.04 1075.62C4752.04 1076.72 4754.65 1078.36 4756.88 1080.57C4759.13 1082.77 4760.88 1085.55 4762.13 1088.89C4763.38 1092.2 4764.01 1096.09 4764.01 1100.55V1104.53H4719.79V1095.53H4750.34C4750.34 1093.44 4749.88 1091.59 4748.97 1089.98C4748.06 1088.36 4746.8 1087.1 4745.19 1086.19C4743.6 1085.26 4741.74 1084.8 4739.63 1084.8C4737.43 1084.8 4735.47 1085.31 4733.77 1086.33C4732.09 1087.33 4730.77 1088.68 4729.81 1090.39C4728.86 1092.07 4728.37 1093.94 4728.35 1096.01V1104.57C4728.35 1107.16 4728.82 1109.4 4729.78 1111.28C4730.76 1113.17 4732.13 1114.62 4733.9 1115.65C4735.68 1116.67 4737.78 1117.18 4740.21 1117.18C4741.82 1117.18 4743.3 1116.95 4744.64 1116.5C4745.98 1116.05 4747.13 1115.36 4748.09 1114.45C4749.04 1113.55 4749.77 1112.43 4750.27 1111.11L4763.7 1112C4763.02 1115.23 4761.62 1118.05 4759.51 1120.45C4757.41 1122.84 4754.71 1124.7 4751.39 1126.05C4748.1 1127.36 4744.29 1128.02 4739.97 1128.02ZM4819.29 1147.73C4814.59 1147.73 4810.55 1147.08 4807.19 1145.78C4803.85 1144.51 4801.19 1142.77 4799.21 1140.57C4797.24 1138.36 4795.95 1135.89 4795.36 1133.14L4808.79 1131.33C4809.2 1132.38 4809.85 1133.35 4810.74 1134.26C4811.62 1135.17 4812.79 1135.9 4814.25 1136.44C4815.72 1137.01 4817.52 1137.3 4819.63 1137.3C4822.79 1137.3 4825.39 1136.52 4827.44 1134.98C4829.51 1133.45 4830.54 1130.9 4830.54 1127.31V1117.73H4829.93C4829.29 1119.18 4828.34 1120.56 4827.07 1121.85C4825.79 1123.15 4824.16 1124.2 4822.16 1125.02C4820.16 1125.84 4817.77 1126.25 4815 1126.25C4811.07 1126.25 4807.49 1125.34 4804.26 1123.52C4801.05 1121.68 4798.5 1118.87 4796.59 1115.1C4794.7 1111.31 4793.76 1106.51 4793.76 1100.72C4793.76 1094.78 4794.72 1089.83 4796.66 1085.85C4798.59 1081.87 4801.16 1078.9 4804.36 1076.92C4807.59 1074.94 4811.12 1073.95 4814.96 1073.95C4817.89 1073.95 4820.35 1074.45 4822.33 1075.45C4824.3 1076.43 4825.89 1077.66 4827.1 1079.14C4828.33 1080.59 4829.27 1082.02 4829.93 1083.43H4830.47V1074.64H4844.89V1127.51C4844.89 1131.97 4843.8 1135.69 4841.62 1138.69C4839.44 1141.69 4836.42 1143.94 4832.55 1145.44C4828.71 1146.97 4824.29 1147.73 4819.29 1147.73ZM4819.6 1115.34C4821.94 1115.34 4823.92 1114.76 4825.53 1113.6C4827.17 1112.42 4828.42 1110.74 4829.28 1108.56C4830.17 1106.35 4830.61 1103.72 4830.61 1100.65C4830.61 1097.58 4830.18 1094.92 4829.32 1092.67C4828.45 1090.4 4827.2 1088.64 4825.57 1087.39C4823.93 1086.14 4821.94 1085.51 4819.6 1085.51C4817.21 1085.51 4815.2 1086.16 4813.57 1087.45C4811.93 1088.73 4810.69 1090.5 4809.85 1092.77C4809.01 1095.05 4808.59 1097.67 4808.59 1100.65C4808.59 1103.67 4809.01 1106.28 4809.85 1108.49C4810.71 1110.67 4811.95 1112.36 4813.57 1113.57C4815.2 1114.75 4817.21 1115.34 4819.6 1115.34ZM4856.45 1127V1074.64H4870.97V1127H4856.45ZM4863.75 1067.89C4861.59 1067.89 4859.74 1067.17 4858.19 1065.74C4856.67 1064.28 4855.91 1062.55 4855.91 1060.52C4855.91 1058.52 4856.67 1056.81 4858.19 1055.38C4859.74 1053.92 4861.59 1053.19 4863.75 1053.19C4865.91 1053.19 4867.75 1053.92 4869.27 1055.38C4870.82 1056.81 4871.59 1058.52 4871.59 1060.52C4871.59 1062.55 4870.82 1064.28 4869.27 1065.74C4867.75 1067.17 4865.91 1067.89 4863.75 1067.89ZM4931.43 1074.64L4913.12 1127H4896.76L4878.45 1074.64H4893.79L4904.66 1112.1H4905.21L4916.05 1074.64H4931.43ZM4961.03 1128.02C4955.65 1128.02 4951.01 1126.93 4947.12 1124.75C4943.26 1122.55 4940.28 1119.43 4938.19 1115.41C4936.1 1111.36 4935.06 1106.58 4935.06 1101.06C4935.06 1095.67 4936.1 1090.94 4938.19 1086.88C4940.28 1082.81 4943.23 1079.64 4947.02 1077.36C4950.84 1075.09 4955.32 1073.95 4960.45 1073.95C4963.91 1073.95 4967.13 1074.51 4970.1 1075.62C4973.1 1076.72 4975.72 1078.36 4977.94 1080.57C4980.19 1082.77 4981.94 1085.55 4983.19 1088.89C4984.44 1092.2 4985.07 1096.09 4985.07 1100.55V1104.53H4940.85V1095.53H4971.4C4971.4 1093.44 4970.94 1091.59 4970.03 1089.98C4969.13 1088.36 4967.86 1087.1 4966.25 1086.19C4964.66 1085.26 4962.81 1084.8 4960.69 1084.8C4958.49 1084.8 4956.53 1085.31 4954.83 1086.33C4953.15 1087.33 4951.83 1088.68 4950.88 1090.39C4949.92 1092.07 4949.43 1093.94 4949.41 1096.01V1104.57C4949.41 1107.16 4949.89 1109.4 4950.84 1111.28C4951.82 1113.17 4953.19 1114.62 4954.97 1115.65C4956.74 1116.67 4958.84 1117.18 4961.27 1117.18C4962.89 1117.18 4964.36 1116.95 4965.7 1116.5C4967.05 1116.05 4968.19 1115.36 4969.15 1114.45C4970.1 1113.55 4970.83 1112.43 4971.33 1111.11L4984.76 1112C4984.08 1115.23 4982.68 1118.05 4980.57 1120.45C4978.48 1122.84 4975.77 1124.7 4972.45 1126.05C4969.16 1127.36 4965.35 1128.02 4961.03 1128.02ZM5009.07 1096.73V1127H4994.55V1074.64H5008.39V1083.88H5009C5010.16 1080.83 5012.1 1078.42 5014.83 1076.65C5017.56 1074.85 5020.86 1073.95 5024.75 1073.95C5028.39 1073.95 5031.56 1074.75 5034.26 1076.34C5036.97 1077.93 5039.07 1080.2 5040.57 1083.16C5042.07 1086.09 5042.82 1089.59 5042.82 1093.66V1127H5028.3V1096.25C5028.32 1093.05 5027.5 1090.55 5025.84 1088.75C5024.18 1086.93 5021.9 1086.02 5018.99 1086.02C5017.03 1086.02 5015.31 1086.44 5013.81 1087.28C5012.33 1088.12 5011.17 1089.35 5010.33 1090.97C5009.51 1092.56 5009.09 1094.48 5009.07 1096.73ZM5086.81 1127L5072.56 1074.64H5087.26L5095.37 1109.82H5095.85L5104.3 1074.64H5118.72L5127.31 1109.61H5127.76L5135.73 1074.64H5150.39L5136.18 1127H5120.8L5111.8 1094.07H5111.15L5102.15 1127H5086.81ZM5180.69 1128.02C5175.3 1128.02 5170.67 1126.93 5166.78 1124.75C5162.92 1122.55 5159.94 1119.43 5157.85 1115.41C5155.76 1111.36 5154.71 1106.58 5154.71 1101.06C5154.71 1095.67 5155.76 1090.94 5157.85 1086.88C5159.94 1082.81 5162.88 1079.64 5166.68 1077.36C5170.5 1075.09 5174.97 1073.95 5180.11 1073.95C5183.57 1073.95 5186.78 1074.51 5189.76 1075.62C5192.76 1076.72 5195.37 1078.36 5197.6 1080.57C5199.85 1082.77 5201.6 1085.55 5202.85 1088.89C5204.1 1092.2 5204.72 1096.09 5204.72 1100.55V1104.53H5160.51V1095.53H5191.05C5191.05 1093.44 5190.6 1091.59 5189.69 1089.98C5188.78 1088.36 5187.52 1087.1 5185.91 1086.19C5184.32 1085.26 5182.46 1084.8 5180.35 1084.8C5178.14 1084.8 5176.19 1085.31 5174.49 1086.33C5172.8 1087.33 5171.49 1088.68 5170.53 1090.39C5169.58 1092.07 5169.09 1093.94 5169.07 1096.01V1104.57C5169.07 1107.16 5169.54 1109.4 5170.5 1111.28C5171.47 1113.17 5172.85 1114.62 5174.62 1115.65C5176.39 1116.67 5178.5 1117.18 5180.93 1117.18C5182.54 1117.18 5184.02 1116.95 5185.36 1116.5C5186.7 1116.05 5187.85 1115.36 5188.8 1114.45C5189.76 1113.55 5190.49 1112.43 5190.99 1111.11L5204.42 1112C5203.74 1115.23 5202.34 1118.05 5200.22 1120.45C5198.13 1122.84 5195.43 1124.7 5192.11 1126.05C5188.82 1127.36 5185.01 1128.02 5180.69 1128.02ZM5229.13 1127.99C5225.79 1127.99 5222.82 1127.41 5220.2 1126.25C5217.59 1125.07 5215.52 1123.33 5214 1121.03C5212.5 1118.72 5211.75 1115.83 5211.75 1112.38C5211.75 1109.47 5212.28 1107.02 5213.35 1105.05C5214.42 1103.07 5215.87 1101.48 5217.71 1100.27C5219.55 1099.07 5221.64 1098.16 5223.99 1097.55C5226.35 1096.93 5228.83 1096.5 5231.42 1096.25C5234.46 1095.93 5236.92 1095.64 5238.78 1095.36C5240.64 1095.07 5242 1094.64 5242.84 1094.07C5243.68 1093.5 5244.1 1092.66 5244.1 1091.55V1091.34C5244.1 1089.18 5243.42 1087.51 5242.05 1086.33C5240.71 1085.15 5238.8 1084.56 5236.33 1084.56C5233.71 1084.56 5231.63 1085.14 5230.09 1086.3C5228.54 1087.43 5227.52 1088.86 5227.02 1090.59L5213.59 1089.5C5214.27 1086.32 5215.61 1083.57 5217.61 1081.25C5219.61 1078.91 5222.19 1077.11 5225.35 1075.86C5228.53 1074.59 5232.21 1073.95 5236.39 1073.95C5239.3 1073.95 5242.09 1074.3 5244.75 1074.98C5247.43 1075.66 5249.8 1076.72 5251.87 1078.15C5253.96 1079.58 5255.61 1081.42 5256.82 1083.67C5258.02 1085.9 5258.62 1088.57 5258.62 1091.68V1127H5244.85V1119.74H5244.44C5243.6 1121.38 5242.47 1122.82 5241.07 1124.07C5239.66 1125.3 5237.96 1126.26 5235.99 1126.97C5234.01 1127.65 5231.72 1127.99 5229.13 1127.99ZM5233.29 1117.97C5235.43 1117.97 5237.32 1117.55 5238.95 1116.7C5240.59 1115.84 5241.87 1114.68 5242.8 1113.23C5243.74 1111.77 5244.2 1110.12 5244.2 1108.28V1102.73C5243.75 1103.02 5243.12 1103.3 5242.33 1103.55C5241.55 1103.77 5240.68 1103.99 5239.7 1104.19C5238.72 1104.37 5237.75 1104.55 5236.77 1104.7C5235.79 1104.84 5234.91 1104.97 5234.11 1105.08C5232.41 1105.33 5230.92 1105.73 5229.64 1106.27C5228.37 1106.82 5227.38 1107.56 5226.68 1108.49C5225.97 1109.4 5225.62 1110.53 5225.62 1111.9C5225.62 1113.88 5226.34 1115.39 5227.77 1116.43C5229.22 1117.45 5231.07 1117.97 5233.29 1117.97ZM5297.74 1074.64V1085.55H5266.21V1074.64H5297.74ZM5273.37 1062.09H5287.89V1110.91C5287.89 1112.25 5288.09 1113.3 5288.5 1114.05C5288.91 1114.77 5289.48 1115.28 5290.21 1115.58C5290.96 1115.87 5291.82 1116.02 5292.8 1116.02C5293.48 1116.02 5294.16 1115.97 5294.84 1115.85C5295.53 1115.72 5296.05 1115.61 5296.41 1115.55L5298.7 1126.35C5297.97 1126.58 5296.95 1126.84 5295.63 1127.14C5294.31 1127.45 5292.71 1127.65 5290.82 1127.72C5287.32 1127.85 5284.25 1127.39 5281.62 1126.32C5279 1125.25 5276.97 1123.59 5275.51 1121.34C5274.06 1119.09 5273.34 1116.25 5273.37 1112.82V1062.09ZM5322.85 1096.73V1127H5308.33V1057.18H5322.44V1083.88H5323.05C5324.24 1080.78 5326.14 1078.36 5328.78 1076.61C5331.42 1074.84 5334.72 1073.95 5338.7 1073.95C5342.34 1073.95 5345.51 1074.75 5348.21 1076.34C5350.94 1077.91 5353.05 1080.17 5354.55 1083.12C5356.08 1086.06 5356.83 1089.57 5356.8 1093.66V1127H5342.28V1096.25C5342.3 1093.02 5341.49 1090.51 5339.83 1088.72C5338.19 1086.92 5335.89 1086.02 5332.94 1086.02C5330.96 1086.02 5329.21 1086.44 5327.69 1087.28C5326.19 1088.12 5325.01 1089.35 5324.14 1090.97C5323.3 1092.56 5322.87 1094.48 5322.85 1096.73ZM5392.1 1128.02C5386.71 1128.02 5382.07 1126.93 5378.19 1124.75C5374.32 1122.55 5371.35 1119.43 5369.26 1115.41C5367.16 1111.36 5366.12 1106.58 5366.12 1101.06C5366.12 1095.67 5367.16 1090.94 5369.26 1086.88C5371.35 1082.81 5374.29 1079.64 5378.09 1077.36C5381.9 1075.09 5386.38 1073.95 5391.52 1073.95C5394.97 1073.95 5398.19 1074.51 5401.16 1075.62C5404.16 1076.72 5406.78 1078.36 5409.01 1080.57C5411.26 1082.77 5413.01 1085.55 5414.26 1088.89C5415.51 1092.2 5416.13 1096.09 5416.13 1100.55V1104.53H5371.91V1095.53H5402.46C5402.46 1093.44 5402.01 1091.59 5401.1 1089.98C5400.19 1088.36 5398.93 1087.1 5397.31 1086.19C5395.72 1085.26 5393.87 1084.8 5391.76 1084.8C5389.55 1084.8 5387.6 1085.31 5385.89 1086.33C5384.21 1087.33 5382.89 1088.68 5381.94 1090.39C5380.98 1092.07 5380.49 1093.94 5380.47 1096.01V1104.57C5380.47 1107.16 5380.95 1109.4 5381.9 1111.28C5382.88 1113.17 5384.26 1114.62 5386.03 1115.65C5387.8 1116.67 5389.9 1117.18 5392.34 1117.18C5393.95 1117.18 5395.43 1116.95 5396.77 1116.5C5398.11 1116.05 5399.26 1115.36 5400.21 1114.45C5401.16 1113.55 5401.89 1112.43 5402.39 1111.11L5415.82 1112C5415.14 1115.23 5413.74 1118.05 5411.63 1120.45C5409.54 1122.84 5406.84 1124.7 5403.52 1126.05C5400.22 1127.36 5396.41 1128.02 5392.1 1128.02ZM5425.61 1127V1074.64H5439.69V1083.77H5440.23C5441.19 1080.52 5442.79 1078.07 5445.04 1076.41C5447.29 1074.73 5449.88 1073.89 5452.81 1073.89C5453.54 1073.89 5454.32 1073.93 5455.16 1074.02C5456.01 1074.11 5456.74 1074.24 5457.38 1074.4V1087.28C5456.7 1087.08 5455.76 1086.9 5454.55 1086.74C5453.35 1086.58 5452.24 1086.5 5451.24 1086.5C5449.11 1086.5 5447.2 1086.97 5445.52 1087.9C5443.86 1088.81 5442.54 1090.08 5441.56 1091.72C5440.61 1093.35 5440.13 1095.24 5440.13 1097.38V1127H5425.61ZM5467.38 1127.89C5465.13 1127.89 5463.2 1127.09 5461.58 1125.5C5459.99 1123.89 5459.2 1121.95 5459.2 1119.7C5459.2 1117.48 5459.99 1115.57 5461.58 1113.98C5463.2 1112.39 5465.13 1111.59 5467.38 1111.59C5469.56 1111.59 5471.47 1112.39 5473.11 1113.98C5474.74 1115.57 5475.56 1117.48 5475.56 1119.7C5475.56 1121.2 5475.17 1122.58 5474.4 1123.83C5473.65 1125.06 5472.66 1126.05 5471.43 1126.8C5470.21 1127.52 5468.86 1127.89 5467.38 1127.89Z" fill="white"/>
</svg>
