<svg width="2726" height="726" viewBox="0 0 2726 726" fill="none" xmlns="http://www.w3.org/2000/svg">
<path d="M1120.64 270.134C1118.94 252.946 1111.63 239.594 1098.7 230.077C1085.77 220.56 1068.23 215.801 1046.07 215.801C1031.01 215.801 1018.3 217.932 1007.93 222.193C997.563 226.312 989.608 232.065 984.068 239.452C978.67 246.838 975.972 255.219 975.972 264.594C975.688 272.406 977.321 279.224 980.872 285.048C984.565 290.872 989.608 295.915 996 300.176C1002.39 304.295 1009.78 307.918 1018.16 311.043C1026.54 314.026 1035.49 316.582 1045.01 318.713L1084.21 328.088C1103.24 332.349 1120.72 338.031 1136.62 345.134C1152.53 352.236 1166.31 360.972 1177.96 371.341C1189.61 381.71 1198.63 393.926 1205.02 407.989C1211.55 422.051 1214.89 438.173 1215.03 456.355C1214.89 483.06 1208.07 506.213 1194.58 525.815C1181.23 545.276 1161.91 560.403 1136.62 571.199C1111.48 581.852 1081.16 587.179 1045.64 587.179C1010.42 587.179 979.736 581.781 953.599 570.986C927.605 560.19 907.293 544.21 892.662 523.045C878.173 501.739 870.574 475.389 869.864 443.997H959.139C960.134 458.628 964.324 470.844 971.71 480.645C979.239 490.304 989.253 497.619 1001.75 502.591C1014.39 507.42 1028.67 509.835 1044.58 509.835C1060.2 509.835 1073.77 507.562 1085.28 503.017C1096.92 498.472 1105.94 492.151 1112.34 484.054C1118.73 475.957 1121.92 466.653 1121.92 456.142C1121.92 446.341 1119.01 438.102 1113.19 431.426C1107.51 424.75 1099.13 419.068 1088.05 414.381C1077.11 409.693 1063.68 405.432 1047.78 401.597L1000.26 389.665C963.472 380.716 934.423 366.724 913.116 347.69C891.81 328.656 881.227 303.017 881.369 270.773C881.227 244.352 888.259 221.27 902.463 201.526C916.81 181.781 936.483 166.369 961.483 155.29C986.483 144.21 1014.89 138.67 1046.71 138.67C1079.1 138.67 1107.36 144.21 1131.51 155.29C1155.8 166.369 1174.69 181.781 1188.19 201.526C1201.68 221.27 1208.64 244.139 1209.07 270.134H1120.64ZM1357.63 486.824L1357.84 377.946H1371.05L1475.88 253.727H1580.07L1439.24 418.216H1417.72L1357.63 486.824ZM1275.39 581V144.636H1366.15V581H1275.39ZM1479.93 581L1383.62 438.457L1444.14 374.324L1586.25 581H1479.93ZM1685.91 703.727C1674.41 703.727 1663.61 702.804 1653.53 700.957C1643.59 699.253 1635.35 697.051 1628.81 694.352L1649.27 626.597C1659.92 629.864 1669.51 631.639 1678.03 631.923C1686.7 632.207 1694.15 630.219 1700.4 625.957C1706.8 621.696 1711.98 614.452 1715.96 604.224L1721.28 590.375L1603.88 253.727H1699.34L1767.09 494.068H1770.5L1838.9 253.727H1934.99L1807.79 616.369C1801.68 633.983 1793.37 649.324 1782.86 662.392C1772.49 675.602 1759.35 685.759 1743.44 692.861C1727.53 700.105 1708.36 703.727 1685.91 703.727Z" fill="white"/>
<path d="M2015.93 581V144.636H2304.85V220.702H2108.18V324.679H2285.67V400.744H2108.18V581H2015.93ZM2400.73 703.727C2389.22 703.727 2378.43 702.804 2368.34 700.957C2358.4 699.253 2350.16 697.051 2343.62 694.352L2364.08 626.597C2374.73 629.864 2384.32 631.639 2392.84 631.923C2401.51 632.207 2408.97 630.219 2415.22 625.957C2421.61 621.696 2426.79 614.452 2430.77 604.224L2436.1 590.375L2318.7 253.727H2414.15L2481.91 494.068H2485.32L2553.71 253.727H2649.8L2522.6 616.369C2516.49 633.983 2508.18 649.324 2497.67 662.392C2487.3 675.602 2474.16 685.759 2458.26 692.861C2442.35 700.105 2423.17 703.727 2400.73 703.727Z" fill="#4F98FF"/>
<path d="M628.244 306.595L603.45 309.795C604.617 318.841 610.619 326.534 619.11 329.866L628.244 306.595ZM100.558 354.275L111.151 376.92C122.048 371.823 127.769 359.686 124.767 348.036L100.558 354.275ZM218.154 263.077L206.052 284.952C212.479 288.508 220.144 289.058 227.013 286.455C233.881 283.852 239.258 278.361 241.715 271.439L218.154 263.077ZM418 122V147C513.066 147 591.597 217.962 603.45 309.795L628.244 306.595L653.038 303.395C638.009 186.95 538.529 97 418 97V122ZM628.244 306.595L619.11 329.866C667.096 348.701 701 395.422 701 450H726H751C751 374.173 703.86 309.418 637.378 283.323L628.244 306.595ZM726 450H701C701 521.245 643.245 579 572 579V604V629C670.859 629 751 548.859 751 450H726ZM572 604V579H156V604V629H572V604ZM156 604V579C97.4578 579 50 531.542 50 473H25H0C0 559.156 69.8436 629 156 629V604ZM25 473H50C50 430.53 74.9762 393.842 111.151 376.92L100.558 354.275L89.9647 331.631C36.8675 356.469 0 410.404 0 473H25ZM100.558 354.275L124.767 348.036C123.618 343.579 123 338.881 123 334H98H73C73 343.122 74.1573 352.012 76.3487 360.515L100.558 354.275ZM98 334H123C123 303.072 148.072 278 179 278V253V228C120.458 228 73 275.458 73 334H98ZM179 253V278C188.859 278 198.054 280.528 206.052 284.952L218.154 263.077L230.257 241.202C215.044 232.785 197.545 228 179 228V253ZM218.154 263.077L241.715 271.439C267.461 198.892 336.703 147 418 147V122V97C314.877 97 227.198 162.849 194.594 254.716L218.154 263.077Z" fill="#4F98FF"/>
</svg>
